<svg width="24" height="24" viewBox="0 0 24 24" fill="none" xmlns="http://www.w3.org/2000/svg">
<rect width="24" height="24" rx="2.57143" fill="#43DB6D"/>
<path d="M5.625 18C5.325 18 5.0625 17.8844 4.8375 17.6531C4.6125 17.4219 4.5 17.1625 4.5 16.875V7.125C4.5 6.8375 4.6125 6.57813 4.8375 6.34688C5.0625 6.11563 5.325 6 5.625 6H10.875L12 7.125H18.375C18.6625 7.125 18.9219 7.24063 19.1531 7.47188C19.3844 7.70313 19.5 7.9625 19.5 8.25V16.875C19.5 17.1625 19.3844 17.4219 19.1531 17.6531C18.9219 17.8844 18.6625 18 18.375 18H5.625ZM5.625 7.125V16.875H18.375V8.25H11.5312L10.4062 7.125H5.625Z" fill="white"/>
<path d="M5.625 18C5.325 18 5.0625 17.8844 4.8375 17.6531C4.6125 17.4219 4.5 17.1625 4.5 16.875V7.125C4.5 6.8375 4.6125 6.57813 4.8375 6.34688C5.0625 6.11563 5.325 6 5.625 6H10.875L12 7.125H18.375C18.6625 7.125 18.9219 7.24063 19.1531 7.47188C19.3844 7.70313 19.5 7.9625 19.5 8.25V16.875C19.5 17.1625 19.3844 17.4219 19.1531 17.6531C18.9219 17.8844 18.6625 18 18.375 18H5.625ZM5.625 7.125V16.875H18.375V8.25H11.5312L10.4062 7.125H5.625Z" fill="white"/>
<path d="M11.2852 14.6361L14.7352 11.1861L13.9289 10.3799L11.2664 13.0424L10.1977 11.9736L9.41016 12.7611L11.2852 14.6361Z" fill="white"/>
<path d="M11.2852 14.6361L14.7352 11.1861L13.9289 10.3799L11.2664 13.0424L10.1977 11.9736L9.41016 12.7611L11.2852 14.6361Z" fill="white"/>
</svg>
