<svg width="24" height="24" viewBox="0 0 24 24" fill="none" xmlns="http://www.w3.org/2000/svg">
<rect width="24" height="24" rx="3" fill="#F3CC00"/>
<path d="M8.5625 15.4375H17.3125V6.6875H16.375V10.6094C16.375 10.7031 16.3359 10.7734 16.2578 10.8203C16.1797 10.8672 16.099 10.8646 16.0156 10.8125L14.9219 10.1406L13.8281 10.8125C13.7448 10.8646 13.6641 10.8672 13.5859 10.8203C13.5078 10.7734 13.4688 10.7031 13.4688 10.6094V6.6875H8.5625V15.4375ZM8.5625 16.375C8.3125 16.375 8.09375 16.2812 7.90625 16.0938C7.71875 15.9062 7.625 15.6875 7.625 15.4375V6.6875C7.625 6.4375 7.71875 6.21875 7.90625 6.03125C8.09375 5.84375 8.3125 5.75 8.5625 5.75H17.3125C17.5625 5.75 17.7812 5.84375 17.9688 6.03125C18.1562 6.21875 18.25 6.4375 18.25 6.6875V15.4375C18.25 15.6875 18.1562 15.9062 17.9688 16.0938C17.7812 16.2812 17.5625 16.375 17.3125 16.375H8.5625ZM6.6875 18.25C6.4375 18.25 6.21875 18.1562 6.03125 17.9688C5.84375 17.7812 5.75 17.5625 5.75 17.3125V8.09375C5.75 7.95833 5.79427 7.84635 5.88281 7.75781C5.97135 7.66927 6.08333 7.625 6.21875 7.625C6.35417 7.625 6.46615 7.66927 6.55469 7.75781C6.64323 7.84635 6.6875 7.95833 6.6875 8.09375V17.3125H15.9062C16.0417 17.3125 16.1536 17.3568 16.2422 17.4453C16.3307 17.5339 16.375 17.6458 16.375 17.7812C16.375 17.9167 16.3307 18.0286 16.2422 18.1172C16.1536 18.2057 16.0417 18.25 15.9062 18.25H6.6875ZM13.4688 6.6875H16.375H13.4688ZM8.5625 6.6875H17.3125H8.5625Z" fill="white"/>
</svg>
