<svg width="24" height="24" viewBox="0 0 24 24" fill="none" xmlns="http://www.w3.org/2000/svg">
<rect width="24" height="24" rx="2.57143" fill="#2D94F3"/>
<path d="M6.21875 7.85938C6.08333 7.85938 5.97135 7.8151 5.88281 7.72656C5.79427 7.63802 5.75 7.52604 5.75 7.39063V5.59375C5.75 5.45833 5.79427 5.34635 5.88281 5.25781C5.97135 5.16927 6.08333 5.125 6.21875 5.125H8.01562C8.15104 5.125 8.26302 5.16927 8.35156 5.25781C8.4401 5.34635 8.48438 5.45833 8.48438 5.59375C8.48438 5.72917 8.4401 5.84115 8.35156 5.92969C8.26302 6.01823 8.15104 6.0625 8.01562 6.0625H6.6875V7.39063C6.6875 7.52604 6.64323 7.63802 6.55469 7.72656C6.46615 7.8151 6.35417 7.85938 6.21875 7.85938ZM17.7812 7.85938C17.6458 7.85938 17.5339 7.8151 17.4453 7.72656C17.3568 7.63802 17.3125 7.52604 17.3125 7.39063V6.0625H15.9844C15.849 6.0625 15.737 6.01823 15.6484 5.92969C15.5599 5.84115 15.5156 5.72917 15.5156 5.59375C15.5156 5.45833 15.5599 5.34635 15.6484 5.25781C15.737 5.16927 15.849 5.125 15.9844 5.125H17.7812C17.9167 5.125 18.0286 5.16927 18.1172 5.25781C18.2057 5.34635 18.25 5.45833 18.25 5.59375V7.39063C18.25 7.52604 18.2057 7.63802 18.1172 7.72656C18.0286 7.8151 17.9167 7.85938 17.7812 7.85938ZM6.21875 18.875C6.08333 18.875 5.97135 18.8307 5.88281 18.7422C5.79427 18.6536 5.75 18.5417 5.75 18.4063V16.6094C5.75 16.474 5.79427 16.362 5.88281 16.2734C5.97135 16.1849 6.08333 16.1406 6.21875 16.1406C6.35417 16.1406 6.46615 16.1849 6.55469 16.2734C6.64323 16.362 6.6875 16.474 6.6875 16.6094V17.9375H8.01562C8.15104 17.9375 8.26302 17.9818 8.35156 18.0703C8.4401 18.1589 8.48438 18.2708 8.48438 18.4063C8.48438 18.5417 8.4401 18.6536 8.35156 18.7422C8.26302 18.8307 8.15104 18.875 8.01562 18.875H6.21875ZM15.9844 18.875C15.849 18.875 15.737 18.8307 15.6484 18.7422C15.5599 18.6536 15.5156 18.5417 15.5156 18.4063C15.5156 18.2708 15.5599 18.1589 15.6484 18.0703C15.737 17.9818 15.849 17.9375 15.9844 17.9375H17.3125V16.6094C17.3125 16.474 17.3568 16.362 17.4453 16.2734C17.5339 16.1849 17.6458 16.1406 17.7812 16.1406C17.9167 16.1406 18.0286 16.1849 18.1172 16.2734C18.2057 16.362 18.25 16.474 18.25 16.6094V18.4063C18.25 18.5417 18.2057 18.6536 18.1172 18.7422C18.0286 18.8307 17.9167 18.875 17.7812 18.875H15.9844ZM8.5625 16.0625H15.4375V7.9375H8.5625V16.0625ZM8.5625 17C8.3125 17 8.09375 16.9063 7.90625 16.7188C7.71875 16.5313 7.625 16.3125 7.625 16.0625V7.9375C7.625 7.6875 7.71875 7.46875 7.90625 7.28125C8.09375 7.09375 8.3125 7 8.5625 7H15.4375C15.6875 7 15.9062 7.09375 16.0938 7.28125C16.2812 7.46875 16.375 7.6875 16.375 7.9375V16.0625C16.375 16.3125 16.2812 16.5313 16.0938 16.7188C15.9062 16.9063 15.6875 17 15.4375 17H8.5625ZM10.75 10.5938H13.25C13.3854 10.5938 13.4974 10.5495 13.5859 10.4609C13.6745 10.3724 13.7188 10.2604 13.7188 10.125C13.7188 9.98958 13.6745 9.8776 13.5859 9.78906C13.4974 9.70052 13.3854 9.65625 13.25 9.65625H10.75C10.6146 9.65625 10.5026 9.70052 10.4141 9.78906C10.3255 9.8776 10.2812 9.98958 10.2812 10.125C10.2812 10.2604 10.3255 10.3724 10.4141 10.4609C10.5026 10.5495 10.6146 10.5938 10.75 10.5938ZM10.75 12.4688H13.25C13.3854 12.4688 13.4974 12.4245 13.5859 12.3359C13.6745 12.2474 13.7188 12.1354 13.7188 12C13.7188 11.8646 13.6745 11.7526 13.5859 11.6641C13.4974 11.5755 13.3854 11.5313 13.25 11.5313H10.75C10.6146 11.5313 10.5026 11.5755 10.4141 11.6641C10.3255 11.7526 10.2812 11.8646 10.2812 12C10.2812 12.1354 10.3255 12.2474 10.4141 12.3359C10.5026 12.4245 10.6146 12.4688 10.75 12.4688ZM10.75 14.3438H13.25C13.3854 14.3438 13.4974 14.2995 13.5859 14.2109C13.6745 14.1224 13.7188 14.0104 13.7188 13.875C13.7188 13.7396 13.6745 13.6276 13.5859 13.5391C13.4974 13.4505 13.3854 13.4063 13.25 13.4063H10.75C10.6146 13.4063 10.5026 13.4505 10.4141 13.5391C10.3255 13.6276 10.2812 13.7396 10.2812 13.875C10.2812 14.0104 10.3255 14.1224 10.4141 14.2109C10.5026 14.2995 10.6146 14.3438 10.75 14.3438ZM8.5625 16.0625V7.9375V16.0625Z" fill="white"/>
</svg>
