<svg width="24" height="24" viewBox="0 0 24 24" fill="none" xmlns="http://www.w3.org/2000/svg">
<rect width="24" height="24" rx="3" fill="#F3802D"/>
<path d="M10.9233 11.3182H13.0767V6.54545C13.0767 6.26136 12.975 6.01989 12.7716 5.82102C12.5683 5.62216 12.311 5.52273 12 5.52273C11.7009 5.52273 11.4467 5.61932 11.2373 5.8125C11.028 6.00568 10.9233 6.25 10.9233 6.54545V11.3182ZM6.61647 14.3864H17.3835V12.3409H6.61647V14.3864ZM5.46798 18.4773H7.87262V16.9432C7.87262 16.7955 7.92347 16.6733 8.02516 16.5767C8.12685 16.4801 8.25545 16.4318 8.41098 16.4318C8.5665 16.4318 8.69511 16.4801 8.7968 16.5767C8.89849 16.6733 8.94933 16.7955 8.94933 16.9432V18.4773H11.4616V16.9432C11.4616 16.7955 11.5125 16.6733 11.6142 16.5767C11.7159 16.4801 11.8445 16.4318 12 16.4318C12.1555 16.4318 12.2841 16.4801 12.3858 16.5767C12.4875 16.6733 12.5384 16.7955 12.5384 16.9432V18.4773H15.0507V16.9432C15.0507 16.7955 15.1015 16.6733 15.2032 16.5767C15.3049 16.4801 15.4335 16.4318 15.589 16.4318C15.7445 16.4318 15.8732 16.4801 15.9748 16.5767C16.0765 16.6733 16.1274 16.7955 16.1274 16.9432V18.4773H18.532L17.6348 15.0682H6.36524L5.46798 18.4773ZM18.0654 19.5H5.93455C5.46798 19.5 5.09113 19.3239 4.80401 18.9716C4.51689 18.6193 4.43315 18.2273 4.55278 17.7955L5.53976 14.0455V12.6818C5.53976 12.3068 5.68033 11.9858 5.96147 11.7188C6.24261 11.4517 6.58058 11.3182 6.97537 11.3182H9.84659V6.54545C9.84659 5.97727 10.0559 5.49432 10.4747 5.09659C10.8934 4.69886 11.4018 4.5 12 4.5C12.5982 4.5 13.1066 4.69886 13.5253 5.09659C13.9441 5.49432 14.1534 5.97727 14.1534 6.54545V11.3182H17.0246C17.4194 11.3182 17.7574 11.4517 18.0385 11.7188C18.3197 11.9858 18.4602 12.3068 18.4602 12.6818V14.0455L19.4472 17.7955C19.5669 18.2273 19.4831 18.6193 19.196 18.9716C18.9089 19.3239 18.532 19.5 18.0654 19.5ZM17.3835 12.3409H6.61647H17.3835ZM13.0767 11.3182H10.9233H13.0767Z" fill="white"/>
</svg>
