<svg width="24" height="24" viewBox="0 0 24 24" fill="none" xmlns="http://www.w3.org/2000/svg">
<rect width="24" height="24" rx="3" fill="#F32D2D"/>
<g clip-path="url(#clip0_2239_4012)">
<path d="M5.97949 17.6663C5.70796 17.6663 5.463 17.5571 5.2446 17.3387C5.02619 17.1203 4.91699 16.8754 4.91699 16.6038V7.39551C4.91699 7.12398 5.02619 6.87901 5.2446 6.66061C5.463 6.44221 5.70796 6.33301 5.97949 6.33301H10.9555L12.018 7.39551H18.0212C18.2927 7.39551 18.5377 7.50471 18.7561 7.72311C18.9745 7.94151 19.0837 8.18648 19.0837 8.45801H11.5576L10.4951 7.39551H5.97949V16.6038L7.78574 9.52051H20.1462L18.2514 16.8518C18.1805 17.1351 18.0507 17.3417 17.8618 17.4715C17.6729 17.6014 17.4309 17.6663 17.1357 17.6663H5.97949ZM7.09512 16.6038H17.2243L18.7118 10.583H8.58262L7.09512 16.6038ZM7.09512 16.6038L8.58262 10.583L7.09512 16.6038ZM5.97949 8.45801V7.39551V8.45801Z" fill="white"/>
</g>
<defs>
<clipPath id="clip0_2239_4012">
<rect width="17" height="17" fill="white" transform="translate(3.5 3.5)"/>
</clipPath>
</defs>
</svg>
