<svg width="24" height="24" viewBox="0 0 24 24" fill="none" xmlns="http://www.w3.org/2000/svg">
<rect width="24" height="24" rx="2.57143" fill="#9C2DF3"/>
<path d="M12 15.3328C11.824 15.3328 11.6784 15.2742 11.5633 15.1568C11.4482 15.0395 11.3906 14.8912 11.3906 14.7118V7.65287L9.37969 9.70223C9.25781 9.82643 9.11563 9.88508 8.95312 9.87818C8.79063 9.87128 8.64844 9.80573 8.52656 9.68153C8.40469 9.55732 8.34375 9.40897 8.34375 9.23646C8.34375 9.06396 8.40469 8.9156 8.52656 8.7914L11.5734 5.68631C11.6411 5.6173 11.7089 5.569 11.7766 5.5414C11.8443 5.5138 11.9188 5.5 12 5.5C12.0813 5.5 12.1557 5.5138 12.2234 5.5414C12.2911 5.569 12.3589 5.6173 12.4266 5.68631L15.4937 8.8121C15.6156 8.93631 15.6766 9.08121 15.6766 9.24681C15.6766 9.41242 15.6156 9.55732 15.4937 9.68153C15.3719 9.80573 15.2263 9.86783 15.057 9.86783C14.8878 9.86783 14.7422 9.80573 14.6203 9.68153L12.6094 7.65287V14.7118C12.6094 14.8912 12.5518 15.0395 12.4367 15.1568C12.3216 15.2742 12.176 15.3328 12 15.3328ZM6.71875 18.5C6.39375 18.5 6.10937 18.3758 5.86562 18.1274C5.62187 17.879 5.5 17.5892 5.5 17.258V14.9188C5.5 14.7394 5.55755 14.591 5.67266 14.4737C5.78776 14.3564 5.93333 14.2978 6.10938 14.2978C6.28542 14.2978 6.43099 14.3564 6.54609 14.4737C6.6612 14.591 6.71875 14.7394 6.71875 14.9188V17.258H17.2812V14.9188C17.2812 14.7394 17.3388 14.591 17.4539 14.4737C17.569 14.3564 17.7146 14.2978 17.8906 14.2978C18.0667 14.2978 18.2122 14.3564 18.3273 14.4737C18.4424 14.591 18.5 14.7394 18.5 14.9188V17.258C18.5 17.5892 18.3781 17.879 18.1344 18.1274C17.8906 18.3758 17.6062 18.5 17.2812 18.5H6.71875Z" fill="white"/>
</svg>
