<svg width="33" height="33" viewBox="0 0 33 33" fill="none" xmlns="http://www.w3.org/2000/svg">
<path d="M20.2583 14.8439C20.2583 15.4372 20.0824 16.0172 19.7527 16.5106C19.4231 17.0039 18.9545 17.3884 18.4064 17.6155C17.8582 17.8426 17.255 17.902 16.673 17.7862C16.0911 17.6705 15.5565 17.3848 15.137 16.9652C14.7174 16.5456 14.4317 16.0111 14.3159 15.4291C14.2002 14.8472 14.2596 14.244 14.4867 13.6958C14.7137 13.1476 15.0982 12.6791 15.5916 12.3495C16.0849 12.0198 16.665 11.8439 17.2583 11.8439C18.054 11.8439 18.817 12.1599 19.3796 12.7226C19.9422 13.2852 20.2583 14.0482 20.2583 14.8439ZM28.2583 5.84387V27.8439C28.2583 28.3743 28.0476 28.883 27.6725 29.2581C27.2974 29.6332 26.7887 29.8439 26.2583 29.8439H8.2583C7.72787 29.8439 7.21916 29.6332 6.84409 29.2581C6.46901 28.883 6.2583 28.3743 6.2583 27.8439V24.8439H4.2583C3.99308 24.8439 3.73873 24.7385 3.55119 24.551C3.36366 24.3634 3.2583 24.1091 3.2583 23.8439C3.2583 23.5787 3.36366 23.3243 3.55119 23.1368C3.73873 22.9492 3.99308 22.8439 4.2583 22.8439H6.2583V17.8439H4.2583C3.99308 17.8439 3.73873 17.7385 3.55119 17.551C3.36366 17.3634 3.2583 17.1091 3.2583 16.8439C3.2583 16.5787 3.36366 16.3243 3.55119 16.1368C3.73873 15.9492 3.99308 15.8439 4.2583 15.8439H6.2583V10.8439H4.2583C3.99308 10.8439 3.73873 10.7385 3.55119 10.551C3.36366 10.3634 3.2583 10.1091 3.2583 9.84387C3.2583 9.57866 3.36366 9.3243 3.55119 9.13677C3.73873 8.94923 3.99308 8.84387 4.2583 8.84387H6.2583V5.84387C6.2583 5.31344 6.46901 4.80473 6.84409 4.42966C7.21916 4.05459 7.72787 3.84387 8.2583 3.84387H26.2583C26.7887 3.84387 27.2974 4.05459 27.6725 4.42966C28.0476 4.80473 28.2583 5.31344 28.2583 5.84387ZM24.0583 21.2439C23.1728 20.0567 21.992 19.122 20.6333 18.5326C21.3779 17.8528 21.8996 16.9637 22.1299 15.9821C22.3602 15.0005 22.2883 13.9722 21.9237 13.0321C21.5592 12.0921 20.9189 11.2842 20.087 10.7146C19.255 10.1449 18.2703 9.84011 17.2621 9.84011C16.2538 9.84011 15.2691 10.1449 14.4371 10.7146C13.6052 11.2842 12.9649 12.0921 12.6004 13.0321C12.2358 13.9722 12.1639 15.0005 12.3942 15.9821C12.6245 16.9637 13.1462 17.8528 13.8908 18.5326C12.5293 19.1209 11.3459 20.0557 10.4583 21.2439C10.3795 21.3489 10.3222 21.4685 10.2896 21.5957C10.257 21.7229 10.2498 21.8553 10.2684 21.9853C10.2869 22.1153 10.3309 22.2404 10.3978 22.3534C10.4647 22.4664 10.5532 22.5651 10.6583 22.6439C10.7634 22.7227 10.8829 22.78 11.0101 22.8126C11.1373 22.8452 11.2697 22.8524 11.3997 22.8338C11.5297 22.8153 11.6548 22.7713 11.7678 22.7043C11.8808 22.6374 11.9795 22.5489 12.0583 22.4439C12.6638 21.6366 13.4489 20.9814 14.3514 20.5301C15.254 20.0788 16.2492 19.8439 17.2583 19.8439C18.2674 19.8439 19.2626 20.0788 20.1652 20.5301C21.0678 20.9814 21.8528 21.6366 22.4583 22.4439C22.6174 22.656 22.8543 22.7963 23.1169 22.8338C23.3794 22.8713 23.6461 22.803 23.8583 22.6439C24.0705 22.4847 24.2107 22.2478 24.2483 21.9853C24.2858 21.7227 24.2174 21.456 24.0583 21.2439Z" fill="#F3802D"/>
</svg>
