<svg width="25" height="25" viewBox="0 0 25 25" fill="none" xmlns="http://www.w3.org/2000/svg">
<circle cx="12.5" cy="12.5" r="12.5" fill="white"/>
<path d="M12.5 2C6.704 2 2 6.704 2 12.5C2 18.296 6.704 23 12.5 23C18.296 23 23 18.296 23 12.5C23 6.704 18.296 2 12.5 2ZM12.5 5.15C14.243 5.15 15.65 6.557 15.65 8.3C15.65 10.043 14.243 11.45 12.5 11.45C10.757 11.45 9.35 10.043 9.35 8.3C9.35 6.557 10.757 5.15 12.5 5.15ZM12.5 20.06C9.875 20.06 7.5545 18.716 6.2 16.679C6.2315 14.5895 10.4 13.445 12.5 13.445C14.5895 13.445 18.7685 14.5895 18.8 16.679C17.4455 18.716 15.125 20.06 12.5 20.06Z" fill="#393E4B"/>
</svg>
