<svg width="45" height="45" viewBox="0 0 45 45" fill="none" xmlns="http://www.w3.org/2000/svg">
<path d="M31.4971 20.7803C31.4971 22.6212 30.9513 24.4208 29.9285 25.9514C28.9058 27.4821 27.4521 28.6751 25.7514 29.3795C24.0506 30.084 22.1791 30.2683 20.3736 29.9092C18.5681 29.5501 16.9096 28.6636 15.6079 27.3619C14.3062 26.0602 13.4198 24.4017 13.0606 22.5962C12.7015 20.7907 12.8858 18.9192 13.5903 17.2184C14.2948 15.5177 15.4877 14.064 17.0184 13.0413C18.549 12.0185 20.3486 11.4727 22.1895 11.4727C24.6572 11.4755 27.023 12.457 28.7679 14.2019C30.5128 15.9468 31.4943 18.3127 31.4971 20.7803ZM44.1895 22.4727C44.1895 26.8238 42.8992 31.0773 40.4818 34.6952C38.0644 38.3131 34.6285 41.1329 30.6085 42.798C26.5885 44.4631 22.1651 44.8988 17.8975 44.0499C13.6299 43.201 9.70987 41.1058 6.63311 38.029C3.55636 34.9522 1.46106 31.0322 0.612187 26.7646C-0.236688 22.4971 0.198985 18.0736 1.86411 14.0536C3.52924 10.0336 6.34903 6.59771 9.96692 4.18032C13.5848 1.76293 17.8383 0.472656 22.1895 0.472656C28.0223 0.478816 33.6145 2.79864 37.739 6.92311C41.8635 11.0476 44.1833 16.6398 44.1895 22.4727ZM40.8048 22.4727C40.8021 19.967 40.2941 17.4877 39.3113 15.183C38.3284 12.8782 36.8908 10.7953 35.0844 9.05886C33.2781 7.32243 31.1401 5.96812 28.7984 5.07692C26.4566 4.18572 23.9592 3.77594 21.4554 3.87208C11.492 4.25708 3.54658 12.5557 3.57408 22.5255C3.58363 27.0641 5.25755 31.4416 8.27869 34.8286C9.50905 33.0441 11.0719 31.5135 12.8818 30.3207C13.0361 30.2188 13.2195 30.1703 13.404 30.1825C13.5886 30.1947 13.764 30.267 13.9035 30.3884C16.2033 32.3776 19.1424 33.4724 22.1831 33.4724C25.2238 33.4724 28.1629 32.3776 30.4627 30.3884C30.6022 30.267 30.7777 30.1947 30.9622 30.1825C31.1467 30.1703 31.3302 30.2188 31.4845 30.3207C33.2966 31.5129 34.8617 33.0435 36.0939 34.8286C39.13 31.4293 40.8071 27.0304 40.8048 22.4727Z" fill="white"/>
</svg>
