<svg width="27" height="26" viewBox="0 0 27 26" fill="none" xmlns="http://www.w3.org/2000/svg">
<path d="M13.4997 0.4375C6.36967 0.4375 0.583008 6.0375 0.583008 12.9375C0.583008 19.8375 6.36967 25.4375 13.4997 25.4375C20.6297 25.4375 26.4163 19.8375 26.4163 12.9375C26.4163 6.0375 20.6297 0.4375 13.4997 0.4375ZM13.4997 4.1875C15.6438 4.1875 17.3747 5.8625 17.3747 7.9375C17.3747 10.0125 15.6438 11.6875 13.4997 11.6875C11.3555 11.6875 9.62467 10.0125 9.62467 7.9375C9.62467 5.8625 11.3555 4.1875 13.4997 4.1875ZM13.4997 21.9375C10.2705 21.9375 7.41592 20.3375 5.74967 17.9125C5.78842 15.425 10.9163 14.0625 13.4997 14.0625C16.0701 14.0625 21.2109 15.425 21.2497 17.9125C19.5834 20.3375 16.7288 21.9375 13.4997 21.9375Z" fill="white"/>
</svg>
