<svg width="17" height="16" viewBox="0 0 17 16" fill="none" xmlns="http://www.w3.org/2000/svg">
<path d="M8.01337 4.00308C8.6833 4.00308 9.33818 4.20174 9.89521 4.57393C10.4522 4.94612 10.8864 5.47514 11.1428 6.09407C11.3991 6.713 11.4662 7.39406 11.3355 8.05111C11.2048 8.70817 10.8822 9.31171 10.4085 9.78543C9.93479 10.2591 9.33124 10.5817 8.67419 10.7124C8.01713 10.8431 7.33607 10.7761 6.71714 10.5197C6.09821 10.2633 5.5692 9.82916 5.197 9.27214C4.82481 8.71511 4.62615 8.06023 4.62615 7.3903C4.62615 6.49195 4.98302 5.6304 5.61825 4.99518C6.25347 4.35995 7.11503 4.00308 8.01337 4.00308ZM11.7085 3.0793H12.9402V4.31101C12.9402 4.47435 13.0051 4.63099 13.1206 4.74649C13.2361 4.86199 13.3928 4.92687 13.5561 4.92687C13.7194 4.92687 13.8761 4.86199 13.9916 4.74649C14.1071 4.63099 14.1719 4.47435 14.1719 4.31101V3.0793H15.4037C15.567 3.0793 15.7236 3.01441 15.8391 2.89892C15.9546 2.78342 16.0195 2.62678 16.0195 2.46344C16.0195 2.3001 15.9546 2.14346 15.8391 2.02796C15.7236 1.91247 15.567 1.84758 15.4037 1.84758H14.1719V0.615866C14.1719 0.452531 14.1071 0.295885 13.9916 0.180389C13.8761 0.0648935 13.7194 8.75107e-06 13.5561 8.75107e-06C13.3928 8.75107e-06 13.2361 0.0648935 13.1206 0.180389C13.0051 0.295885 12.9402 0.452531 12.9402 0.615866V1.84758H11.7085C11.5452 1.84758 11.3885 1.91247 11.273 2.02796C11.1575 2.14346 11.0927 2.3001 11.0927 2.46344C11.0927 2.62678 11.1575 2.78342 11.273 2.89892C11.3885 3.01441 11.5452 3.0793 11.7085 3.0793ZM15.1997 6.16705C15.0386 6.19401 14.8948 6.28385 14.7999 6.41681C14.7051 6.54978 14.6669 6.71497 14.6939 6.87606C14.7564 7.24951 14.7878 7.62751 14.7878 8.00616C14.7893 9.6645 14.1798 11.2653 13.0757 12.5027C12.6278 11.8535 12.059 11.2965 11.4006 10.8622C11.3444 10.8249 11.2774 10.8071 11.2101 10.8116C11.1428 10.816 11.0788 10.8425 11.028 10.8868C10.1913 11.6108 9.12178 12.0093 8.0153 12.0093C6.90881 12.0093 5.83934 11.6108 5.0026 10.8868C4.95147 10.8416 4.88674 10.8146 4.81859 10.8101C4.75044 10.8057 4.68275 10.824 4.62615 10.8622C3.9667 11.296 3.39714 11.8531 2.94871 12.5027C2.08232 11.5264 1.51642 10.3206 1.3191 9.03025C1.12178 7.73995 1.30142 6.42011 1.83644 5.22949C2.37145 4.03886 3.23904 3.02816 4.33486 2.31893C5.43068 1.60971 6.70807 1.23217 8.01337 1.23172C8.39202 1.23166 8.77002 1.26308 9.14347 1.32564C9.30383 1.35095 9.4677 1.3119 9.59943 1.21701C9.73115 1.12212 9.82008 0.979053 9.84687 0.818932C9.87366 0.65881 9.83614 0.494588 9.74247 0.361987C9.64881 0.229387 9.50657 0.139135 9.3467 0.110863C7.67422 -0.170495 5.95559 0.0869483 4.43896 0.846023C2.92233 1.6051 1.68618 2.82653 0.90898 4.33395C0.131783 5.84138 -0.146238 7.55679 0.115056 9.23253C0.376351 10.9083 1.16344 12.4576 2.36268 13.6568C3.56193 14.8561 5.11126 15.6432 6.787 15.9045C8.46274 16.1658 10.1782 15.8877 11.6856 15.1106C13.193 14.3334 14.4144 13.0972 15.1735 11.5806C15.9326 10.0639 16.19 8.34531 15.9087 6.67283C15.8817 6.51174 15.7919 6.36796 15.6589 6.27311C15.5259 6.17826 15.3607 6.14011 15.1997 6.16705Z" fill="white"/>
</svg>
