<svg width="17" height="17" viewBox="0 0 17 17" fill="none" xmlns="http://www.w3.org/2000/svg">
<path d="M0.141768 8.8694C0.169814 10.4761 0.67368 12.0385 1.58965 13.3588C2.50562 14.6792 3.79255 15.6983 5.28771 16.2872C6.78286 16.8762 8.41909 17.0086 9.98947 16.6676C11.5599 16.3266 12.9939 15.5277 14.1102 14.3717C15.2265 13.2157 15.9749 11.7547 16.2609 10.1734C16.5468 8.59206 16.3574 6.96145 15.7166 5.48776C15.0759 4.01407 14.0125 2.76349 12.6609 1.89416C11.3094 1.02482 9.73046 0.57579 8.12373 0.603835C5.96991 0.643706 3.91987 1.53638 2.42345 3.08597C0.927027 4.63556 0.106447 6.7155 0.141768 8.8694ZM8.6454 5.15324L11.1886 7.60922C11.3079 7.72443 11.3766 7.88232 11.3795 8.04815C11.3824 8.21397 11.3193 8.37416 11.2041 8.49347C11.0889 8.61277 10.931 8.68142 10.7652 8.68431C10.5993 8.68721 10.4391 8.62411 10.3198 8.5089L8.86223 7.10053L8.94497 11.8412C8.94787 12.0069 8.8848 12.167 8.76966 12.2863C8.65451 12.4055 8.49671 12.4741 8.33098 12.477C8.16524 12.4799 8.00515 12.4169 7.88591 12.3017C7.76667 12.1866 7.69806 12.0288 7.69516 11.863L7.61242 7.12234L6.20484 8.58073C6.08963 8.70003 5.93174 8.76868 5.76592 8.77158C5.60009 8.77447 5.4399 8.71137 5.3206 8.59616C5.2013 8.48095 5.13265 8.32306 5.12975 8.15724C5.12686 7.99141 5.18996 7.83122 5.30517 7.71192L7.76115 5.16867C7.81818 5.10956 7.88629 5.06226 7.96161 5.02949C8.03692 4.99672 8.11795 4.97911 8.20008 4.97768C8.2822 4.97624 8.3638 4.99101 8.44021 5.02113C8.51662 5.05126 8.58634 5.09615 8.6454 5.15324Z" fill="#FCDE42"/>
</svg>
