<svg width="17" height="17" viewBox="0 0 17 17" fill="none" xmlns="http://www.w3.org/2000/svg">
<path d="M0.47441 8.68727C0.502456 10.294 1.00632 11.8563 1.92229 13.1767C2.83826 14.4971 4.12519 15.5162 5.62035 16.1051C7.11551 16.6941 8.75173 16.8264 10.3221 16.4855C11.8925 16.1445 13.3265 15.3455 14.4428 14.1896C15.5591 13.0336 16.3076 11.5726 16.5935 9.99126C16.8795 8.40993 16.6901 6.77932 16.0493 5.30563C15.4085 3.83194 14.3451 2.58136 12.9936 1.71203C11.6421 0.842695 10.0631 0.393661 8.45637 0.421706C6.30255 0.461576 4.25252 1.35425 2.75609 2.90384C1.25967 4.45343 0.439089 6.53337 0.47441 8.68727ZM8.97804 4.97111L11.5213 7.4271C11.6406 7.54231 11.7092 7.70019 11.7121 7.86602C11.715 8.03185 11.6519 8.19203 11.5367 8.31134C11.4215 8.43064 11.2636 8.49929 11.0978 8.50219C10.932 8.50508 10.7718 8.44198 10.6525 8.32677L9.19487 6.9184L9.27762 11.6591C9.28051 11.8248 9.21745 11.9849 9.1023 12.1042C8.98715 12.2234 8.82935 12.292 8.66362 12.2949C8.49788 12.2978 8.33779 12.2347 8.21855 12.1196C8.09931 12.0044 8.0307 11.8466 8.02781 11.6809L7.94506 6.94022L6.53748 8.3986C6.42227 8.5179 6.26439 8.58655 6.09856 8.58945C5.93273 8.59234 5.77255 8.52924 5.65324 8.41403C5.53394 8.29882 5.46529 8.14094 5.46239 7.97511C5.4595 7.80928 5.5226 7.6491 5.63781 7.52979L8.0938 4.98654C8.15082 4.92743 8.21893 4.88013 8.29425 4.84736C8.36956 4.81459 8.45059 4.79698 8.53272 4.79555C8.61484 4.79412 8.69644 4.80888 8.77285 4.83901C8.84926 4.86913 8.91899 4.91402 8.97804 4.97111Z" fill="white"/>
</svg>
