<svg width="17" height="17" viewBox="0 0 17 17" fill="none" xmlns="http://www.w3.org/2000/svg">
<path d="M8.23873 0.140648C6.63176 0.145955 5.06246 0.627663 3.72927 1.52486C2.39607 2.42205 1.35887 3.69443 0.748813 5.18111C0.138757 6.66778 -0.0167487 8.30197 0.30196 9.87702C0.620668 11.4521 1.39928 12.8972 2.53932 14.0298C3.67937 15.1623 5.12966 15.9314 6.70678 16.2397C8.2839 16.548 9.91703 16.3817 11.3996 15.7618C12.8822 15.142 14.1478 14.0964 15.0361 12.7573C15.9245 11.4182 16.3958 9.84573 16.3905 8.23877C16.3811 6.0846 15.5176 4.02214 13.9893 2.50394C12.461 0.985738 10.3929 0.135808 8.23873 0.140648ZM11.8342 8.69601L9.34246 11.2043C9.22557 11.3219 9.06673 11.3883 8.90088 11.3889C8.73503 11.3894 8.57575 11.3241 8.45809 11.2072C8.34043 11.0903 8.27402 10.9314 8.27347 10.7656C8.27292 10.5997 8.33828 10.4405 8.45517 10.3228L9.88402 8.88526L5.14264 8.90092C4.97688 8.90147 4.8177 8.83615 4.7001 8.71932C4.5825 8.6025 4.51613 8.44375 4.51558 8.27799C4.51503 8.11223 4.58036 7.95304 4.69718 7.83544C4.814 7.71785 4.97275 7.65147 5.13851 7.65093L9.8799 7.63527L8.44158 6.2072C8.32391 6.09031 8.2575 5.93147 8.25696 5.76562C8.25641 5.59977 8.32177 5.44049 8.43866 5.32283C8.55554 5.20517 8.71439 5.13876 8.88024 5.13821C9.04609 5.13766 9.20536 5.20302 9.32303 5.31991L11.8313 7.81164C11.8896 7.86949 11.9359 7.93827 11.9676 8.01404C11.9993 8.08981 12.0158 8.17108 12.016 8.25322C12.0163 8.33535 12.0004 8.41673 11.9692 8.49271C11.938 8.56869 11.8921 8.63777 11.8342 8.69601Z" fill="#191C24"/>
</svg>
