<svg width="17" height="17" viewBox="0 0 17 17" fill="none" xmlns="http://www.w3.org/2000/svg">
<path d="M8.125 0.23877C6.51803 0.23877 4.94714 0.715293 3.611 1.60808C2.27485 2.50087 1.23344 3.76982 0.618482 5.25447C0.00352043 6.73912 -0.157382 8.37278 0.156123 9.94888C0.469628 11.525 1.24346 12.9727 2.37976 14.109C3.51606 15.2453 4.9638 16.0191 6.5399 16.3326C8.11599 16.6462 9.74966 16.4853 11.2343 15.8703C12.719 15.2553 13.9879 14.2139 14.8807 12.8778C15.7735 11.5416 16.25 9.97074 16.25 8.36377C16.2477 6.20958 15.391 4.14428 13.8677 2.62104C12.3445 1.0978 10.2792 0.241044 8.125 0.23877ZM11.6922 8.80596L9.19219 11.306C9.07492 11.4232 8.91586 11.4891 8.75 11.4891C8.58415 11.4891 8.42509 11.4232 8.30782 11.306C8.19054 11.1887 8.12466 11.0296 8.12466 10.8638C8.12466 10.6979 8.19054 10.5389 8.30782 10.4216L9.74141 8.98877H5C4.83424 8.98877 4.67527 8.92292 4.55806 8.80571C4.44085 8.6885 4.375 8.52953 4.375 8.36377C4.375 8.19801 4.44085 8.03904 4.55806 7.92183C4.67527 7.80462 4.83424 7.73877 5 7.73877H9.74141L8.30782 6.30596C8.19054 6.18868 8.12466 6.02962 8.12466 5.86377C8.12466 5.69792 8.19054 5.53886 8.30782 5.42158C8.42509 5.30431 8.58415 5.23842 8.75 5.23842C8.91586 5.23842 9.07492 5.30431 9.19219 5.42158L11.6922 7.92158C11.7503 7.97963 11.7964 8.04856 11.8279 8.12443C11.8593 8.20031 11.8755 8.28164 11.8755 8.36377C11.8755 8.4459 11.8593 8.52723 11.8279 8.60311C11.7964 8.67898 11.7503 8.74791 11.6922 8.80596Z" fill="#00D25B"/>
</svg>
