<svg width="24" height="24" viewBox="0 0 24 24" fill="none" xmlns="http://www.w3.org/2000/svg">
<path d="M7.896 16C7.824 16 7.76 15.976 7.704 15.928C7.656 15.872 7.632 15.812 7.632 15.748C7.632 15.724 7.636 15.7 7.644 15.676C7.652 15.652 7.664 15.628 7.68 15.604L10.296 11.716L7.872 7.996C7.848 7.948 7.836 7.9 7.836 7.852C7.836 7.788 7.86 7.732 7.908 7.684C7.956 7.628 8.016 7.6 8.088 7.6H9.828C9.948 7.6 10.04 7.632 10.104 7.696C10.168 7.752 10.212 7.804 10.236 7.852L11.676 10.036L13.128 7.852C13.16 7.804 13.208 7.752 13.272 7.696C13.336 7.632 13.428 7.6 13.548 7.6H15.192C15.264 7.6 15.324 7.628 15.372 7.684C15.428 7.732 15.456 7.788 15.456 7.852C15.456 7.908 15.44 7.956 15.408 7.996L12.972 11.704L15.612 15.604C15.628 15.628 15.636 15.652 15.636 15.676C15.644 15.7 15.648 15.724 15.648 15.748C15.648 15.812 15.624 15.872 15.576 15.928C15.528 15.976 15.468 16 15.396 16H13.608C13.488 16 13.392 15.972 13.32 15.916C13.256 15.852 13.212 15.8 13.188 15.76L11.592 13.456L10.032 15.76C10.008 15.8 9.964 15.852 9.9 15.916C9.836 15.972 9.744 16 9.624 16H7.896Z" fill="white"/>
</svg>
