<svg width="24" height="44" viewBox="0 0 24 44" fill="none" xmlns="http://www.w3.org/2000/svg">
<path d="M17.354 16.3541C17.3076 16.4006 17.2524 16.4375 17.1917 16.4627C17.131 16.4878 17.066 16.5008 17.0003 16.5008C16.9346 16.5008 16.8695 16.4878 16.8088 16.4627C16.7481 16.4375 16.693 16.4006 16.6465 16.3541L12.0003 11.7073L7.35403 16.3541C7.26021 16.448 7.13296 16.5007 7.00028 16.5007C6.8676 16.5007 6.74035 16.448 6.64653 16.3541C6.55271 16.2603 6.5 16.1331 6.5 16.0004C6.5 15.8677 6.55271 15.7405 6.64653 15.6466L11.6465 10.6466C11.693 10.6002 11.7481 10.5633 11.8088 10.5381C11.8695 10.513 11.9346 10.5 12.0003 10.5C12.066 10.5 12.131 10.513 12.1917 10.5381C12.2524 10.5633 12.3076 10.6002 12.354 10.6466L17.354 15.6466C17.4005 15.6931 17.4374 15.7482 17.4626 15.8089C17.4877 15.8696 17.5007 15.9347 17.5007 16.0004C17.5007 16.0661 17.4877 16.1312 17.4626 16.1919C17.4374 16.2526 17.4005 16.3077 17.354 16.3541Z" fill="white"/>
<path d="M17.354 28.354L12.354 33.354C12.3076 33.4005 12.2524 33.4374 12.1917 33.4626C12.131 33.4877 12.066 33.5007 12.0003 33.5007C11.9346 33.5007 11.8695 33.4877 11.8088 33.4626C11.7481 33.4374 11.693 33.4005 11.6465 33.354L6.64653 28.354C6.55271 28.2602 6.5 28.133 6.5 28.0003C6.5 27.8676 6.55271 27.7403 6.64653 27.6465C6.74035 27.5527 6.8676 27.5 7.00028 27.5C7.13296 27.5 7.26021 27.5527 7.35403 27.6465L12.0003 32.2934L16.6465 27.6465C16.693 27.6001 16.7481 27.5632 16.8088 27.5381C16.8695 27.5129 16.9346 27.5 17.0003 27.5C17.066 27.5 17.131 27.5129 17.1917 27.5381C17.2524 27.5632 17.3076 27.6001 17.354 27.6465C17.4005 27.693 17.4373 27.7481 17.4625 27.8088C17.4876 27.8695 17.5006 27.9346 17.5006 28.0003C17.5006 28.066 17.4876 28.131 17.4625 28.1917C17.4373 28.2524 17.4005 28.3076 17.354 28.354Z" fill="white"/>
</svg>
