<svg width="49" height="49" viewBox="0 0 21 22" fill="none" xmlns="http://www.w3.org/2000/svg">
<ellipse cx="10.5" cy="10.52" rx="10.5" ry="10.52" fill="#F7D62B"/>
<path d="M7.51153 13.5143H15.4661V5.54457H14.6138V9.1167C14.6138 9.20209 14.5783 9.26613 14.5073 9.30883C14.4362 9.35152 14.3629 9.34915 14.2871 9.30171L13.2928 8.68975L12.2985 9.30171C12.2227 9.34915 12.1493 9.35152 12.0783 9.30883C12.0073 9.26613 11.9718 9.20209 11.9718 9.1167V5.54457H7.51153V13.5143ZM7.51153 14.3682C7.28426 14.3682 7.08539 14.2828 6.91494 14.112C6.74448 13.9412 6.65926 13.742 6.65926 13.5143V5.54457C6.65926 5.31686 6.74448 5.11762 6.91494 4.94684C7.08539 4.77606 7.28426 4.69067 7.51153 4.69067H15.4661C15.6933 4.69067 15.8922 4.77606 16.0627 4.94684C16.2331 5.11762 16.3183 5.31686 16.3183 5.54457V13.5143C16.3183 13.742 16.2331 13.9412 16.0627 14.112C15.8922 14.2828 15.6933 14.3682 15.4661 14.3682H7.51153ZM5.80698 16.076C5.57971 16.076 5.38085 15.9906 5.21039 15.8198C5.03994 15.649 4.95471 15.4498 4.95471 15.2221V6.82541C4.95471 6.70207 4.99496 6.60008 5.07545 6.51943C5.15594 6.43879 5.25774 6.39847 5.38085 6.39847C5.50395 6.39847 5.60575 6.43879 5.68625 6.51943C5.76674 6.60008 5.80698 6.70207 5.80698 6.82541V15.2221H14.1877C14.3108 15.2221 14.4126 15.2624 14.4931 15.343C14.5736 15.4237 14.6138 15.5257 14.6138 15.649C14.6138 15.7723 14.5736 15.8743 14.4931 15.955C14.4126 16.0356 14.3108 16.076 14.1877 16.076H5.80698ZM11.9718 5.54457H14.6138H11.9718ZM7.51153 5.54457H15.4661H7.51153Z" fill="white"/>
</svg>
