<svg width="48" height="48" viewBox="0 0 48 48" fill="none" xmlns="http://www.w3.org/2000/svg">
<ellipse cx="24.002" cy="24" rx="23.998" ry="24" fill="#F7D62B"/>
<path d="M17.1718 30.8306H35.3521V12.6487H33.4042V20.7981C33.4042 20.9929 33.3231 21.139 33.1608 21.2364C32.9984 21.3338 32.8307 21.3284 32.6576 21.2202L30.385 19.8241L28.1125 21.2202C27.9393 21.3284 27.7716 21.3338 27.6093 21.2364C27.4469 21.139 27.3658 20.9929 27.3658 20.7981V12.6487H17.1718V30.8306ZM17.1718 32.7786C16.6524 32.7786 16.1979 32.5838 15.8083 32.1942C15.4187 31.8046 15.2239 31.35 15.2239 30.8306V12.6487C15.2239 12.1293 15.4187 11.6747 15.8083 11.2851C16.1979 10.8955 16.6524 10.7007 17.1718 10.7007H35.3521C35.8716 10.7007 36.3261 10.8955 36.7157 11.2851C37.1052 11.6747 37.3 12.1293 37.3 12.6487V30.8306C37.3 31.35 37.1052 31.8046 36.7157 32.1942C36.3261 32.5838 35.8716 32.7786 35.3521 32.7786H17.1718ZM13.276 36.6747C12.7566 36.6747 12.3021 36.4799 11.9125 36.0903C11.5229 35.7007 11.3281 35.2461 11.3281 34.7267V15.5708C11.3281 15.2894 11.4201 15.0567 11.6041 14.8728C11.788 14.6888 12.0207 14.5968 12.3021 14.5968C12.5834 14.5968 12.8161 14.6888 13.0001 14.8728C13.184 15.0567 13.276 15.2894 13.276 15.5708V34.7267H32.4303C32.7117 34.7267 32.9443 34.8186 33.1283 35.0026C33.3123 35.1866 33.4042 35.4193 33.4042 35.7007C33.4042 35.9821 33.3123 36.2148 33.1283 36.3987C32.9443 36.5827 32.7117 36.6747 32.4303 36.6747H13.276ZM27.3658 12.6487H33.4042H27.3658ZM17.1718 12.6487H35.3521H17.1718Z" fill="white"/>
</svg>
