<svg width="33" height="33" viewBox="0 0 33 33" fill="none" xmlns="http://www.w3.org/2000/svg">
<path d="M29.6651 10.1083L13.6651 26.1083C13.5722 26.2013 13.4619 26.2751 13.3405 26.3254C13.2191 26.3757 13.089 26.4016 12.9576 26.4016C12.8262 26.4016 12.696 26.3757 12.5746 26.3254C12.4532 26.2751 12.343 26.2013 12.2501 26.1083L5.25009 19.1083C5.06245 18.9207 4.95703 18.6662 4.95703 18.4008C4.95703 18.1355 5.06245 17.881 5.25009 17.6933C5.43773 17.5057 5.69222 17.4003 5.95759 17.4003C6.22295 17.4003 6.47745 17.5057 6.66509 17.6933L12.9576 23.9871L28.2501 8.69332C28.4377 8.50568 28.6922 8.40027 28.9576 8.40027C29.223 8.40027 29.4774 8.50568 29.6651 8.69332C29.8527 8.88096 29.9581 9.13546 29.9581 9.40082C29.9581 9.66619 29.8527 9.92068 29.6651 10.1083Z" fill="#191C24"/>
</svg>
