<svg width="24" height="27" viewBox="0 0 24 27" fill="none" xmlns="http://www.w3.org/2000/svg">
<path d="M12 4.44182C9.62663 4.44182 7.30655 5.09534 5.33316 6.31973C3.35977 7.54413 1.8217 9.2844 0.913451 11.3205C0.00519943 13.3566 -0.232441 15.597 0.230582 17.7585C0.693605 19.92 1.83649 21.9055 3.51472 23.4639C5.19295 25.0222 7.33115 26.0835 9.65892 26.5134C11.9867 26.9434 14.3995 26.7227 16.5922 25.8793C18.7849 25.036 20.6591 23.6078 21.9776 21.7753C23.2962 19.9429 24 17.7885 24 15.5847C23.9964 12.6304 22.7309 9.79818 20.4813 7.70922C18.2316 5.62026 15.1815 4.4452 12 4.44182ZM17.7075 11.5988L12.7075 16.2416C12.6146 16.3279 12.5043 16.3964 12.3829 16.443C12.2615 16.4897 12.1314 16.5138 12 16.5138C11.8686 16.5138 11.7385 16.4897 11.6171 16.443C11.4957 16.3964 11.3854 16.3279 11.2925 16.2416C11.1996 16.1554 11.1259 16.0529 11.0756 15.9402C11.0253 15.8275 10.9994 15.7067 10.9994 15.5847C10.9994 15.4627 11.0253 15.3419 11.0756 15.2291C11.1259 15.1164 11.1996 15.014 11.2925 14.9277L16.2925 10.2849C16.3854 10.1986 16.4957 10.1301 16.6171 10.0835C16.7385 10.0368 16.8686 10.0127 17 10.0127C17.1314 10.0127 17.2615 10.0368 17.3829 10.0835C17.5043 10.1301 17.6146 10.1986 17.7075 10.2849C17.8004 10.3711 17.8741 10.4736 17.9244 10.5863C17.9747 10.699 18.0006 10.8198 18.0006 10.9418C18.0006 11.0638 17.9747 11.1846 17.9244 11.2974C17.8741 11.4101 17.8004 11.5125 17.7075 11.5988ZM8.00001 1.65611C8.00001 1.40984 8.10536 1.17365 8.2929 0.999511C8.48044 0.82537 8.73479 0.727539 9.00001 0.727539H15C15.2652 0.727539 15.5196 0.82537 15.7071 0.999511C15.8946 1.17365 16 1.40984 16 1.65611C16 1.90238 15.8946 2.13857 15.7071 2.31271C15.5196 2.48685 15.2652 2.58468 15 2.58468H9.00001C8.73479 2.58468 8.48044 2.48685 8.2929 2.31271C8.10536 2.13857 8.00001 1.90238 8.00001 1.65611Z" fill="black"/>
</svg>
