<svg width="14" height="14" viewBox="0 0 14 14" fill="none" xmlns="http://www.w3.org/2000/svg">
<path d="M12.5 7.13503C12.5025 7.04503 12.5025 6.95503 12.5 6.86503L13.4325 5.70003C13.4814 5.63886 13.5153 5.56706 13.5313 5.49042C13.5474 5.41378 13.5452 5.33443 13.525 5.25878C13.3719 4.68425 13.1432 4.13256 12.845 3.61815C12.806 3.55085 12.7517 3.4936 12.6866 3.45096C12.6215 3.40832 12.5473 3.38146 12.47 3.37253L10.9875 3.20753C10.9259 3.14253 10.8634 3.08003 10.8 3.02003L10.625 1.53378C10.616 1.45641 10.5891 1.38222 10.5463 1.31711C10.5036 1.252 10.4462 1.19779 10.3788 1.15878C9.86441 0.860809 9.3127 0.632559 8.73815 0.480029C8.6625 0.459816 8.58315 0.457656 8.50651 0.473723C8.42987 0.48979 8.35807 0.523634 8.2969 0.572529L7.13503 1.50003C7.04503 1.50003 6.95503 1.50003 6.86503 1.50003L5.70003 0.569404C5.63886 0.520509 5.56706 0.486665 5.49042 0.470598C5.41378 0.454531 5.33443 0.456691 5.25878 0.476903C4.68425 0.630045 4.13256 0.858705 3.61815 1.1569C3.55085 1.19598 3.4936 1.25023 3.45096 1.31533C3.40832 1.38044 3.38146 1.45459 3.37253 1.5319L3.20753 3.0169C3.14253 3.07899 3.08003 3.14149 3.02003 3.2044L1.53378 3.37503C1.45641 3.38403 1.38222 3.41098 1.31711 3.45373C1.252 3.49649 1.19779 3.55386 1.15878 3.62128C0.86087 4.13576 0.632425 4.68743 0.479404 5.2619C0.459277 5.33761 0.457218 5.41698 0.473394 5.49362C0.489569 5.57027 0.523527 5.64204 0.572529 5.70315L1.50003 6.86503C1.50003 6.95503 1.50003 7.04503 1.50003 7.13503L0.569404 8.30003C0.520509 8.3612 0.486665 8.43299 0.470598 8.50964C0.454531 8.58628 0.456691 8.66562 0.476903 8.74128C0.630045 9.31581 0.858705 9.86749 1.1569 10.3819C1.19598 10.4492 1.25023 10.5065 1.31533 10.5491C1.38044 10.5917 1.45459 10.6186 1.5319 10.6275L3.0144 10.7925C3.07649 10.8575 3.13899 10.92 3.2019 10.98L3.37503 12.4663C3.38403 12.5436 3.41098 12.6178 3.45373 12.6829C3.49649 12.7481 3.55386 12.8023 3.62128 12.8413C4.13576 13.1392 4.68743 13.3676 5.2619 13.5207C5.33761 13.5408 5.41698 13.5428 5.49362 13.5267C5.57027 13.5105 5.64204 13.4765 5.70315 13.4275L6.86503 12.5C6.95503 12.5025 7.04503 12.5025 7.13503 12.5L8.30003 13.4325C8.3612 13.4814 8.43299 13.5153 8.50964 13.5313C8.58628 13.5474 8.66562 13.5452 8.74128 13.525C9.3159 13.3722 9.86762 13.1435 10.3819 12.845C10.4492 12.806 10.5065 12.7517 10.5491 12.6866C10.5917 12.6215 10.6186 12.5473 10.6275 12.47L10.7925 10.9875C10.8575 10.9259 10.92 10.8634 10.98 10.8L12.4663 10.625C12.5436 10.616 12.6178 10.5891 12.6829 10.5463C12.7481 10.5036 12.8023 10.4462 12.8413 10.3788C13.1392 9.8643 13.3676 9.31263 13.5207 8.73815C13.5408 8.66245 13.5428 8.58308 13.5267 8.50643C13.5105 8.42979 13.4765 8.35802 13.4275 8.2969L12.5 7.13503ZM7.00003 9.50003C6.50558 9.50003 6.02223 9.35341 5.6111 9.0787C5.19998 8.804 4.87955 8.41355 4.69033 7.95674C4.50111 7.49992 4.4516 6.99726 4.54807 6.5123C4.64453 6.02735 4.88263 5.58189 5.23226 5.23226C5.58189 4.88263 6.02735 4.64453 6.5123 4.54807C6.99726 4.4516 7.49992 4.50111 7.95674 4.69033C8.41355 4.87955 8.804 5.19998 9.0787 5.6111C9.35341 6.02223 9.50003 6.50558 9.50003 7.00003C9.50003 7.66307 9.23664 8.29895 8.7678 8.7678C8.29895 9.23664 7.66307 9.50003 7.00003 9.50003Z" fill="white"/>
</svg>
