<svg width="49" height="48" viewBox="0 0 49 48" fill="none" xmlns="http://www.w3.org/2000/svg">
<circle cx="24.5312" cy="24" r="24" fill="#2D94F3"/>
<path d="M12.8305 15.0842C12.5491 15.0842 12.3164 14.9922 12.1324 14.8082C11.9484 14.6242 11.8564 14.3915 11.8564 14.1101V10.3764C11.8564 10.095 11.9484 9.8623 12.1324 9.67832C12.3164 9.49434 12.5491 9.40234 12.8305 9.40234H16.5642C16.8456 9.40234 17.0783 9.49434 17.2623 9.67832C17.4463 9.8623 17.5383 10.095 17.5383 10.3764C17.5383 10.6578 17.4463 10.8904 17.2623 11.0744C17.0783 11.2584 16.8456 11.3504 16.5642 11.3504H13.8045V14.1101C13.8045 14.3915 13.7125 14.6242 13.5285 14.8082C13.3445 14.9922 13.1119 15.0842 12.8305 15.0842ZM36.8564 15.0842C36.5751 15.0842 36.3424 14.9922 36.1584 14.8082C35.9744 14.6242 35.8824 14.3915 35.8824 14.1101V11.3504H33.1227C32.8413 11.3504 32.6086 11.2584 32.4246 11.0744C32.2406 10.8904 32.1486 10.6578 32.1486 10.3764C32.1486 10.095 32.2406 9.8623 32.4246 9.67832C32.6086 9.49434 32.8413 9.40234 33.1227 9.40234H36.8564C37.1378 9.40234 37.3705 9.49434 37.5545 9.67832C37.7385 9.8623 37.8305 10.095 37.8305 10.3764V14.1101C37.8305 14.3915 37.7385 14.6242 37.5545 14.8082C37.3705 14.9922 37.1378 15.0842 36.8564 15.0842ZM12.8305 37.9738C12.5491 37.9738 12.3164 37.8818 12.1324 37.6978C11.9484 37.5138 11.8564 37.2811 11.8564 36.9997V33.266C11.8564 32.9846 11.9484 32.7519 12.1324 32.5679C12.3164 32.3839 12.5491 32.292 12.8305 32.292C13.1119 32.292 13.3445 32.3839 13.5285 32.5679C13.7125 32.7519 13.8045 32.9846 13.8045 33.266V36.0257H16.5642C16.8456 36.0257 17.0783 36.1177 17.2623 36.3017C17.4463 36.4857 17.5383 36.7184 17.5383 36.9997C17.5383 37.2811 17.4463 37.5138 17.2623 37.6978C17.0783 37.8818 16.8456 37.9738 16.5642 37.9738H12.8305ZM33.1227 37.9738C32.8413 37.9738 32.6086 37.8818 32.4246 37.6978C32.2406 37.5138 32.1486 37.2811 32.1486 36.9997C32.1486 36.7184 32.2406 36.4857 32.4246 36.3017C32.6086 36.1177 32.8413 36.0257 33.1227 36.0257H35.8824V33.266C35.8824 32.9846 35.9744 32.7519 36.1584 32.5679C36.3424 32.3839 36.5751 32.292 36.8564 32.292C37.1378 32.292 37.3705 32.3839 37.5545 32.5679C37.7385 32.7519 37.8305 32.9846 37.8305 33.266V36.9997C37.8305 37.2811 37.7385 37.5138 37.5545 37.6978C37.3705 37.8818 37.1378 37.9738 36.8564 37.9738H33.1227ZM17.7006 32.1296H31.9863V15.2465H17.7006V32.1296ZM17.7006 34.0777C17.1811 34.0777 16.7266 33.8829 16.337 33.4933C15.9474 33.1036 15.7525 32.6491 15.7525 32.1296V15.2465C15.7525 14.727 15.9474 14.2725 16.337 13.8829C16.7266 13.4933 17.1811 13.2984 17.7006 13.2984H31.9863C32.5058 13.2984 32.9603 13.4933 33.3499 13.8829C33.7396 14.2725 33.9344 14.727 33.9344 15.2465V32.1296C33.9344 32.6491 33.7396 33.1036 33.3499 33.4933C32.9603 33.8829 32.5058 34.0777 31.9863 34.0777H17.7006ZM22.2461 20.766H27.4409C27.7222 20.766 27.9549 20.674 28.1389 20.49C28.3229 20.306 28.4149 20.0733 28.4149 19.792C28.4149 19.5106 28.3229 19.2779 28.1389 19.0939C27.9549 18.9099 27.7222 18.8179 27.4409 18.8179H22.2461C21.9647 18.8179 21.732 18.9099 21.548 19.0939C21.364 19.2779 21.272 19.5106 21.272 19.792C21.272 20.0733 21.364 20.306 21.548 20.49C21.732 20.674 21.9647 20.766 22.2461 20.766ZM22.2461 24.6621H27.4409C27.7222 24.6621 27.9549 24.5701 28.1389 24.3861C28.3229 24.2021 28.4149 23.9694 28.4149 23.6881C28.4149 23.4067 28.3229 23.174 28.1389 22.99C27.9549 22.806 27.7222 22.714 27.4409 22.714H22.2461C21.9647 22.714 21.732 22.806 21.548 22.99C21.364 23.174 21.272 23.4067 21.272 23.6881C21.272 23.9694 21.364 24.2021 21.548 24.3861C21.732 24.5701 21.9647 24.6621 22.2461 24.6621ZM22.2461 28.5582H27.4409C27.7222 28.5582 27.9549 28.4662 28.1389 28.2822C28.3229 28.0982 28.4149 27.8655 28.4149 27.5842C28.4149 27.3028 28.3229 27.0701 28.1389 26.8861C27.9549 26.7021 27.7222 26.6101 27.4409 26.6101H22.2461C21.9647 26.6101 21.732 26.7021 21.548 26.8861C21.364 27.0701 21.272 27.3028 21.272 27.5842C21.272 27.8655 21.364 28.0982 21.548 28.2822C21.732 28.4662 21.9647 28.5582 22.2461 28.5582ZM17.7006 32.1296V15.2465V32.1296Z" fill="white"/>
</svg>
