<svg width="49" height="49" viewBox="0 0 22 22" fill="none" xmlns="http://www.w3.org/2000/svg">
<circle cx="11.2656" cy="10.7344" r="10.7344" fill="#2D94F3"/>
<path d="M6.03196 6.7466C5.90611 6.7466 5.80204 6.70546 5.71975 6.62317C5.63746 6.54088 5.59631 6.43681 5.59631 6.31096V4.64097C5.59631 4.51512 5.63746 4.41105 5.71975 4.32876C5.80204 4.24647 5.90611 4.20532 6.03196 4.20532H7.70195C7.8278 4.20532 7.93187 4.24647 8.01416 4.32876C8.09645 4.41105 8.13759 4.51512 8.13759 4.64097C8.13759 4.76682 8.09645 4.8709 8.01416 4.95319C7.93187 5.03547 7.8278 5.07662 7.70195 5.07662H6.46761V6.31096C6.46761 6.43681 6.42647 6.54088 6.34418 6.62317C6.26189 6.70546 6.15782 6.7466 6.03196 6.7466ZM16.778 6.7466C16.6521 6.7466 16.548 6.70546 16.4657 6.62317C16.3834 6.54088 16.3423 6.43681 16.3423 6.31096V5.07662H15.108C14.9821 5.07662 14.878 5.03547 14.7958 4.95319C14.7135 4.8709 14.6723 4.76682 14.6723 4.64097C14.6723 4.51512 14.7135 4.41105 14.7958 4.32876C14.878 4.24647 14.9821 4.20532 15.108 4.20532H16.778C16.9038 4.20532 17.0079 4.24647 17.0902 4.32876C17.1725 4.41105 17.2136 4.51512 17.2136 4.64097V6.31096C17.2136 6.43681 17.1725 6.54088 17.0902 6.62317C17.0079 6.70546 16.9038 6.7466 16.778 6.7466ZM6.03196 16.9843C5.90611 16.9843 5.80204 16.9432 5.71975 16.8609C5.63746 16.7786 5.59631 16.6745 5.59631 16.5487V14.8787C5.59631 14.7529 5.63746 14.6488 5.71975 14.5665C5.80204 14.4842 5.90611 14.4431 6.03196 14.4431C6.15782 14.4431 6.26189 14.4842 6.34418 14.5665C6.42647 14.6488 6.46761 14.7529 6.46761 14.8787V16.113H7.70195C7.8278 16.113 7.93187 16.1542 8.01416 16.2365C8.09645 16.3188 8.13759 16.4228 8.13759 16.5487C8.13759 16.6745 8.09645 16.7786 8.01416 16.8609C7.93187 16.9432 7.8278 16.9843 7.70195 16.9843H6.03196ZM15.108 16.9843C14.9821 16.9843 14.878 16.9432 14.7958 16.8609C14.7135 16.7786 14.6723 16.6745 14.6723 16.5487C14.6723 16.4228 14.7135 16.3188 14.7958 16.2365C14.878 16.1542 14.9821 16.113 15.108 16.113H16.3423V14.8787C16.3423 14.7529 16.3834 14.6488 16.4657 14.5665C16.548 14.4842 16.6521 14.4431 16.778 14.4431C16.9038 14.4431 17.0079 14.4842 17.0902 14.5665C17.1725 14.6488 17.2136 14.7529 17.2136 14.8787V16.5487C17.2136 16.6745 17.1725 16.7786 17.0902 16.8609C17.0079 16.9432 16.9038 16.9843 16.778 16.9843H15.108ZM8.2102 14.3705H14.5997V6.81921H8.2102V14.3705ZM8.2102 15.2417C7.97786 15.2417 7.77455 15.1546 7.6003 14.9804C7.42604 14.8061 7.33891 14.6028 7.33891 14.3705V6.81921C7.33891 6.58687 7.42604 6.38356 7.6003 6.2093C7.77455 6.03505 7.97786 5.94792 8.2102 5.94792H14.5997C14.8321 5.94792 15.0354 6.03505 15.2096 6.2093C15.3839 6.38356 15.471 6.58687 15.471 6.81921V14.3705C15.471 14.6028 15.3839 14.8061 15.2096 14.9804C15.0354 15.1546 14.8321 15.2417 14.5997 15.2417H8.2102ZM10.2432 9.28789H12.5667C12.6925 9.28789 12.7966 9.24674 12.8789 9.16445C12.9612 9.08216 13.0023 8.97809 13.0023 8.85224C13.0023 8.72638 12.9612 8.62231 12.8789 8.54002C12.7966 8.45773 12.6925 8.41659 12.5667 8.41659H10.2432C10.1174 8.41659 10.0133 8.45773 9.93101 8.54002C9.84872 8.62231 9.80758 8.72638 9.80758 8.85224C9.80758 8.97809 9.84872 9.08216 9.93101 9.16445C10.0133 9.24674 10.1174 9.28789 10.2432 9.28789ZM10.2432 11.0305H12.5667C12.6925 11.0305 12.7966 10.9893 12.8789 10.907C12.9612 10.8248 13.0023 10.7207 13.0023 10.5948C13.0023 10.469 12.9612 10.3649 12.8789 10.2826C12.7966 10.2003 12.6925 10.1592 12.5667 10.1592H10.2432C10.1174 10.1592 10.0133 10.2003 9.93101 10.2826C9.84872 10.3649 9.80758 10.469 9.80758 10.5948C9.80758 10.7207 9.84872 10.8248 9.93101 10.907C10.0133 10.9893 10.1174 11.0305 10.2432 11.0305ZM10.2432 12.7731H12.5667C12.6925 12.7731 12.7966 12.7319 12.8789 12.6496C12.9612 12.5674 13.0023 12.4633 13.0023 12.3374C13.0023 12.2116 12.9612 12.1075 12.8789 12.0252C12.7966 11.9429 12.6925 11.9018 12.5667 11.9018H10.2432C10.1174 11.9018 10.0133 11.9429 9.93101 12.0252C9.84872 12.1075 9.80758 12.2116 9.80758 12.3374C9.80758 12.4633 9.84872 12.5674 9.93101 12.6496C10.0133 12.7319 10.1174 12.7731 10.2432 12.7731ZM8.2102 14.3705V6.81921V14.3705Z" fill="white"/>
</svg>
