<svg width="222" height="221" viewBox="0 0 222 221" fill="none" xmlns="http://www.w3.org/2000/svg">
<path d="M120.353 167.408H74.3184V202.913H120.353V167.408Z" fill="#EBEBEB"/>
<path d="M108.821 202.666C108.759 202.666 108.706 194.75 108.706 184.986C108.706 175.222 108.759 167.306 108.821 167.306C108.883 167.306 108.936 175.222 108.936 184.986C108.936 194.75 108.883 202.666 108.821 202.666Z" fill="#E0E0E0"/>
<path d="M116.45 194.834H112.923V198.825H116.45V194.834Z" fill="#FAFAFA"/>
<path d="M93.5941 167.5H88.3652V175.076H93.5941V167.5Z" fill="#E0E0E0"/>
<path d="M93.5941 195.231H88.3652V202.807H93.5941V195.231Z" fill="#E0E0E0"/>
<path d="M203.886 158.506H145.838V203.276H203.886V158.506Z" fill="#EBEBEB"/>
<path d="M189.34 202.958C189.278 202.958 189.225 192.982 189.225 180.672C189.225 168.362 189.278 158.386 189.34 158.386C189.402 158.386 189.455 168.362 189.455 180.672C189.455 192.982 189.406 202.958 189.34 202.958Z" fill="#E0E0E0"/>
<path d="M198.962 193.083H194.511V198.113H198.962V193.083Z" fill="#FAFAFA"/>
<path d="M170.14 158.621H163.545V168.172H170.14V158.621Z" fill="#E0E0E0"/>
<path d="M170.14 193.587H163.545V203.139H170.14V193.587Z" fill="#E0E0E0"/>
<path d="M36.5052 159.823C38.8567 158.612 41.6236 158.453 44.2314 158.886C45.6325 159.116 47.0911 159.535 48.0459 160.587C49.0006 161.639 49.1774 163.491 48.0856 164.397C47.4315 164.937 46.5254 165.016 45.6767 165.007C43.6347 164.981 41.3717 164.623 39.7407 165.852C38.8081 166.554 38.1893 167.717 37.0887 168.062C35.9881 168.406 34.7726 167.757 34.198 166.775C33.6664 165.752 33.5493 164.563 33.8709 163.456C34.0011 162.689 34.3064 161.962 34.7633 161.331C35.2202 160.701 35.8163 160.185 36.5052 159.823Z" fill="#EBEBEB"/>
<path d="M31.1218 149.431C32.5583 151.482 35.3517 150.806 36.6468 149.551C37.9419 148.295 38.4899 146.483 38.985 144.755C40.1253 140.799 41.2701 136.649 40.4259 132.622C40.2226 131.401 39.6857 130.26 38.8745 129.325C38.4638 128.866 37.9402 128.522 37.3556 128.327C36.7711 128.132 36.1458 128.094 35.5418 128.215C34.1318 128.587 33.2567 129.983 32.6246 131.278C30.7611 135.15 29.7856 139.389 29.7693 143.685C29.7693 145.688 29.9947 147.783 31.1218 149.431Z" fill="#EBEBEB"/>
<path d="M27.1791 152.375C28.7393 150.523 29.0355 147.827 28.3415 145.506C27.6476 143.186 26.0785 141.215 24.2707 139.601C22.1445 137.71 19.6704 136.251 16.9866 135.305C15.9464 134.885 14.8275 134.695 13.7069 134.748C13.1479 134.78 12.6052 134.948 12.126 135.238C11.6468 135.528 11.2457 135.93 10.9577 136.41C10.1886 137.873 10.9267 139.646 11.7223 141.095C13.1234 143.646 14.7225 146.083 16.5048 148.384C17.9413 150.231 19.5988 152.057 21.769 152.892C23.9392 153.728 26.2288 153.63 27.3868 152.114" fill="#EBEBEB"/>
<path d="M31.0244 180.38C31.1012 180.076 31.1456 179.765 31.157 179.452C31.2233 178.771 31.3029 177.918 31.4046 176.906C31.5313 175.654 31.7216 174.409 31.9747 173.176C32.3069 171.668 32.7607 170.19 33.3317 168.756C33.8917 167.331 34.649 165.992 35.5815 164.778C36.3437 163.79 37.314 162.983 38.4235 162.413C39.1781 162.041 39.9865 161.79 40.8192 161.67C41.1326 161.658 41.4438 161.612 41.7474 161.533C41.4345 161.499 41.1188 161.499 40.8059 161.533C39.9413 161.599 39.0954 161.819 38.3086 162.183C37.137 162.736 36.1097 163.553 35.3074 164.57C34.3316 165.8 33.545 167.169 32.9737 168.632C32.4033 170.083 31.9597 171.581 31.6477 173.109C31.4072 174.358 31.2404 175.62 31.1482 176.888C31.0686 177.971 31.0377 178.846 31.0244 179.452C30.9919 179.761 30.9919 180.072 31.0244 180.38Z" fill="#E0E0E0"/>
<path d="M31.2013 178.427C31.2275 178.281 31.2364 178.132 31.2278 177.985C31.2278 177.657 31.2278 177.246 31.2278 176.747C31.2278 175.673 31.2278 174.117 31.2809 172.199C31.3781 168.362 31.7229 164.243 32.3461 158.413C32.9516 152.936 33.7605 146.567 34.618 142.426C34.7992 141.484 34.9848 140.636 35.1616 139.893C35.3384 139.15 35.4666 138.505 35.6036 137.988C35.7406 137.471 35.8158 137.104 35.8953 136.786C35.9386 136.642 35.9638 136.494 35.9705 136.344C35.9039 136.473 35.8534 136.609 35.8202 136.75C35.723 137.064 35.6036 137.453 35.4577 137.935C35.3119 138.417 35.1351 139.089 34.9495 139.827C34.7638 140.565 34.5516 141.413 34.3527 142.355C33.2909 147.253 32.4927 152.205 31.9615 157.188C31.3251 163.023 31.0378 168.336 31.0112 172.181C31.0112 174.104 31.0112 175.664 31.0775 176.738C31.1085 177.238 31.135 177.649 31.1527 177.971C31.1505 178.124 31.1668 178.277 31.2013 178.427Z" fill="#E0E0E0"/>
<path d="M31.2279 168.181C31.2616 167.75 31.2616 167.317 31.2279 166.886C31.1793 166.055 31.0643 164.857 30.8301 163.385C30.541 161.665 30.1543 159.962 29.672 158.285C29.1146 156.221 28.4009 154.202 27.5372 152.247C26.0583 148.644 23.936 145.34 21.274 142.496C20.8122 142.008 20.319 141.55 19.7978 141.126C19.5723 140.932 19.3558 140.742 19.1701 140.591L18.622 140.198C18.278 139.935 17.9129 139.702 17.5303 139.5C17.4684 139.584 19.0729 140.529 21.0972 142.682C23.6722 145.552 25.7381 148.841 27.2057 152.406C28.0545 154.349 28.7708 156.347 29.3494 158.386C29.8354 160.048 30.2381 161.732 30.556 163.434C30.8212 164.888 30.998 166.086 31.0688 166.899C31.0877 167.33 31.1409 167.759 31.2279 168.181Z" fill="#E0E0E0"/>
<path d="M20.6375 184.694L21.6629 198.763H39.7363L40.7617 184.694H20.6375Z" fill="#EBEBEB"/>
<path d="M42.9143 179.151H18.8916V184.694H42.9143V179.151Z" fill="#EBEBEB"/>
<path d="M18.8916 198.224V199.757H20.0231H42.5209V198.224H18.8916Z" fill="#E0E0E0"/>
<path d="M21.1282 202.295L20.0232 199.59H41.6591L40.3685 202.295H21.1282Z" fill="#E0E0E0"/>
<path d="M40.4257 189.291C40.4032 189.338 40.375 189.383 40.3418 189.424C40.271 189.516 40.1782 189.636 40.0721 189.782L39.0202 191.108L38.9716 191.169L38.9274 191.108L36.3417 187.532H36.4875L33.9416 191.134L33.862 191.249L33.7736 191.143L30.7548 187.549H30.9272L30.7636 187.762L28.063 191.143L27.9702 191.258L27.8906 191.138L25.3403 187.536H25.4906L22.3524 191.108L22.2993 191.174L22.2551 191.099L21.2739 189.472C21.1678 189.295 21.0882 189.15 21.0219 189.03C20.9886 188.981 20.9619 188.927 20.9424 188.871C20.9837 188.913 21.0194 188.961 21.0485 189.012L21.3269 189.432L22.3568 191.055H22.2595L25.3535 187.439L25.4287 187.346L25.4994 187.443L28.0718 191.032H27.9039L30.5957 187.642C30.6531 187.572 30.7106 187.501 30.7592 187.435L30.8476 187.324L30.936 187.43L33.946 191.032H33.7781L36.3505 187.448L36.4256 187.342L36.4964 187.448C37.5174 188.902 38.3837 190.135 39.029 191.063H38.9362L40.0324 189.737C40.1517 189.6 40.2489 189.49 40.3241 189.397C40.3553 189.359 40.3893 189.324 40.4257 189.291Z" fill="#F5F5F5"/>
<path d="M41.0138 184.601C41.0138 184.663 36.4833 184.716 30.9008 184.716C25.3183 184.716 20.7878 184.663 20.7878 184.601C20.7878 184.539 25.3139 184.491 30.9008 184.491C36.4877 184.491 41.0138 184.539 41.0138 184.601Z" fill="#F5F5F5"/>
<path d="M167.763 25.1061L164.059 25.1262L164.158 43.5573L167.862 43.5372L167.763 25.1061Z" fill="#E0E0E0"/>
<path d="M141.561 25.1552L131.97 25.2071L132.025 35.3818L141.617 35.3299L141.561 25.1552Z" fill="#EBEBEB"/>
<path d="M151.108 25.1035L141.517 25.1554L141.572 35.3301L151.163 35.2782L151.108 25.1035Z" fill="#F5F5F5"/>
<path d="M131.982 28.0228C138.358 28.0759 144.738 28.0464 151.12 27.9344C151.147 27.9344 151.173 27.9237 151.192 27.9047C151.211 27.8856 151.222 27.8597 151.222 27.8328C151.222 27.8058 151.211 27.7799 151.192 27.7609C151.173 27.7418 151.147 27.7311 151.12 27.7311C144.747 27.6957 138.355 27.7311 131.982 27.8504C131.962 27.8549 131.945 27.8659 131.932 27.8815C131.92 27.8972 131.913 27.9166 131.913 27.9366C131.913 27.9567 131.92 27.9761 131.932 27.9918C131.945 28.0074 131.962 28.0184 131.982 28.0228Z" fill="#E0E0E0"/>
<path d="M143.419 35.1607L125.991 35.255L126.036 43.5468L143.464 43.4525L143.419 35.1607Z" fill="#EBEBEB"/>
<path d="M160.762 35.0669L143.334 35.1612L143.379 43.453L160.807 43.3587L160.762 35.0669Z" fill="#F5F5F5"/>
<path d="M126.001 37.57C137.577 37.6982 149.193 37.57 160.774 37.3976C160.801 37.3976 160.826 37.3869 160.846 37.3678C160.865 37.3488 160.875 37.3229 160.875 37.296C160.875 37.269 160.865 37.2431 160.846 37.2241C160.826 37.205 160.801 37.1943 160.774 37.1943C149.198 37.1324 137.577 37.1368 126.001 37.3932C125.978 37.3932 125.956 37.4025 125.939 37.4191C125.922 37.4357 125.913 37.4582 125.913 37.4816C125.913 37.505 125.922 37.5275 125.939 37.5441C125.956 37.5607 125.978 37.57 126.001 37.57Z" fill="#E0E0E0"/>
<path d="M187.002 43.5547H119.482V46.5249H187.002V43.5547Z" fill="#E0E0E0"/>
<path d="M133.277 44.9824H130.536V55.1174H133.277V44.9824Z" fill="#E0E0E0"/>
<path d="M174.193 44.9824H171.452V55.1174H174.193V44.9824Z" fill="#E0E0E0"/>
<path d="M171.376 18.2311L167.672 18.2512L167.81 43.5995L171.513 43.5795L171.376 18.2311Z" fill="#EBEBEB"/>
<path d="M177.161 22.9513L171.406 22.9825L171.517 43.5263L177.272 43.4952L177.161 22.9513Z" fill="#F5F5F5"/>
<path d="M177.123 26.9178C175.21 27.0529 173.29 27.0529 171.377 26.9178C173.29 26.7885 175.21 26.7885 177.123 26.9178Z" fill="#E0E0E0"/>
<path d="M177.123 26.078C176.167 26.1748 175.206 26.2073 174.246 26.1753C173.286 26.2071 172.324 26.1746 171.368 26.078C173.281 25.9429 175.201 25.9429 177.114 26.078H177.123Z" fill="#E0E0E0"/>
<path d="M177.123 40.4121C175.21 40.5472 173.29 40.5472 171.377 40.4121C173.29 40.2828 175.21 40.2828 177.123 40.4121Z" fill="#E0E0E0"/>
<path d="M177.123 39.5502C175.21 39.6794 173.29 39.6794 171.377 39.5502C173.29 39.415 175.21 39.415 177.123 39.5502Z" fill="#E0E0E0"/>
<path d="M174.338 37.6673C174.285 37.6673 174.241 35.5943 174.241 33.0395C174.241 30.4848 174.285 28.4073 174.338 28.4073C174.391 28.4073 174.44 30.4803 174.44 33.0395C174.44 35.5987 174.396 37.6673 174.338 37.6673Z" fill="#E0E0E0"/>
<path d="M183.453 28.0051H177.189V43.5105H183.453V28.0051Z" fill="#EBEBEB"/>
<path d="M169.468 23.6338C170.056 23.6338 170.533 23.1569 170.533 22.5685C170.533 21.9802 170.056 21.5033 169.468 21.5033C168.88 21.5033 168.403 21.9802 168.403 22.5685C168.403 23.1569 168.88 23.6338 169.468 23.6338Z" fill="#E0E0E0"/>
<path d="M169.799 25.499H169.141V40.58H169.799V25.499Z" fill="#E0E0E0"/>
<path d="M205.88 203.033C205.88 203.099 163.395 203.148 111.005 203.148C58.6142 203.148 16.1204 203.099 16.1204 203.033C16.1204 202.966 58.5966 202.918 111.005 202.918C163.412 202.918 205.88 202.971 205.88 203.033Z" fill="#393E4B"/>
<path d="M66.4507 40.8187C68.5351 43.3696 69.6637 46.568 69.6419 49.862C69.6198 51.7273 69.2751 53.7826 70.3624 55.2986C71.1845 56.4478 72.6873 57.0269 73.3547 58.2733C74.1592 59.7717 73.4741 61.6679 73.9691 63.2944C74.6675 65.6017 77.3725 66.5696 78.977 68.3686C79.6609 69.1641 80.1394 70.1151 80.3706 71.1384C80.6018 72.1617 80.5785 73.2261 80.303 74.2383C80.0107 75.2464 79.482 76.1701 78.7609 76.9327C78.0398 77.6953 77.1471 78.2748 76.157 78.623C75.0998 79.0397 73.9206 79.0207 72.8774 78.5699C71.7945 78.0307 71.1094 76.9213 70.579 75.8384C69.5138 73.7079 60.1566 62.1938 59.6262 59.8689" fill="#393E4B"/>
<path d="M59.6439 38.1048C55.8162 37.486 52.1299 40.0275 50.5254 43.5547C48.921 47.0819 48.8679 51.0687 48.7574 54.9583C48.6469 58.8479 48.3641 62.8789 46.3883 66.2116C45.133 68.3288 43.1882 70.1896 42.8833 72.625C42.6092 74.8085 43.7407 77.0097 43.365 79.1799C43.038 81.0717 41.597 82.7159 41.6545 84.6298C41.7252 86.937 44.0988 88.6741 46.4016 88.7359C48.7044 88.7978 50.8614 87.5912 52.6691 86.1591C55.6145 83.8205 57.9714 80.8249 59.5511 77.4119" fill="#393E4B"/>
<path d="M53.3454 47.2277C53.2251 46.2649 53.2996 45.2877 53.5642 44.3541C53.8289 43.4206 54.2784 42.5497 54.886 41.7932C55.4937 41.0367 56.2472 40.41 57.1017 39.9503C57.9562 39.4906 58.8943 39.2072 59.8605 39.117C63.7191 38.7457 67.1535 41.6232 67.7325 45.4597C68.2408 48.8233 68.6739 52.2179 68.6607 53.4511C68.6121 57.1683 66.4507 58.6136 65.5667 59.0512C65.2487 59.1653 64.9199 59.2468 64.5854 59.2943V59.3208L65.4076 63.5905C65.7833 66.3884 64.223 68.8946 61.4296 69.2879C58.6361 69.6813 56.4394 67.5465 56.0106 64.7486L53.3454 47.2277Z" fill="#FFBE9D"/>
<path d="M66.9723 47.0863C66.9104 47.1747 66.4198 46.9139 65.7922 47.0067C65.1645 47.0995 64.7446 47.4796 64.6651 47.4133C64.5855 47.347 64.6651 47.2365 64.8596 47.0597C65.1013 46.8243 65.4102 46.6698 65.7436 46.6177C66.0706 46.5673 66.4053 46.6231 66.6983 46.7769C66.9193 46.9183 67.0033 47.0509 66.9723 47.0863Z" fill="#393E4B"/>
<path d="M61.3766 48.4476C61.3147 48.536 60.8241 48.2708 60.1921 48.3637C59.56 48.4565 59.1489 48.841 59.0694 48.7747C58.9898 48.7084 59.0694 48.5935 59.2639 48.4211C59.5056 48.1857 59.8145 48.0312 60.1479 47.9791C60.4754 47.9325 60.8093 47.9897 61.1026 48.1427C61.3192 48.2797 61.4076 48.4079 61.3766 48.4476Z" fill="#393E4B"/>
<path d="M63.6707 51.8201C63.9868 51.668 64.321 51.5566 64.6652 51.4886C64.8243 51.4488 64.9702 51.3958 64.9834 51.2809C64.9691 51.1194 64.9076 50.9657 64.8066 50.8389L64.148 49.6631C63.2331 48.0189 62.548 46.6575 62.6143 46.6178C62.6806 46.578 63.4983 47.8907 64.3823 49.535C64.6077 49.9416 64.8243 50.3306 65.0188 50.6974C65.1472 50.8772 65.2097 51.0957 65.1956 51.3162C65.181 51.3765 65.1527 51.4327 65.1128 51.4802C65.0729 51.5277 65.0226 51.5654 64.9657 51.5903C64.8796 51.628 64.789 51.6547 64.6961 51.6698C64.3623 51.7644 64.0176 51.8149 63.6707 51.8201Z" fill="#393E4B"/>
<path d="M64.5502 59.2987C64.5502 59.2987 62.1502 59.8512 58.844 58.4678C58.844 58.4678 60.2717 61.5397 64.7756 60.4479L64.5502 59.2987Z" fill="#EB996E"/>
<path d="M61.0541 46.799C61.0187 46.9802 60.3778 46.989 59.6529 47.1879C58.9281 47.3868 58.3579 47.6697 58.2385 47.5327C58.1855 47.4664 58.265 47.2896 58.4816 47.0907C58.7733 46.8413 59.1178 46.6615 59.4893 46.565C59.8607 46.4685 60.2492 46.4578 60.6253 46.5338C60.9171 46.6001 61.0541 46.715 61.0541 46.799Z" fill="#393E4B"/>
<path d="M66.4552 45.694C66.3668 45.8531 65.9115 45.7691 65.39 45.8354C64.8684 45.9017 64.4397 46.0741 64.3159 45.9371C64.2629 45.8708 64.3159 45.7205 64.4839 45.5569C64.7156 45.3515 65.0065 45.2246 65.3148 45.1945C65.6193 45.1578 65.9276 45.2149 66.1988 45.358C66.411 45.4774 66.495 45.6144 66.4552 45.694Z" fill="#393E4B"/>
<path d="M60.0109 49.2609C60.0206 49.3293 60.0438 49.3951 60.0792 49.4545C60.1145 49.5138 60.1613 49.5656 60.2168 49.6067C60.2724 49.6478 60.3355 49.6775 60.4026 49.694C60.4696 49.7105 60.5393 49.7136 60.6076 49.7029C60.674 49.6953 60.7382 49.6745 60.7964 49.6418C60.8547 49.6091 60.9059 49.5652 60.947 49.5126C60.9882 49.4599 61.0184 49.3996 61.036 49.3352C61.0536 49.2707 61.0582 49.2034 61.0496 49.1372C61.0289 48.9995 60.9544 48.8757 60.8426 48.7929C60.7307 48.71 60.5906 48.6749 60.4529 48.6952C60.3863 48.7022 60.3218 48.7226 60.2632 48.7551C60.2046 48.7876 60.1532 48.8316 60.112 48.8843C60.0707 48.9371 60.0405 48.9977 60.0232 49.0624C60.0058 49.1271 60.0016 49.1946 60.0109 49.2609Z" fill="#393E4B"/>
<path d="M65.5844 48.0542C65.6051 48.1919 65.6796 48.3157 65.7914 48.3985C65.9033 48.4814 66.0434 48.5165 66.1811 48.4962C66.2475 48.4886 66.3117 48.4678 66.3699 48.4352C66.4282 48.4025 66.4794 48.3585 66.5205 48.3059C66.5616 48.2532 66.5919 48.1929 66.6095 48.1285C66.6271 48.064 66.6317 47.9967 66.6231 47.9305C66.6024 47.7929 66.5279 47.6691 66.4161 47.5862C66.3042 47.5034 66.1641 47.4682 66.0264 47.4885C65.9598 47.4956 65.8953 47.5159 65.8367 47.5484C65.7781 47.5809 65.7267 47.6249 65.6855 47.6777C65.6442 47.7305 65.614 47.791 65.5967 47.8557C65.5793 47.9204 65.5751 47.9879 65.5844 48.0542Z" fill="#393E4B"/>
<path d="M64.6608 53.04C64.4873 52.986 64.3003 52.9945 64.1324 53.0639C63.9645 53.1333 63.8261 53.2594 63.7414 53.4201C63.6605 53.5678 63.6277 53.737 63.6475 53.9041C63.6673 54.0713 63.7387 54.2281 63.8519 54.3528C63.9724 54.4711 64.131 54.5427 64.2994 54.5549C64.4678 54.567 64.6351 54.5189 64.7713 54.4191C64.9418 54.2638 65.0449 54.0481 65.0586 53.8179C65.0886 53.6069 65.0381 53.3923 64.9171 53.2168C64.8551 53.131 64.7664 53.0681 64.6649 53.0377C64.5635 53.0073 64.4548 53.0113 64.3558 53.0489" fill="#EB996E"/>
<path d="M67.2419 42.432C66.8949 41.0316 66.0292 39.8152 64.8197 39.0286C63.8297 38.3135 62.6538 37.9005 61.434 37.8396C60.2067 37.7868 59.0084 38.2222 58.1013 39.0507C57.4577 39.6887 57.0896 40.5534 57.0759 41.4596L57.1466 40.8408C56.9609 41.3443 56.9609 41.8976 57.1466 42.4011C57.2483 42.6707 57.372 42.9447 57.4781 43.2143C57.7945 43.9935 58.3815 44.6323 59.1312 45.0133C59.4707 45.1954 59.851 45.2882 60.2362 45.2829C60.4291 45.279 60.6188 45.2331 60.792 45.1484C60.9653 45.0637 61.1181 44.9421 61.2395 44.7923C61.514 44.3132 61.5991 43.7487 61.4782 43.2099C61.7683 43.7423 62.1821 44.1971 62.6849 44.5359C62.9416 44.7 63.2469 44.7706 63.5496 44.736C63.8523 44.7014 64.1338 44.5636 64.3468 44.3459C64.7092 43.9039 64.5678 43.2055 64.3468 42.6574C64.6888 43.1744 65.1678 43.5861 65.7303 43.8464C65.8783 43.9313 66.0423 43.9846 66.212 44.0029C66.3816 44.0211 66.5532 44.004 66.7159 43.9525C66.846 43.888 66.9597 43.7948 67.0485 43.68C67.1373 43.5651 67.1989 43.4316 67.2286 43.2895C67.2942 43.0079 67.2988 42.7155 67.2419 42.432Z" fill="#393E4B"/>
<path d="M64.0463 43.6077C64.0065 43.6077 64.0153 43.0818 63.8429 42.2817C63.6441 41.2187 63.1096 40.2473 62.318 39.5104C61.883 39.1148 61.3581 38.8311 60.7887 38.6839C60.3224 38.5694 59.8369 38.5574 59.3655 38.6485C58.931 38.75 58.516 38.9217 58.1367 39.1568C58.1367 39.1568 58.2119 39.0463 58.4063 38.9049C58.6855 38.7096 58.9989 38.5687 59.3301 38.4894C59.8258 38.3733 60.3416 38.3733 60.8373 38.4894C61.4481 38.6419 62.0106 38.9459 62.4727 39.3734C63.3016 40.1407 63.8428 41.1686 64.0065 42.2862C64.0591 42.6165 64.0857 42.9505 64.086 43.2851C64.0915 43.3941 64.078 43.5033 64.0463 43.6077Z" fill="#455A64"/>
<path d="M104.755 95.1405L87.7596 88.4C87.7596 88.4 79.0566 76.9831 79.2379 76.7621L73.125 83.454L82.0092 95.472L102.602 100.299L106.138 99.3174C105.36 95.5648 104.755 95.1405 104.755 95.1405Z" fill="#FFBE9D"/>
<path d="M67.7148 62.5695L65.3987 61.6855L55.4007 62.9541V64.7221L55.1134 64.7574C52.9582 65.2156 50.8911 66.0186 48.9917 67.1354C47.2125 68.2215 45.7989 69.8149 44.9324 71.7107C44.066 73.6066 43.7865 75.7183 44.1297 77.7743C44.5363 80.3026 45.3231 83.3745 46.8436 85.1513C49.7475 88.5503 52.3995 84.3513 52.3995 84.3513C52.3995 84.3513 54.2205 88.5061 54.1145 90.473C54.0261 92.1216 53.3012 95.5516 53.0669 96.6212C53.0573 96.6639 53.0565 96.7082 53.0645 96.7513C53.0726 96.7944 53.0893 96.8353 53.1137 96.8717C53.1381 96.9081 53.1697 96.9392 53.2065 96.963C53.2433 96.9868 53.2845 97.0028 53.3277 97.0102L74.4199 100.913L74.5216 95.7549L73.8498 74.5389L72.8995 66.3C72.8995 66.3 72.9304 62.3662 67.7148 62.5695Z" fill="#F3802D"/>
<path d="M72.5769 64.9298L80.6213 76.55L74.146 84.4353L72.5769 64.9298Z" fill="#F3802D"/>
<path d="M74.314 89.3813C74.2851 89.1319 74.2748 88.8808 74.2831 88.6299C74.2831 88.1083 74.2831 87.4232 74.2566 86.5878C74.2174 84.3457 74.0566 82.1074 73.7748 79.8827C73.4433 77.2749 72.935 74.9455 72.5504 73.2527L72.0819 71.2637C72.014 71.0231 71.9638 70.7779 71.9316 70.53C72.0322 70.7596 72.112 70.9978 72.1703 71.2416C72.3073 71.6836 72.493 72.3775 72.7051 73.2173C73.2758 75.3981 73.7098 77.6124 74.0046 79.8473C74.2888 82.0813 74.4276 84.3314 74.4201 86.5834C74.4201 87.4674 74.398 88.1481 74.3715 88.6299C74.3738 88.8815 74.3545 89.1329 74.314 89.3813Z" fill="#393E4B"/>
<path d="M54.5124 71.7145C54.5124 71.7499 53.9025 71.7454 52.9257 71.7941C51.6511 71.8632 50.3835 72.0272 49.1333 72.2847C47.8834 72.547 46.6544 72.9 45.4558 73.3411C44.5365 73.6814 43.984 73.9333 43.9663 73.898C44.0796 73.8092 44.2045 73.7363 44.3376 73.6814C44.5807 73.5488 44.9431 73.3808 45.3984 73.1908C47.7834 72.2059 50.3324 71.6781 52.9124 71.6349C53.4074 71.6349 53.7964 71.6349 54.0837 71.6615C54.2285 71.6568 54.3731 71.6747 54.5124 71.7145Z" fill="#FAFAFA"/>
<path d="M73.1426 77.0318C72.8194 77.1492 72.482 77.2235 72.1393 77.2528C70.5049 77.4914 68.849 77.5477 67.2021 77.4207C66.8582 77.4148 66.5165 77.3643 66.1855 77.2705C66.5267 77.2402 66.8698 77.2402 67.211 77.2705C67.8386 77.2705 68.7094 77.2705 69.6685 77.2705C70.6276 77.2705 71.494 77.1732 72.1216 77.1158C72.4587 77.0569 72.8004 77.0288 73.1426 77.0318Z" fill="#FAFAFA"/>
<path d="M76.8335 71.7764C76.3462 72.3393 75.7625 72.8108 75.1097 73.1687C74.4934 73.5853 73.8056 73.885 73.0809 74.0527C73.0544 73.9908 73.9649 73.6107 74.9903 72.9565C76.0158 72.3024 76.7893 71.7234 76.8335 71.7764Z" fill="#FAFAFA"/>
<path d="M73.5847 66.3884C72.1902 67.6429 70.4134 68.3903 68.5415 68.51C68.5415 68.4393 69.757 68.2537 71.1537 67.657C72.5504 67.0603 73.5405 66.331 73.5847 66.3884Z" fill="#FAFAFA"/>
<path d="M74.0222 86.0309C73.8922 86.1183 73.7528 86.191 73.6067 86.2475C73.3283 86.3801 72.926 86.5436 72.4133 86.7337C71.0812 87.2124 69.7062 87.5617 68.3071 87.7768C66.9082 87.9928 65.4914 88.0712 64.0772 88.0111C63.5335 87.989 63.096 87.9492 62.7954 87.9094C62.638 87.899 62.4823 87.8708 62.3313 87.8254C62.3313 87.7856 63.0031 87.8254 64.0993 87.8519C66.9095 87.8782 69.7054 87.4483 72.378 86.579C73.3857 86.2475 74.0089 85.9955 74.0222 86.0309Z" fill="#FAFAFA"/>
<path d="M74.1857 92.02C74.1857 92.02 74.1238 92.0642 73.9956 92.1305L73.4299 92.378C72.9437 92.6079 72.2232 92.9084 71.3215 93.262C70.4198 93.6156 69.3281 93.956 68.0993 94.2919C65.428 95.0113 62.6861 95.4366 59.9223 95.5604C58.6494 95.6091 57.5046 95.6046 56.541 95.5604C55.5775 95.5162 54.804 95.4455 54.2692 95.3704L53.6548 95.2864C53.5824 95.2811 53.5111 95.2663 53.4426 95.2422C53.5144 95.2308 53.5875 95.2308 53.6592 95.2422L54.278 95.282C54.8128 95.3262 55.604 95.3704 56.5455 95.3969C57.4869 95.4234 58.6494 95.3969 59.9135 95.3527C61.1776 95.3085 62.5655 95.1494 64.0108 94.9107C65.4562 94.672 66.8176 94.3847 68.0463 94.0753C69.2751 93.7659 70.3624 93.4167 71.2641 93.0941C72.1658 92.7714 72.8995 92.5018 73.3945 92.2985L73.9691 92.0731C74.0392 92.0478 74.1118 92.0301 74.1857 92.02Z" fill="#FAFAFA"/>
<path d="M35.418 185.985L33.0267 196.783L28.6642 204.779C28.59 204.915 28.5446 205.065 28.5308 205.22C28.5171 205.375 28.5352 205.531 28.5841 205.678C28.6329 205.826 28.7116 205.962 28.8151 206.078C28.9186 206.194 29.0447 206.287 29.1858 206.352C29.3495 206.427 29.5289 206.462 29.7088 206.454C29.8888 206.445 30.0641 206.394 30.22 206.303C32.2444 205.137 39.6744 200.792 39.8026 199.992C39.9573 199.068 43.0823 188.769 43.0823 188.769L35.418 185.985Z" fill="#F3802D"/>
<g opacity="0.6">
<path d="M29.1858 206.352L39.9839 199.28L39.8689 199.722C39.7744 200.117 39.5425 200.464 39.2148 200.703C38.3308 201.335 35.8688 203.033 30.2554 206.312C30.0943 206.407 29.9123 206.46 29.7256 206.467C29.539 206.474 29.3535 206.434 29.1858 206.352Z" fill="white"/>
</g>
<g opacity="0.6">
<path d="M38.6268 195.262C38.4708 195.327 38.3444 195.448 38.2718 195.6C38.1992 195.753 38.1855 195.927 38.2334 196.089C38.2924 196.247 38.4096 196.376 38.5609 196.45C38.7121 196.524 38.886 196.537 39.0467 196.487C39.2137 196.418 39.3488 196.289 39.4257 196.125C39.5025 195.962 39.5156 195.775 39.4622 195.603C39.3839 195.446 39.2487 195.326 39.0843 195.266C38.92 195.206 38.7389 195.211 38.5782 195.28" fill="white"/>
</g>
<path d="M32.7925 202.259C32.6142 201.862 32.364 201.501 32.0544 201.194C31.6978 200.946 31.2974 200.767 30.8743 200.668C30.8743 200.637 31.029 200.588 31.2897 200.615C31.6291 200.659 31.9485 200.8 32.2091 201.022C32.4718 201.235 32.6655 201.521 32.766 201.844C32.8412 202.096 32.8191 202.259 32.7925 202.259Z" fill="#393E4B"/>
<path d="M31.6743 203.51C31.6124 203.545 31.3516 203.112 30.8345 202.816C30.5046 202.663 30.165 202.531 29.8179 202.423C30.0087 202.36 30.2116 202.344 30.41 202.376C30.6083 202.407 30.7962 202.485 30.9582 202.604C31.5461 202.944 31.7361 203.497 31.6743 203.51Z" fill="#393E4B"/>
<path d="M34.6666 200.765C34.2907 200.348 33.8828 199.961 33.4466 199.607C32.9661 199.314 32.4637 199.058 31.9438 198.843C32.5416 198.83 33.1243 199.031 33.5881 199.408C34.0994 199.716 34.4824 200.198 34.6666 200.765Z" fill="#393E4B"/>
<path d="M35.6699 197.543C35.6257 197.601 35.0909 197.207 34.3439 196.991C33.5969 196.774 32.9207 196.809 32.9163 196.734C33.4082 196.607 33.9255 196.615 34.4133 196.757C34.9011 196.899 35.3414 197.171 35.6876 197.543H35.6699Z" fill="#393E4B"/>
<path d="M36.4522 194.392C36.0211 194.125 35.5556 193.918 35.0688 193.777C34.5672 193.709 34.0587 193.709 33.5571 193.777C33.5571 193.751 33.6941 193.645 33.977 193.561C34.3489 193.46 34.7392 193.447 35.1168 193.524C35.4944 193.601 35.8488 193.765 36.1517 194.003C36.3771 194.215 36.4699 194.374 36.4522 194.392Z" fill="#393E4B"/>
<path d="M35.2325 193.181C35.2328 193.04 35.2629 192.902 35.3209 192.774C35.4461 192.409 35.6446 192.074 35.9043 191.788C36.0742 191.562 36.3131 191.398 36.585 191.32C36.6775 191.305 36.7725 191.318 36.8576 191.357C36.9427 191.396 37.014 191.46 37.0623 191.541C37.1436 191.705 37.1609 191.894 37.111 192.071C36.9976 192.426 36.7646 192.73 36.4517 192.931C36.1389 193.133 35.7656 193.219 35.396 193.176C35.0315 193.124 34.6905 192.966 34.416 192.72C34.1414 192.475 33.9457 192.154 33.8534 191.797C33.8322 191.706 33.8303 191.612 33.8478 191.521C33.8653 191.43 33.9019 191.343 33.9551 191.267C34.0161 191.195 34.0983 191.145 34.1897 191.124C34.2811 191.102 34.377 191.111 34.4634 191.147C34.7132 191.272 34.9264 191.459 35.0822 191.691C35.3164 191.998 35.4945 192.343 35.6082 192.712C35.662 192.844 35.6876 192.985 35.6833 193.128C35.5051 192.651 35.2563 192.204 34.9452 191.802C34.8003 191.613 34.6124 191.461 34.3971 191.36C34.3497 191.339 34.297 191.334 34.2468 191.346C34.1966 191.358 34.1516 191.386 34.1186 191.426C34.0877 191.478 34.0679 191.536 34.0603 191.596C34.0527 191.656 34.0575 191.717 34.0744 191.775C34.1666 192.075 34.3416 192.343 34.5794 192.548C34.8171 192.753 35.1078 192.886 35.4181 192.933C35.7307 192.969 36.0464 192.899 36.3137 192.732C36.581 192.566 36.7841 192.315 36.89 192.018C36.9328 191.898 36.9328 191.767 36.89 191.647C36.8649 191.601 36.8263 191.565 36.7795 191.543C36.7327 191.521 36.6801 191.514 36.6292 191.523C36.3988 191.586 36.1936 191.719 36.0413 191.903C35.7022 192.281 35.4288 192.713 35.2325 193.181Z" fill="#393E4B"/>
<g opacity="0.3">
<path d="M35.1263 187.156L34.6091 189.631L42.4281 190.931L43.0823 188.769L35.4047 185.985L35.1263 187.156Z" fill="black"/>
</g>
<path d="M70.3359 189.98L69.6906 198.608C69.6906 198.608 78.2477 202.144 78.2831 203.771L61.4871 203.121L61.9291 189.631L70.3359 189.98Z" fill="#F3802D"/>
<g opacity="0.6">
<path d="M64.5412 197.68C64.3782 197.724 64.2369 197.826 64.144 197.967C64.0512 198.108 64.0132 198.278 64.0374 198.445C64.0746 198.609 64.173 198.753 64.3125 198.848C64.4521 198.942 64.6224 198.98 64.7888 198.953C64.9621 198.907 65.1123 198.799 65.2103 198.648C65.3082 198.498 65.347 198.317 65.3192 198.14C65.2633 197.972 65.1447 197.832 64.9882 197.75C64.8317 197.667 64.6493 197.649 64.4794 197.698" fill="white"/>
</g>
<g opacity="0.6">
<path d="M61.4961 203.121L61.5933 201.76L77.66 202.878C77.66 202.878 78.3982 203.232 78.2921 203.762L61.4961 203.121Z" fill="white"/>
</g>
<path d="M69.9735 198.533C69.9735 198.617 69.5581 198.639 69.147 198.887C68.7359 199.134 68.5061 199.47 68.431 199.435C68.3558 199.399 68.4973 198.931 69.0011 198.639C69.505 198.348 69.9956 198.458 69.9735 198.533Z" fill="#393E4B"/>
<path d="M71.7062 199.342C71.7062 199.426 71.3614 199.55 71.0697 199.886C70.778 200.222 70.6851 200.584 70.6012 200.58C70.5172 200.575 70.4862 200.107 70.8575 199.696C71.2288 199.285 71.7062 199.254 71.7062 199.342Z" fill="#393E4B"/>
<path d="M72.6256 201.477C72.5505 201.477 72.4532 201.075 72.6786 200.637C72.9041 200.2 73.2974 200.032 73.3284 200.102C73.3593 200.173 73.1162 200.403 72.935 200.765C72.7538 201.128 72.7052 201.472 72.6256 201.477Z" fill="#393E4B"/>
<path d="M69.8939 196.553C69.8585 196.624 69.4872 196.496 69.0099 196.509C68.5325 196.522 68.1789 196.655 68.1259 196.584C68.0728 196.513 68.4441 196.235 69.0099 196.226C69.5756 196.217 69.9469 196.491 69.8939 196.553Z" fill="#393E4B"/>
<g opacity="0.3">
<path d="M70.2166 191.691L70.1017 193.229L61.8584 192.831L61.9159 191.055L70.2166 191.691Z" fill="black"/>
</g>
<path d="M70.0045 194.807C69.7268 194.874 69.4358 194.862 69.1647 194.772C68.8583 194.708 68.5612 194.606 68.2807 194.467C68.1171 194.386 67.9591 194.295 67.8078 194.193C67.7155 194.136 67.6321 194.066 67.5603 193.985C67.5115 193.922 67.4851 193.844 67.4851 193.764C67.4851 193.684 67.5115 193.606 67.5603 193.543C67.6032 193.487 67.659 193.442 67.7228 193.412C67.7866 193.382 67.8567 193.368 67.9271 193.371C68.0336 193.375 68.139 193.393 68.241 193.424C68.4178 193.475 68.5895 193.543 68.7537 193.627C69.0328 193.763 69.288 193.944 69.5095 194.162C69.8852 194.537 70.0045 194.851 69.978 194.865C69.9515 194.878 69.7614 194.626 69.3769 194.312C69.1511 194.136 68.9048 193.987 68.6432 193.87C68.4872 193.805 68.3279 193.749 68.1658 193.702C67.989 193.649 67.8387 193.645 67.7901 193.702C67.7415 193.76 67.7901 193.746 67.7901 193.799C67.8431 193.858 67.9041 193.908 67.9713 193.95C68.1131 194.048 68.2607 194.138 68.4133 194.219C68.6682 194.36 68.9362 194.475 69.2134 194.564C69.4825 194.626 69.7469 194.707 70.0045 194.807Z" fill="#393E4B"/>
<path d="M69.894 194.922C69.7472 194.674 69.6808 194.387 69.704 194.1C69.7057 193.789 69.7564 193.48 69.8543 193.185C69.9177 193.012 69.9961 192.845 70.0885 192.686C70.1382 192.576 70.2151 192.481 70.3118 192.41C70.4085 192.339 70.5219 192.294 70.641 192.279C70.7165 192.284 70.789 192.31 70.8501 192.355C70.9111 192.399 70.9582 192.46 70.9858 192.531C71.0242 192.63 71.048 192.734 71.0565 192.84C71.0856 193.028 71.0856 193.219 71.0565 193.406C70.9974 193.718 70.8623 194.011 70.6631 194.259C70.3184 194.701 69.9736 194.767 69.9648 194.741C69.9559 194.714 70.23 194.551 70.4996 194.14C70.6543 193.905 70.7554 193.64 70.7957 193.362C70.8181 193.2 70.8181 193.037 70.7957 192.876C70.7736 192.699 70.7117 192.549 70.6454 192.566C70.5791 192.584 70.4156 192.69 70.3405 192.831C70.2542 192.973 70.1788 193.121 70.115 193.273C70.0127 193.54 69.9473 193.82 69.9206 194.104C69.8631 194.599 69.9382 194.922 69.894 194.922Z" fill="#393E4B"/>
<path d="M52.9741 96.9306C52.9741 96.9306 50.3221 97.05 48.5541 106.12C46.7861 115.19 33.3096 188.681 33.3096 188.681L43.0822 188.769L61.4959 118.898L60.2716 190.944L70.1989 191.704C70.1989 191.704 77.6466 112.016 77.7129 107.38C77.8013 101.598 74.4819 95.7505 74.4819 95.7505L52.9741 96.9306Z" fill="#393E4B"/>
<path d="M66.4066 96.1571C66.4684 96.1571 65.4518 101.351 64.1391 107.729C62.8264 114.107 61.7125 119.269 61.6506 119.256C61.5888 119.243 62.6009 114.063 63.9137 107.684C65.2264 101.306 66.3579 96.1439 66.4066 96.1571Z" fill="#455A64"/>
<path d="M67.9271 97.4522C67.9271 97.4256 68.1923 97.3461 68.4973 97.6157C68.5839 97.6942 68.6525 97.7906 68.6982 97.8982C68.744 98.0058 68.7659 98.122 68.7625 98.2389C68.7514 98.3867 68.6986 98.5283 68.6102 98.6473C68.5217 98.7662 68.4013 98.8576 68.263 98.9108C68.1281 98.972 67.9786 98.9941 67.8317 98.9746C67.6848 98.9551 67.5463 98.8947 67.432 98.8003C67.3466 98.7201 67.2791 98.6227 67.2342 98.5145C67.1892 98.4063 67.1678 98.2897 67.1713 98.1726C67.1713 97.766 67.4453 97.6245 67.4497 97.6511C67.3752 97.8133 67.336 97.9896 67.3348 98.1682C67.3407 98.2579 67.3645 98.3456 67.4047 98.4261C67.445 98.5065 67.5008 98.5781 67.5691 98.6367C67.6563 98.6968 67.7572 98.7341 67.8625 98.745C67.9679 98.7559 68.0743 98.7402 68.172 98.6993C68.2697 98.6584 68.3555 98.5935 68.4216 98.5108C68.4877 98.428 68.532 98.33 68.5503 98.2257C68.5568 98.1361 68.5453 98.0462 68.5165 97.9611C68.4876 97.8761 68.442 97.7977 68.3824 97.7306C68.1658 97.4787 67.9227 97.4875 67.9271 97.4522Z" fill="#455A64"/>
<path d="M67.5073 101.041C67.5073 101.015 67.7813 101.041 67.9493 101.408C67.992 101.513 68.0113 101.626 68.006 101.739C68.0006 101.852 67.9707 101.962 67.9183 102.062C67.8423 102.181 67.7353 102.278 67.6087 102.34C67.4821 102.403 67.3408 102.431 67.2 102.419C67.0591 102.408 66.924 102.358 66.8091 102.276C66.6943 102.194 66.604 102.082 66.5481 101.952C66.5128 101.845 66.5012 101.732 66.5142 101.621C66.5272 101.509 66.5644 101.402 66.6233 101.306C66.831 100.975 67.1139 100.984 67.105 101.01C67.0962 101.037 66.8929 101.099 66.7647 101.382C66.6998 101.54 66.6998 101.718 66.7647 101.877C66.8108 101.964 66.8784 102.039 66.9611 102.094C67.0439 102.148 67.139 102.181 67.2378 102.189C67.3366 102.197 67.4358 102.18 67.5262 102.139C67.6166 102.098 67.6952 102.035 67.7548 101.956C67.838 101.805 67.8587 101.627 67.8122 101.461C67.684 101.161 67.4852 101.072 67.5073 101.041Z" fill="#455A64"/>
<path d="M58.1411 97.5405C58.1229 97.6924 58.0843 97.8411 58.0262 97.9825C57.8881 98.3872 57.7151 98.7792 57.509 99.1539C56.8347 100.404 55.8606 101.468 54.6742 102.249C53.4878 103.031 52.1261 103.505 50.7111 103.631C50.2861 103.668 49.8587 103.668 49.4337 103.631C49.284 103.627 49.1354 103.603 48.9917 103.561C48.9917 103.516 49.6591 103.592 50.7155 103.459C52.0923 103.292 53.4116 102.808 54.5696 102.045C55.7277 101.282 56.693 100.26 57.3897 99.061C57.9068 98.1682 58.1013 97.5273 58.1411 97.5405Z" fill="#455A64"/>
<path d="M77.156 103.989C77.156 103.989 77.0411 103.936 76.8599 103.813C76.6067 103.63 76.37 103.426 76.1527 103.203C75.4258 102.467 74.8586 101.589 74.4867 100.624C74.1148 99.6585 73.9461 98.627 73.9913 97.5936C74.0014 97.2826 74.0414 96.9733 74.1106 96.6699C74.1593 96.4533 74.1902 96.3384 74.2079 96.3428C74.2256 96.3472 74.1548 96.8246 74.1548 97.5981C74.1556 99.6285 74.91 101.586 76.272 103.092C76.7892 103.662 77.1781 103.954 77.156 103.989Z" fill="#455A64"/>
<path d="M111.442 104.246C111.588 103.892 111.548 104.034 109.206 102.478C109.206 102.478 112.565 104.688 112.216 103.636C111.913 103.237 111.544 102.895 111.124 102.624C112.008 103.145 112.521 103.203 112.675 102.99C112.94 102.624 111.018 101.222 110.103 100.59C110.939 101.189 111.817 101.728 112.728 102.204C113.272 102.372 113.011 101.735 112.644 101.271C112.277 100.807 109.431 98.0666 108.666 97.2489C108.594 97.1866 108.535 97.1094 108.495 97.0224C108.455 96.9354 108.434 96.8408 108.434 96.745C108.434 96.6492 108.455 96.5546 108.495 96.4676C108.535 96.3806 108.594 96.3034 108.666 96.2411C110.036 95.3571 110.638 93.9471 110.62 93.483C110.605 93.3786 110.557 93.2816 110.483 93.206C110.409 93.1305 110.313 93.0803 110.209 93.0626C110.105 93.0449 109.998 93.0607 109.904 93.1076C109.809 93.1546 109.732 93.2303 109.683 93.3239C109.337 93.7538 108.934 94.1345 108.485 94.4554C108.137 94.727 107.745 94.9377 107.327 95.0787C106.841 95.2378 104.45 95.1052 103.937 94.8444L102.306 100.374C102.306 100.374 108.224 103.141 109.347 103.68C110.726 104.334 111.34 104.515 111.442 104.246Z" fill="#FFBE9D"/>
<path d="M108.14 101.66C108.092 101.726 108.861 102.288 109.855 102.92C110.85 103.552 111.685 104.007 111.725 103.941C111.765 103.874 110.995 103.309 110.005 102.681C109.015 102.053 108.184 101.576 108.14 101.66Z" fill="#EB996E"/>
<path d="M108.697 100.577C108.653 100.643 109.44 101.289 110.465 102.022C111.491 102.756 112.339 103.3 112.383 103.238C112.428 103.176 111.645 102.526 110.615 101.793C109.586 101.059 108.746 100.515 108.697 100.577Z" fill="#EB996E"/>
<path d="M109.285 99.4809C109.241 99.5428 109.975 100.17 110.925 100.878C111.875 101.585 112.693 102.106 112.728 102.045C112.764 101.983 112.043 101.355 111.093 100.648C110.143 99.9406 109.334 99.4191 109.285 99.4809Z" fill="#EB996E"/>
<path d="M49.0889 79.4539L53.4294 79.6926C53.7368 80.9043 54.1479 82.0874 54.6581 83.2286C58.1544 77.1644 60.8461 69.036 61.5357 65.7696C61.4384 65.4484 61.3191 65.086 61.1776 64.6823C61.0717 64.072 61.0898 63.4467 61.2307 62.8436C61.35 62.1187 61.5533 61.1375 61.6108 60.6866C61.8009 59.3076 62.0219 59.0866 62.4948 59.2457C63.149 59.4579 62.2252 63.122 62.76 63.2016C63.0517 63.2414 63.4009 61.9861 63.507 60.9562C63.6131 59.9264 64.0727 56.7617 64.4131 56.5362C64.9125 56.2268 65.3457 56.7175 65.2219 57.7429C65.0982 58.7683 64.9346 61.8756 65.4783 61.9154C66.022 61.9552 66.464 56.7042 66.464 56.7042C66.464 56.7042 66.38 55.5638 67.0076 55.5904C68.1436 55.639 67.2596 61.1772 67.1623 61.7032C67.0916 62.0657 67.6839 62.1452 67.7369 61.7386C67.79 61.3319 68.064 56.4832 69.2176 56.523C70.1016 56.5539 68.5325 61.0844 69.032 62.1364C69.5314 63.1883 69.8762 58.5694 70.7248 58.6313C71.0387 58.6578 71.2729 58.7197 70.6939 61.3319C70.1288 63.4091 69.4516 65.4542 68.6651 67.4581C67.3391 74.7069 61.4207 97.8942 52.1741 93.651C47.0027 91.2774 44.585 79.507 44.585 79.507L49.0889 79.4539Z" fill="#FFBE9D"/>
<path d="M68.6741 67.4978C68.6817 67.4431 68.6966 67.3895 68.7183 67.3387C68.7581 67.2238 68.8067 67.0735 68.873 66.8967C69.0188 66.4768 69.2177 65.8934 69.4785 65.1287C69.7393 64.364 70.0531 63.4358 70.3625 62.3397C70.5216 61.796 70.6542 61.2037 70.7736 60.5717C70.8355 60.2534 70.8929 59.9264 70.9327 59.5904C70.9437 59.4241 70.9437 59.2573 70.9327 59.091C70.9327 58.9186 70.8929 58.7772 70.7559 58.7727C70.6189 58.7683 70.5216 58.8523 70.4244 58.9982C70.3364 59.1542 70.2638 59.3186 70.2078 59.4888C70.0841 59.838 69.9868 60.2092 69.8896 60.5849C69.7923 60.9606 69.7039 61.354 69.589 61.7518C69.5389 61.9697 69.449 62.1765 69.3238 62.3618C69.2923 62.3981 69.2508 62.4242 69.2045 62.4369C69.1753 62.4433 69.145 62.4431 69.116 62.4362C69.0869 62.4293 69.0597 62.416 69.0365 62.3971C68.9857 62.3506 68.9438 62.2951 68.9128 62.2336C68.8661 62.1251 68.8348 62.0105 68.8199 61.8933C68.7998 61.0018 68.8889 60.1111 69.0851 59.2413C69.1603 58.7993 69.2398 58.3573 69.2973 57.9153C69.3238 57.6898 69.3503 57.4733 69.3548 57.2346C69.3592 56.9959 69.3238 56.744 69.231 56.7042C69.1382 56.6644 68.9128 56.7882 68.789 56.9738C68.6668 57.1699 68.5703 57.3808 68.5017 57.6014C68.351 58.0632 68.2372 58.5361 68.1614 59.0158C68.0774 59.502 68.0111 59.9971 67.9536 60.501C67.9315 60.7529 67.905 61.0048 67.8829 61.2612L67.8475 61.6457C67.8523 61.7279 67.8389 61.81 67.8083 61.8864C67.7778 61.9628 67.7308 62.0315 67.6707 62.0877C67.595 62.1431 67.5037 62.1729 67.41 62.1729C67.3162 62.1729 67.2249 62.1431 67.1492 62.0877C67.1063 62.0594 67.07 62.0223 67.0425 61.9789C67.0151 61.9354 66.9972 61.8867 66.9901 61.8358C66.9834 61.7889 66.9834 61.7413 66.9901 61.6944V61.6015L67.1094 60.828C67.1845 60.3065 67.2464 59.7849 67.295 59.2545C67.3437 58.7241 67.3834 58.1893 67.3923 57.6545C67.4182 57.125 67.3645 56.5946 67.2332 56.081C67.2027 55.9506 67.1236 55.8368 67.0122 55.7627C66.9589 55.7456 66.9015 55.7458 66.8483 55.7632C66.7951 55.7807 66.7488 55.8146 66.716 55.86C66.5729 56.1216 66.5142 56.4211 66.5481 56.7174C66.4508 57.7561 66.3403 58.7772 66.19 59.7805C66.1149 60.28 66.0309 60.7794 65.9072 61.27C65.8718 61.3894 65.8364 61.5131 65.7922 61.6369C65.7502 61.7869 65.6621 61.9199 65.5403 62.017C65.4865 62.0435 65.4252 62.0509 65.3666 62.038C65.308 62.0252 65.2555 61.9928 65.2176 61.9463C65.1637 61.8896 65.1229 61.8217 65.0983 61.7474C65.0506 61.6248 65.0165 61.4973 64.9966 61.3673C64.8931 60.4054 64.8842 59.4358 64.9701 58.4722C65.0354 58.023 65.0606 57.5689 65.0453 57.1152C65.031 56.9216 64.9423 56.741 64.7977 56.6114C64.7638 56.5903 64.7259 56.5763 64.6864 56.5702C64.6469 56.5641 64.6066 56.5661 64.5679 56.576C64.5266 56.5899 64.4866 56.6077 64.4486 56.629C64.4088 56.6644 64.4132 56.629 64.3867 56.7042C64.2268 57.1017 64.1098 57.5151 64.0375 57.9374C63.9491 58.3794 63.874 58.7816 63.8077 59.1971C63.7414 59.6125 63.6795 60.0192 63.6265 60.4258C63.5734 60.8325 63.5469 61.2303 63.4673 61.6281C63.3986 62.0167 63.2951 62.3984 63.1579 62.7684C63.1215 62.8626 63.0787 62.9542 63.0297 63.0425C62.9679 63.1264 62.9325 63.2325 62.7645 63.2856C62.7216 63.2935 62.6772 63.2884 62.6371 63.2711C62.597 63.2538 62.5629 63.225 62.5391 63.1883C62.5082 63.1373 62.4844 63.0823 62.4684 63.0248C62.4485 62.9287 62.4367 62.8311 62.433 62.7331C62.433 61.9772 62.5347 61.2877 62.5745 60.6203C62.6033 60.3012 62.6033 59.9802 62.5745 59.6612C62.5745 59.5197 62.5082 59.3518 62.4286 59.3208C62.3729 59.2935 62.3117 59.2793 62.2496 59.2793C62.1876 59.2793 62.1263 59.2935 62.0706 59.3208C61.8851 59.5201 61.7702 59.7748 61.7435 60.0457C61.6772 60.3153 61.6507 60.5894 61.6021 60.8501C61.4164 61.8933 61.222 62.7949 61.1291 63.5287C61.0856 63.8513 61.0856 64.1784 61.1291 64.5011C61.191 64.7663 61.2838 65.0049 61.3325 65.1906C61.3811 65.3762 61.4297 65.5088 61.4606 65.6326C61.4771 65.68 61.4889 65.7288 61.496 65.7784C61.4695 65.7357 61.4487 65.6896 61.4341 65.6414L61.2838 65.1994C61.222 65.0094 61.1291 64.7972 61.054 64.5055C61.0067 64.1742 61.0067 63.8379 61.054 63.5066C61.138 62.7596 61.3148 61.8667 61.496 60.8192C61.5446 60.5584 61.5711 60.2844 61.6286 60.0015C61.6603 59.8521 61.7001 59.7045 61.748 59.5595C61.7921 59.3987 61.8885 59.2572 62.022 59.1573C62.1023 59.1147 62.1919 59.0925 62.2828 59.0925C62.3737 59.0925 62.4632 59.1147 62.5435 59.1573C62.63 59.2118 62.701 59.2875 62.7497 59.3773C62.7985 59.4671 62.8234 59.5678 62.822 59.67C62.853 60.0023 62.853 60.3367 62.822 60.6689C62.7911 61.3408 62.685 62.0435 62.7027 62.7596C62.7059 62.8443 62.7162 62.9286 62.7336 63.0115C62.7336 63.0955 62.7955 63.1309 62.7866 63.1132C62.7778 63.0955 62.8706 63.0425 62.906 62.9717C62.9496 62.8933 62.988 62.8121 63.0209 62.7286C63.1518 62.3704 63.248 62.0003 63.3082 61.6236C63.3833 61.2391 63.4099 60.8413 63.4629 60.4302C63.5159 60.0192 63.569 59.6125 63.6353 59.1926C63.7016 58.7727 63.7767 58.3528 63.8607 57.9241C63.9326 57.4763 64.0572 57.0387 64.232 56.6202C64.2673 56.55 64.3207 56.4905 64.3867 56.4478C64.4454 56.4156 64.5077 56.3904 64.5723 56.3727C64.6465 56.3515 64.7243 56.3464 64.8005 56.3579C64.8768 56.3693 64.9497 56.397 65.0143 56.439C65.1169 56.5204 65.2016 56.6221 65.2632 56.7377C65.3248 56.8533 65.3619 56.9803 65.3723 57.1108C65.4055 57.3513 65.4055 57.5952 65.3723 57.8357C65.3502 58.0611 65.3281 58.2777 65.3149 58.5252C65.2288 59.4667 65.2376 60.4144 65.3414 61.354C65.3603 61.4656 65.3899 61.5752 65.4298 61.6811C65.4431 61.7239 65.4657 61.7631 65.4961 61.796C65.4961 61.796 65.4961 61.796 65.5182 61.796C65.5182 61.8977 65.5182 61.796 65.5182 61.8358C65.5182 61.8756 65.5182 61.8358 65.5182 61.8004C65.5733 61.7266 65.6166 61.6446 65.6464 61.5573C65.6876 61.4483 65.723 61.3334 65.7525 61.2126C65.8718 60.7441 65.9514 60.249 66.0265 59.754C66.1768 58.7595 66.2873 57.7385 66.3801 56.7042V56.7263C66.3408 56.362 66.4198 55.9947 66.6055 55.6787C66.6764 55.5885 66.7737 55.5225 66.8838 55.49C66.9939 55.4575 67.1114 55.4602 67.2199 55.4975C67.3126 55.549 67.394 55.6185 67.4593 55.702C67.5246 55.7856 67.5725 55.8813 67.6 55.9837C67.7416 56.5272 67.7997 57.0891 67.7724 57.6501C67.7724 58.1981 67.7238 58.7374 67.6752 59.2722C67.6265 59.807 67.5602 60.333 67.4851 60.8546C67.4453 61.1198 67.4055 61.3761 67.3658 61.6369C67.3304 61.8004 67.3392 61.8049 67.3658 61.8535C67.3964 61.8742 67.4326 61.8853 67.4696 61.8853C67.5067 61.8853 67.5428 61.8742 67.5735 61.8535C67.6265 61.8137 67.6354 61.7386 67.6486 61.5927L67.6796 61.2082L67.7591 60.4435C67.8122 59.9396 67.8829 59.4357 67.9669 58.9451C68.0487 58.4523 68.1669 57.9663 68.3205 57.4909C68.4007 57.2507 68.509 57.0207 68.6431 56.8058C68.7162 56.69 68.8125 56.5907 68.926 56.5141C68.989 56.4685 69.062 56.4387 69.139 56.4272C69.2159 56.4156 69.2944 56.4227 69.368 56.4478C69.4357 56.4896 69.4929 56.5464 69.5351 56.6139C69.5772 56.6813 69.6033 56.7576 69.6111 56.8368C69.6294 56.9611 69.6368 57.0868 69.6332 57.2125C69.6332 57.4556 69.6023 57.6898 69.5758 57.9241C69.5139 58.3661 69.4299 58.8346 69.3503 59.281C69.1605 60.1207 69.0685 60.9794 69.0763 61.8402C69.0888 61.9326 69.1125 62.0232 69.147 62.1098C69.1631 62.1412 69.1823 62.1708 69.2045 62.1982C69.2045 62.1982 69.2045 62.1982 69.2045 62.1673C69.3037 62.0075 69.3768 61.833 69.4211 61.6502C69.536 61.2656 69.6288 60.8767 69.7305 60.4965C69.8216 60.1183 69.9323 59.7451 70.062 59.3783C70.1232 59.1966 70.2032 59.0218 70.3006 58.8567C70.3534 58.7667 70.4223 58.6873 70.504 58.6225C70.5484 58.5839 70.6015 58.5566 70.6587 58.5429C70.7158 58.534 70.7739 58.534 70.831 58.5429C70.8914 58.5489 70.949 58.5709 70.9979 58.6067C71.0469 58.6424 71.0854 58.6906 71.1095 58.7462C71.1464 58.8391 71.1659 58.938 71.167 59.0379C71.1704 59.2167 71.1601 59.3955 71.136 59.5728C71.0962 59.9175 71.0299 60.2446 70.9681 60.5673C70.8399 61.1993 70.6984 61.8004 70.5261 62.3353C70.1946 63.4314 69.8631 64.3596 69.5934 65.1154C69.3238 65.8713 69.094 66.4414 68.9393 66.8481C68.8641 67.0337 68.8023 67.1796 68.7581 67.2901C68.7383 67.3624 68.7101 67.4321 68.6741 67.4978Z" fill="#EB996E"/>
<path d="M44.5452 79.9534C45.385 82.9192 47.0292 87.4939 48.7928 92.3294C48.8484 92.4852 48.949 92.621 49.0818 92.7195C49.2146 92.8181 49.3737 92.875 49.5389 92.883C49.7041 92.8911 49.868 92.8499 50.0098 92.7647C50.1516 92.6795 50.2649 92.5542 50.3354 92.4045L54.6581 83.2596C54.6581 83.2596 53.615 75.7456 53.7034 76.0152C53.7918 76.2848 44.7838 76.9876 44.7838 76.9876L44.5452 79.9534Z" fill="#F3802D"/>
<path d="M54.287 78.4815C54.287 78.5169 53.7478 78.676 52.8947 79.0031C51.7799 79.4263 50.7058 79.95 49.6858 80.5678C48.6672 81.1884 47.7057 81.8984 46.8128 82.6894C46.1277 83.2949 45.7343 83.7104 45.7078 83.6839C45.6813 83.6573 45.7829 83.5601 45.9509 83.3612C46.1877 83.0848 46.4385 82.8207 46.7023 82.57C47.5735 81.7311 48.534 80.99 49.5665 80.36C50.5992 79.7377 51.6958 79.228 52.8373 78.8395C53.1823 78.7207 53.5335 78.6203 53.8892 78.539C54.0179 78.4987 54.1522 78.4793 54.287 78.4815Z" fill="#FAFAFA"/>
<path d="M56.002 80.7622C55.7211 80.4791 55.4775 80.1612 55.2771 79.8164C54.7609 79.0116 54.3172 78.1625 53.9511 77.2793C53.5848 76.3934 53.2993 75.4762 53.0981 74.5389C52.9951 74.1555 52.943 73.7602 52.9434 73.3632C53.0752 73.7338 53.1801 74.1134 53.2572 74.4991C53.494 75.4143 53.7892 76.3135 54.1412 77.1909C54.5089 78.0637 54.9311 78.9125 55.4053 79.7324C55.626 80.0625 55.8253 80.4065 56.002 80.7622Z" fill="#393E4B"/>
<path d="M58.8837 40.2662C58.1338 41.5021 57.669 42.8897 57.5229 44.3279C57.3769 45.7661 57.5533 47.2188 58.0395 48.5802C58.4815 49.7957 59.1887 50.9936 59.0605 52.2842C58.9323 53.5748 57.9246 54.8522 58.2782 56.1252C58.4903 56.881 59.1356 57.4512 59.3876 58.1849C59.6749 59.0689 59.3876 60.0015 59.2329 60.9076C58.8793 63.2237 59.6218 65.553 59.8031 67.8868C59.9843 70.2205 59.3611 72.9565 57.2748 73.9731C56.6428 74.2825 55.8162 74.3709 55.2902 73.898C54.6184 73.3013 54.804 72.2228 54.9897 71.3388C56.8196 62.4988 51.1664 53.871 52.457 44.9249C52.6648 43.4928 53.4648 41.0618 54.4946 40.0629C55.5245 39.064 58.3842 39.1789 59.3566 40.2397" fill="#393E4B"/>
<path d="M50.1763 65.9111C50.1763 65.9111 50.4459 65.5928 50.8437 64.9652C51.4019 64.0788 51.7929 63.0975 51.9973 62.0701C52.1307 61.3623 52.1767 60.6409 52.1343 59.922C52.057 59.086 52.026 58.2464 52.0415 57.407C52.0679 56.9473 52.1525 56.4928 52.2934 56.0545C52.455 55.6029 52.6592 55.1677 52.9034 54.755C53.3984 53.9196 54.0217 53.1417 54.5963 52.3107C55.1863 51.5254 55.5967 50.6201 55.7985 49.6587C55.8965 48.7532 55.8442 47.8377 55.6438 46.9493C55.4766 46.1235 55.4113 45.2804 55.4493 44.4387C55.5019 43.7035 55.6505 42.9784 55.8913 42.2817C56.229 41.2709 56.7604 40.3355 57.456 39.5281C57.6408 39.3086 57.8417 39.1032 58.0571 38.9137C58.1254 38.8409 58.2027 38.777 58.287 38.7236C58.287 38.7236 57.9908 39.0109 57.5223 39.6076C56.4064 40.9928 55.7539 42.6935 55.6571 44.4696C55.6275 45.2975 55.7002 46.1259 55.8736 46.936C56.0845 47.8483 56.1413 48.7895 56.0416 49.7206C55.8321 50.7087 55.4098 51.6394 54.804 52.4477C54.225 53.292 53.6018 54.0655 53.1156 54.8787C52.8764 55.2762 52.678 55.6967 52.5233 56.134C52.3835 56.5545 52.2988 56.9913 52.2713 57.4335C52.2518 58.2636 52.2754 59.0943 52.3421 59.922C52.3772 60.6554 52.3207 61.3904 52.1741 62.1099C51.9526 63.1513 51.5324 64.1403 50.9365 65.0226C50.7752 65.2612 50.598 65.4886 50.4061 65.7033C50.3373 65.7808 50.2603 65.8504 50.1763 65.9111Z" fill="#455A64"/>
<path d="M45.9861 66.5696C46.0217 66.4666 46.0676 66.3674 46.1231 66.2735C46.2336 66.0658 46.375 65.7917 46.5651 65.447C46.9364 64.7265 47.4889 63.679 48.0325 62.353C48.6976 60.8043 49.0664 59.1446 49.1199 57.46C49.1201 56.9747 49.0832 56.49 49.0094 56.0103C48.9342 55.5152 48.8193 55.0158 48.7442 54.4942C48.6522 53.9547 48.6642 53.4026 48.7795 52.8676C48.929 52.3184 49.2364 51.8251 49.6635 51.4488C50.4945 50.693 51.4978 50.198 52.0194 49.3095C52.4713 48.4286 52.7375 47.4643 52.8017 46.4763C52.8953 45.5706 53.1001 44.6799 53.4117 43.8243C54.1123 41.9876 55.3606 40.4106 56.9875 39.3071C57.2468 39.1325 57.517 38.9745 57.7963 38.8341C57.8906 38.7777 57.9916 38.7331 58.0969 38.7015C58.0969 38.7015 57.6991 38.9137 57.0405 39.3822C56.1123 40.0446 55.3087 40.8662 54.667 41.8088C54.2219 42.455 53.8596 43.1544 53.5885 43.8906C53.2906 44.7482 53.0977 45.6387 53.0139 46.5426C52.8813 47.4841 52.7752 48.536 52.2094 49.4687C51.6437 50.4013 50.6094 50.9317 49.8182 51.6787C49.415 52.0285 49.1244 52.4899 48.9828 53.0047C48.8754 53.5108 48.8649 54.0328 48.9519 54.5428C49.0226 55.0511 49.1331 55.555 49.2083 56.0545C49.2847 56.5457 49.3202 57.0425 49.3143 57.5396C49.2543 59.255 48.8657 60.943 48.1696 62.5121C47.7174 63.5724 47.2038 64.6055 46.6314 65.6061L46.1629 66.3C46.1136 66.3959 46.0544 66.4863 45.9861 66.5696Z" fill="#455A64"/>
<path d="M192.226 191.466C192.247 191.401 192.274 191.339 192.306 191.28C192.368 191.147 192.452 190.971 192.554 190.745C192.861 190.055 193.108 189.339 193.292 188.606C193.778 186.705 193.95 183.801 193.23 180.354C192.839 178.474 192.326 176.621 191.696 174.807C191.051 172.84 190.295 170.753 189.681 168.495C188.987 166.139 188.652 163.693 188.686 161.237C188.779 158.669 189.539 156.11 190.375 153.555C191.21 151 192.072 148.512 192.328 145.993C192.613 143.577 192.127 141.132 190.94 139.009C189.835 136.971 188.443 135.225 187.404 133.422C186.432 131.746 185.715 129.935 185.278 128.047C184.651 125.315 184.604 122.481 185.141 119.729C185.337 118.722 185.633 117.737 186.025 116.79C186.013 116.856 185.996 116.921 185.972 116.984L185.795 117.545C185.645 118.041 185.446 118.783 185.256 119.755C184.762 122.495 184.836 125.307 185.473 128.016C185.916 129.881 186.636 131.669 187.608 133.32C188.646 135.088 190.043 136.856 191.175 138.903C192.391 141.069 192.89 143.565 192.602 146.032C192.341 148.587 191.475 151.102 190.64 153.652C189.804 156.203 189.053 158.735 188.96 161.259C188.921 163.69 189.248 166.113 189.933 168.446C190.538 170.692 191.281 172.778 191.922 174.754C192.546 176.577 193.048 178.441 193.424 180.332C194.127 183.806 193.928 186.741 193.424 188.646C193.227 189.38 192.962 190.095 192.633 190.78L192.359 191.306C192.321 191.364 192.277 191.418 192.226 191.466Z" fill="#393E4B"/>
<path d="M188.818 135.203C188.818 135.203 186.706 128.436 190.498 124.476C190.528 124.444 190.565 124.421 190.607 124.409C190.649 124.398 190.693 124.398 190.735 124.41C190.776 124.422 190.814 124.445 190.843 124.477C190.872 124.509 190.892 124.548 190.9 124.591C191.104 125.709 191.356 129.113 188.818 135.203Z" fill="#F3802D"/>
<path d="M190.087 126.73C190.08 127.149 190.033 127.567 189.946 127.977C189.804 128.839 189.641 129.846 189.464 130.96C189.287 132.074 189.124 133.086 188.987 133.944C188.948 134.362 188.874 134.776 188.766 135.181C188.724 134.763 188.733 134.342 188.792 133.926C188.863 133.152 189 132.092 189.19 130.925C189.38 129.758 189.588 128.715 189.751 127.95C189.816 127.532 189.928 127.123 190.087 126.73Z" fill="#393E4B"/>
<path d="M191.303 151.164C191.303 151.164 192.598 144.194 197.805 142.47C197.846 142.456 197.89 142.453 197.932 142.462C197.975 142.472 198.014 142.493 198.045 142.523C198.076 142.553 198.098 142.592 198.109 142.634C198.12 142.676 198.118 142.72 198.105 142.762C197.76 143.836 196.395 146.961 191.303 151.164Z" fill="#F3802D"/>
<path d="M196.386 144.26C196.184 144.628 195.947 144.976 195.678 145.299L193.853 147.708L192.041 150.125C191.813 150.476 191.554 150.806 191.267 151.111C191.429 150.722 191.637 150.354 191.886 150.015C192.328 149.365 192.929 148.49 193.654 147.548C194.379 146.607 195.038 145.78 195.537 145.179C195.785 144.843 196.07 144.534 196.386 144.26Z" fill="#393E4B"/>
<path d="M189.897 168.636C189.897 168.636 189.11 161.591 193.592 158.431C193.627 158.404 193.668 158.387 193.712 158.383C193.756 158.379 193.8 158.387 193.839 158.407C193.878 158.427 193.91 158.458 193.932 158.496C193.954 158.533 193.965 158.577 193.964 158.621C193.95 159.757 193.548 163.142 189.897 168.636Z" fill="#F3802D"/>
<path d="M192.77 160.561C192.688 160.972 192.562 161.374 192.394 161.759L191.351 164.596C190.962 165.657 190.613 166.616 190.317 167.434C190.204 167.836 190.056 168.228 189.875 168.605C189.916 168.186 190.008 167.773 190.149 167.377C190.366 166.634 190.702 165.609 191.113 164.504C191.524 163.399 191.926 162.404 192.231 161.692C192.372 161.298 192.552 160.919 192.77 160.561Z" fill="#393E4B"/>
<path d="M193.818 186.219C193.818 186.219 193.287 179.147 197.875 176.15C197.911 176.126 197.953 176.111 197.997 176.109C198.04 176.107 198.083 176.117 198.121 176.138C198.16 176.159 198.191 176.191 198.212 176.229C198.234 176.267 198.244 176.31 198.242 176.354C198.189 177.49 197.667 180.862 193.818 186.219Z" fill="#F3802D"/>
<path d="M196.965 178.254C196.866 178.662 196.725 179.059 196.545 179.439C196.218 180.243 195.829 181.207 195.4 182.237C194.971 183.266 194.596 184.226 194.269 185.034C194.138 185.433 193.97 185.82 193.769 186.188C193.828 185.77 193.936 185.361 194.092 184.968C194.335 184.234 194.706 183.227 195.157 182.135C195.608 181.043 196.041 180.062 196.372 179.364C196.53 178.974 196.728 178.602 196.965 178.254Z" fill="#393E4B"/>
<path d="M185.778 129.259C185.778 129.259 179.51 125.97 179.373 120.494C179.373 120.451 179.384 120.408 179.406 120.371C179.427 120.334 179.458 120.304 179.496 120.283C179.534 120.262 179.576 120.252 179.619 120.253C179.662 120.254 179.704 120.267 179.74 120.29C180.673 120.936 183.263 123.163 185.778 129.259Z" fill="#F3802D"/>
<path d="M180.677 122.377C180.971 122.677 181.233 123.007 181.459 123.362C181.972 124.065 182.569 124.896 183.227 125.811L184.995 128.251C185.265 128.572 185.504 128.916 185.711 129.281C185.388 129.012 185.099 128.704 184.849 128.366C184.35 127.773 183.696 126.925 183.006 125.966C182.317 125.006 181.711 124.118 181.296 123.468C181.052 123.127 180.845 122.761 180.677 122.377Z" fill="#393E4B"/>
<path d="M192.527 143.787C192.527 143.787 186.056 140.892 185.601 135.424C185.597 135.381 185.606 135.338 185.625 135.3C185.644 135.261 185.674 135.229 185.71 135.206C185.747 135.183 185.789 135.171 185.832 135.17C185.875 135.17 185.918 135.181 185.955 135.203C186.923 135.791 189.641 137.851 192.527 143.787Z" fill="#F3802D"/>
<path d="M187.024 137.228C187.336 137.508 187.617 137.821 187.864 138.16L189.782 140.499L191.705 142.828C191.993 143.133 192.253 143.463 192.483 143.814C192.144 143.563 191.835 143.274 191.564 142.952C191.033 142.386 190.326 141.581 189.579 140.666C188.832 139.752 188.178 138.898 187.718 138.275C187.449 137.953 187.216 137.601 187.024 137.228Z" fill="#393E4B"/>
<path d="M188.792 160.004C188.792 160.004 184.372 154.479 186.436 149.396C186.453 149.356 186.48 149.321 186.514 149.296C186.549 149.27 186.59 149.255 186.633 149.251C186.676 149.248 186.719 149.256 186.758 149.275C186.796 149.295 186.829 149.324 186.852 149.361C187.466 150.32 188.938 153.396 188.792 160.004Z" fill="#F3802D"/>
<path d="M186.883 151.641C187.034 152.034 187.143 152.441 187.21 152.857C187.395 153.705 187.612 154.704 187.851 155.809C188.089 156.914 188.315 157.909 188.5 158.758C188.619 159.16 188.7 159.573 188.744 159.991C188.549 159.615 188.401 159.217 188.302 158.806C188.085 158.059 187.82 157.038 187.572 155.862C187.325 154.687 187.13 153.652 187.006 152.892C186.92 152.481 186.878 152.062 186.883 151.641Z" fill="#393E4B"/>
<path d="M193.212 179.059C193.212 179.059 186.79 176.057 186.427 170.585C186.423 170.542 186.431 170.498 186.451 170.459C186.47 170.419 186.5 170.386 186.537 170.363C186.575 170.34 186.618 170.328 186.662 170.328C186.705 170.329 186.748 170.341 186.785 170.364C187.736 170.97 190.419 173.078 193.212 179.059Z" fill="#F3802D"/>
<path d="M187.806 172.406C188.11 172.696 188.385 173.015 188.629 173.357L190.507 175.721L192.39 178.086C192.673 178.395 192.928 178.73 193.15 179.085C192.821 178.827 192.524 178.53 192.266 178.201C191.74 177.627 191.051 176.809 190.317 175.881C189.583 174.952 188.947 174.091 188.496 173.458C188.226 173.136 187.995 172.783 187.806 172.406Z" fill="#393E4B"/>
<path d="M205.99 151.195C205.99 151.195 205.99 151.248 205.99 151.35C205.99 151.451 205.99 151.619 205.99 151.792C205.99 152.234 205.946 152.795 205.915 153.511C205.836 155.023 205.716 157.131 205.579 159.65C205.137 162.214 203.811 165.056 202.043 167.819C200.757 169.852 199.391 171.699 198.242 173.419C197.193 174.928 196.251 176.508 195.422 178.148C194.873 179.256 194.43 180.414 194.096 181.605C193.986 182.024 193.897 182.356 193.849 182.581C193.828 182.699 193.797 182.814 193.756 182.926C193.757 182.807 193.772 182.688 193.8 182.573C193.831 182.343 193.897 182.007 193.999 181.578C194.296 180.366 194.719 179.189 195.259 178.064C196.08 176.411 197.021 174.82 198.074 173.304C199.232 171.571 200.571 169.719 201.853 167.699C203.599 164.95 204.899 162.152 205.389 159.628C205.566 157.113 205.712 155.009 205.831 153.498C205.889 152.782 205.937 152.212 205.973 151.783C205.973 151.606 206.004 151.456 206.017 151.341C206.002 151.294 205.993 151.244 205.99 151.195Z" fill="#393E4B"/>
<path d="M202.167 167.31C202.167 167.31 204.885 160.769 201.469 156.477C201.442 156.442 201.406 156.416 201.366 156.401C201.325 156.385 201.281 156.382 201.238 156.39C201.196 156.398 201.156 156.418 201.124 156.447C201.092 156.477 201.069 156.515 201.057 156.556C200.753 157.653 200.191 161.016 202.167 167.31Z" fill="#F3802D"/>
<path d="M201.672 158.762C201.789 159.165 201.862 159.58 201.888 160C201.986 160.769 202.092 161.834 202.176 163.014C202.26 164.194 202.3 165.264 202.3 166.042C202.326 166.462 202.301 166.883 202.224 167.297C202.148 166.884 202.111 166.466 202.114 166.046C202.056 165.162 201.986 164.159 201.911 163.032C201.835 161.905 201.765 160.884 201.703 160.017C201.651 159.601 201.641 159.18 201.672 158.762Z" fill="#393E4B"/>
<g opacity="0.3">
<path d="M202.167 167.31C202.167 167.31 204.885 160.769 201.469 156.477C201.442 156.442 201.406 156.416 201.366 156.401C201.325 156.385 201.281 156.382 201.238 156.39C201.196 156.398 201.156 156.418 201.124 156.447C201.092 156.477 201.069 156.515 201.057 156.556C200.753 157.653 200.191 161.016 202.167 167.31Z" fill="black"/>
</g>
<path d="M193.747 183.085C193.747 183.085 195.926 176.34 192.169 172.345C192.14 172.313 192.103 172.29 192.061 172.278C192.02 172.266 191.976 172.265 191.934 172.277C191.893 172.288 191.855 172.311 191.825 172.342C191.796 172.374 191.776 172.413 191.767 172.455C191.555 173.569 191.267 176.972 193.747 183.085Z" fill="#F3802D"/>
<path d="M192.558 174.59C192.711 174.983 192.818 175.392 192.876 175.81C193.035 176.566 193.225 177.622 193.407 178.789C193.588 179.956 193.711 181.021 193.778 181.795C193.835 182.212 193.843 182.635 193.8 183.054C193.695 182.648 193.624 182.234 193.588 181.817C193.46 180.955 193.309 179.947 193.146 178.829C192.982 177.711 192.823 176.703 192.704 175.841C192.614 175.43 192.565 175.011 192.558 174.59Z" fill="#393E4B"/>
<g opacity="0.3">
<path d="M193.747 183.085C193.747 183.085 195.926 176.34 192.169 172.345C192.14 172.313 192.103 172.29 192.061 172.278C192.02 172.266 191.976 172.265 191.934 172.277C191.893 172.288 191.855 172.311 191.825 172.342C191.796 172.374 191.776 172.413 191.767 172.455C191.555 173.569 191.267 176.972 193.747 183.085Z" fill="black"/>
</g>
<path d="M205.632 159.314C205.632 159.314 211.436 155.248 210.852 149.794C210.848 149.751 210.832 149.71 210.805 149.676C210.779 149.642 210.744 149.615 210.704 149.6C210.664 149.584 210.62 149.58 210.577 149.588C210.535 149.596 210.496 149.615 210.463 149.644C209.619 150.404 207.356 152.932 205.632 159.314Z" fill="#F3802D"/>
<g opacity="0.3">
<path d="M205.632 159.314C205.632 159.314 211.436 155.248 210.852 149.794C210.848 149.751 210.832 149.71 210.805 149.676C210.779 149.642 210.744 149.615 210.704 149.6C210.664 149.584 210.62 149.58 210.577 149.588C210.535 149.596 210.496 149.615 210.463 149.644C209.619 150.404 207.356 152.932 205.632 159.314Z" fill="black"/>
</g>
<path d="M209.8 151.831C209.685 152.236 209.523 152.626 209.319 152.994C208.987 153.692 208.505 154.647 207.944 155.69C207.383 156.733 206.843 157.657 206.428 158.311C206.223 158.678 205.976 159.02 205.69 159.328C205.845 158.939 206.037 158.566 206.264 158.214C206.68 157.449 207.17 156.556 207.71 155.562L209.151 152.91C209.331 152.53 209.549 152.169 209.8 151.831Z" fill="#393E4B"/>
<path d="M196.09 176.398C196.09 176.398 203.091 175.306 204.965 170.152C204.98 170.112 204.984 170.069 204.976 170.026C204.968 169.984 204.949 169.945 204.92 169.913C204.891 169.881 204.854 169.858 204.813 169.845C204.772 169.833 204.728 169.832 204.686 169.843C203.595 170.17 200.43 171.43 196.09 176.398Z" fill="#F3802D"/>
<g opacity="0.3">
<path d="M196.09 176.398C196.09 176.398 203.091 175.306 204.965 170.152C204.98 170.112 204.984 170.069 204.976 170.026C204.968 169.984 204.949 169.945 204.92 169.913C204.891 169.881 204.854 169.858 204.813 169.845C204.772 169.833 204.728 169.832 204.686 169.843C203.595 170.17 200.43 171.43 196.09 176.398Z" fill="black"/>
</g>
<path d="M203.126 171.518C202.843 171.828 202.525 172.105 202.18 172.345C201.575 172.831 200.722 173.476 199.763 174.166C198.803 174.855 197.906 175.443 197.243 175.85C196.898 176.091 196.523 176.288 196.129 176.438C196.443 176.158 196.782 175.908 197.142 175.691L199.608 173.949L202.07 172.181C202.397 171.923 202.752 171.701 203.126 171.518Z" fill="#393E4B"/>
<path d="M189.407 189.286L187.365 203.033H200.094L198.445 189.286H189.407Z" fill="#455A64"/>
<path d="M198.958 193.543C198.958 193.618 196.66 193.676 193.826 193.676C190.993 193.676 188.69 193.618 188.69 193.543C190.399 193.412 192.113 193.368 193.826 193.41C195.538 193.368 197.251 193.412 198.958 193.543Z" fill="#393E4B"/>
<path d="M199.206 194.639C199.206 194.714 196.832 194.772 193.902 194.772C190.971 194.772 188.598 194.714 188.598 194.639C188.598 194.564 190.971 194.507 193.902 194.507C196.832 194.507 199.206 194.564 199.206 194.639Z" fill="#393E4B"/>
<path d="M149.706 55.9307C149.706 55.9307 149.587 55.9307 149.357 55.9307C149.021 55.9107 148.685 55.9107 148.349 55.9307C147.051 56.0067 145.775 56.3057 144.579 56.8147C142.682 57.6098 141.031 58.8959 139.796 60.5407C139.035 61.5678 138.469 62.7259 138.126 63.9574C137.352 66.891 137.77 70.0115 139.288 72.6383C139.702 73.3655 140.207 74.0369 140.791 74.6361C141.38 75.271 142.066 75.8081 142.824 76.2273C143.602 76.6649 144.482 76.8862 145.374 76.8682C146.294 76.8572 147.176 76.5006 147.845 75.8693C148.169 75.5304 148.422 75.1312 148.591 74.6944C148.76 74.2575 148.842 73.7917 148.831 73.3234C148.824 72.3504 148.515 71.4036 147.947 70.6139C146.802 69.0006 144.946 67.9177 142.97 67.3343C140.921 66.7589 138.758 66.7284 136.694 67.2459C135.64 67.52 134.624 67.9238 133.67 68.4481C132.707 68.9917 131.832 69.6788 131.076 70.4857C130.894 70.6935 130.687 70.8835 130.523 71.1134L130.024 71.7852C129.72 72.2586 129.448 72.7518 129.21 73.2615C128.738 74.2963 128.415 75.3932 128.251 76.519C127.93 78.7683 128.236 81.0624 129.135 83.149C129.995 85.1879 131.491 86.8937 133.401 88.011C134.327 88.5401 135.36 88.8528 136.424 88.926C137.467 88.9843 138.504 88.7354 139.407 88.2099C140.304 87.7146 141.012 86.9379 141.423 85.9999C141.811 85.0755 141.837 84.0393 141.498 83.096C141.149 82.1859 140.577 81.3776 139.836 80.7446C139.117 80.1232 138.288 79.6419 137.392 79.3257C135.644 78.7747 133.774 78.7424 132.008 79.2329C130.356 79.6806 128.839 80.5258 127.588 81.6949C126.449 82.7859 125.582 84.1287 125.056 85.6154C124.135 88.1951 124.177 91.0205 125.175 93.5714C125.953 95.4757 127.205 97.1494 128.813 98.4334C129.825 99.2455 130.953 99.9024 132.159 100.383C132.574 100.537 132.897 100.652 133.118 100.714L133.445 100.82C133.445 100.82 133.33 100.798 133.109 100.736C132.782 100.649 132.461 100.544 132.145 100.422C130.924 99.9633 129.781 99.3161 128.76 98.5041C127.125 97.2211 125.848 95.5391 125.051 93.62C124.036 91.045 123.984 88.1901 124.905 85.58C125.433 84.0707 126.31 82.7076 127.465 81.602C128.733 80.4096 130.273 79.5447 131.951 79.0826C133.754 78.5797 135.664 78.6104 137.449 79.171C138.372 79.4928 139.225 79.9862 139.964 80.6252C140.735 81.279 141.328 82.1167 141.688 83.0606C142.052 84.0461 142.036 85.1315 141.644 86.106C141.208 87.0809 140.468 87.8888 139.536 88.4088C138.599 88.9546 137.524 89.2157 136.442 89.1602C135.352 89.0842 134.294 88.7607 133.348 88.2144C131.394 87.0814 129.861 85.3461 128.976 83.2684C128.058 81.1435 127.743 78.8068 128.066 76.5146C128.234 75.366 128.565 74.2469 129.047 73.1908C129.29 72.6703 129.567 72.1667 129.878 71.6836L130.391 70.9985C130.554 70.7642 130.766 70.5565 130.952 70.3531C131.726 69.5309 132.62 68.8305 133.604 68.2757C134.58 67.7414 135.62 67.3316 136.698 67.0558C138.801 66.5287 141.006 66.5607 143.094 67.1486C145.109 67.7498 146.997 68.8503 148.186 70.5211C148.783 71.3438 149.108 72.3331 149.114 73.3499C149.135 74.3506 148.758 75.3188 148.066 76.0417C147.359 76.7055 146.428 77.0794 145.458 77.0892C144.53 77.1103 143.614 76.8796 142.806 76.4218C142.03 75.9937 141.329 75.4429 140.729 74.7908C140.137 74.1782 139.625 73.4936 139.204 72.7532C137.659 70.0777 137.239 66.8981 138.037 63.9132C138.391 62.6674 138.971 61.4973 139.748 60.4612C141.005 58.8039 142.684 57.5141 144.61 56.7263C145.816 56.2271 147.102 55.9458 148.407 55.8953C148.745 55.873 149.085 55.873 149.423 55.8953L149.706 55.9307Z" fill="#393E4B"/>
<path d="M164.464 100.157H102.491V147.955H164.464V100.157Z" fill="#F3802D"/>
<path d="M102.491 100.157L113.939 110.836H174.86L164.464 100.157H102.491Z" fill="#F3802D"/>
<path d="M102.491 100.157L164.482 100.047H164.531L164.566 100.078L174.856 110.646L174.962 110.756L175.152 110.951H174.878L113.957 110.902H113.93L102.491 100.157L113.983 110.765H113.935L174.856 110.721L174.776 110.915L174.666 110.805L164.38 100.237L164.46 100.272L102.491 100.157Z" fill="#393E4B"/>
<path d="M121.108 122.2C120.773 122.212 120.455 122.355 120.224 122.599C119.993 122.843 119.867 123.168 119.873 123.504C119.879 123.84 120.017 124.16 120.257 124.395C120.496 124.631 120.819 124.762 121.155 124.762C121.491 124.762 121.813 124.631 122.053 124.395C122.293 124.16 122.43 123.84 122.436 123.504C122.443 123.168 122.316 122.843 122.085 122.599C121.854 122.355 121.537 122.212 121.201 122.2" fill="#393E4B"/>
<path d="M135.752 122.2C135.418 122.212 135.102 122.356 134.872 122.599C134.642 122.842 134.517 123.166 134.523 123.5C134.53 123.835 134.667 124.154 134.906 124.388C135.145 124.622 135.466 124.754 135.801 124.754C136.135 124.754 136.456 124.622 136.695 124.388C136.934 124.154 137.071 123.835 137.078 123.5C137.084 123.166 136.959 122.842 136.729 122.599C136.5 122.356 136.184 122.212 135.849 122.2" fill="#393E4B"/>
<path d="M135.836 133.639C135.581 132.662 135.165 131.735 134.607 130.894C133.987 129.994 133.19 129.231 132.265 128.648C131.149 127.908 129.847 127.496 128.509 127.459C127.17 127.422 125.848 127.763 124.693 128.441C123.74 128.973 122.902 129.692 122.231 130.554C121.627 131.363 121.162 132.269 120.857 133.232C120.86 133.16 120.872 133.089 120.892 133.02C120.934 132.821 120.989 132.624 121.056 132.432C121.298 131.722 121.651 131.055 122.103 130.456C122.769 129.554 123.617 128.801 124.592 128.246C125.776 127.539 127.137 127.184 128.516 127.221C129.895 127.259 131.235 127.688 132.38 128.458C133.321 129.063 134.125 129.858 134.74 130.792C135.16 131.416 135.478 132.102 135.681 132.825C135.736 133.022 135.779 133.221 135.81 133.422C135.825 133.493 135.834 133.566 135.836 133.639Z" fill="#393E4B"/>
<path opacity="0.5" d="M102.633 100.683L113.595 114.58H164.464V110.836H113.939L102.633 100.683Z" fill="black"/>
<path d="M152.243 147.849C152.181 147.849 152.128 139.535 152.128 129.285C152.128 119.035 152.181 110.721 152.243 110.721C152.305 110.721 152.362 119.031 152.362 129.285C152.362 139.539 152.309 147.849 152.243 147.849Z" fill="#393E4B"/>
<path d="M161.976 137.011H156.513V143.186H161.976V137.011Z" fill="#F5F5F5"/>
<path d="M102.492 100.157L89.7708 110.836H102.492V100.157Z" fill="#F3802D"/>
<g opacity="0.4">
<path d="M102.492 100.157L89.7708 110.836H102.492V100.157Z" fill="black"/>
</g>
<path d="M166.294 147.955H95.0393V202.913H166.294V147.955Z" fill="#F3802D"/>
<path opacity="0.3" d="M166.294 147.955H95.0393V202.913H166.294V147.955Z" fill="black"/>
<path d="M148.442 202.524C148.38 202.524 148.327 190.277 148.327 175.169C148.327 160.061 148.38 147.809 148.442 147.809C148.504 147.809 148.557 160.057 148.557 175.169C148.557 190.281 148.504 202.524 148.442 202.524Z" fill="#393E4B"/>
<path d="M160.252 190.405H154.789V196.58H160.252V190.405Z" fill="#F5F5F5"/>
<path d="M124.87 148.101H116.777V159.827H124.87V148.101Z" fill="#393E4B"/>
<path d="M124.87 191.024H116.777V202.75H124.87V191.024Z" fill="#393E4B"/>
<path d="M165.675 147.955H165.49H164.955L162.9 147.977L155.328 148.013L130.36 148.07L105.382 148.039L97.8151 148.004L95.7598 147.982L97.8151 147.96L105.382 147.924L130.36 147.889L155.328 147.924L162.9 147.96L164.955 147.982H165.49L165.675 147.955Z" fill="#393E4B"/>
<path d="M43.5596 52.8057L35.7981 50.8963H35.8555C33.8515 52.1711 31.534 52.867 29.1592 52.9074C27.7533 52.9138 26.3543 52.7097 25.0088 52.3019C22.6433 51.5423 20.5447 50.1214 18.961 48.2072C17.3772 46.2929 16.3746 43.9653 16.0716 41.4994C15.8336 39.6344 16.0088 37.7399 16.5848 35.9502C17.1607 34.1605 18.1233 32.5194 19.4043 31.1433C20.0777 30.4037 20.8324 29.7424 21.6541 29.172C22.0695 28.9112 22.485 28.6416 22.9182 28.4162L23.5768 28.0979L23.9038 27.9388L24.2486 27.8151C26.0234 27.1271 27.9273 26.8359 29.8266 26.962C32.3721 27.1273 34.8117 28.0423 36.8379 29.5919C38.8641 31.1414 40.3863 33.2561 41.2126 35.6694C41.6716 37.0194 41.9133 38.4337 41.9286 39.8595C41.9397 42.2291 41.2957 44.5557 40.0678 46.5824V46.5117C42.2247 50.4057 43.3121 52.3726 43.5552 52.8057C43.3032 52.3637 42.1761 50.4322 39.944 46.5779V46.5426V46.5072C41.1278 44.5002 41.7393 42.2072 41.712 39.8772C41.6915 38.4742 41.4468 37.0835 40.9871 35.7578C40.1698 33.3939 38.6733 31.3236 36.685 29.8062C34.6966 28.2888 32.3048 27.3917 29.809 27.2272C27.9471 27.1058 26.0811 27.3924 24.3414 28.067L24.0055 28.1863L23.6828 28.3454L23.0375 28.6549C22.5955 28.8803 22.2066 29.1411 21.7955 29.3974C20.9897 29.9525 20.2484 30.5959 19.5855 31.3157C18.3279 32.6666 17.3827 34.2775 16.8167 36.0343C16.2507 37.791 16.0778 39.6507 16.3103 41.4817C16.7201 44.8361 18.4411 47.892 21.0971 49.9813C22.2846 50.9223 23.6322 51.641 25.0751 52.1029C26.3965 52.5114 27.7718 52.7185 29.1548 52.7173C31.5011 52.6922 33.7952 52.0208 35.7848 50.7769H35.8113H35.8599L43.5596 52.8057Z" fill="white"/>
<path d="M27.9039 34.1666L28.2973 40.664C28.313 40.9203 28.4219 41.162 28.6034 41.3435C28.785 41.5251 29.0267 41.6339 29.2829 41.6497C29.5526 41.6649 29.8178 41.5763 30.0242 41.402C30.2305 41.2277 30.3623 40.981 30.3924 40.7126L31.1128 34.2019C31.1254 34.0855 31.113 33.9676 31.0766 33.8563C31.0401 33.745 30.9804 33.6426 30.9014 33.5561C30.8224 33.4696 30.7259 33.4009 30.6184 33.3545C30.5108 33.3081 30.3946 33.2851 30.2774 33.287H28.6995C28.5888 33.2903 28.4799 33.3159 28.3793 33.3624C28.2787 33.4088 28.1886 33.4751 28.1143 33.5573C28.04 33.6394 27.983 33.7357 27.9469 33.8405C27.9107 33.9452 27.8961 34.0561 27.9039 34.1666Z" fill="#F3802D"/>
<path d="M30.9979 45.2785C30.899 45.5753 30.7143 45.8361 30.4672 46.028C30.2201 46.2199 29.9217 46.3342 29.6096 46.3565C29.2975 46.3789 28.9859 46.3082 28.714 46.1534C28.4421 45.9987 28.2221 45.7668 28.082 45.4871C27.9418 45.2074 27.8877 44.8924 27.9265 44.582C27.9653 44.2716 28.0953 43.9796 28.2999 43.743C28.5046 43.5064 28.7748 43.3358 29.0765 43.2527C29.3781 43.1696 29.6976 43.1778 29.9945 43.2762C30.192 43.3417 30.3746 43.4454 30.5319 43.5815C30.6892 43.7176 30.8182 43.8834 30.9113 44.0693C31.0045 44.2553 31.0601 44.4578 31.075 44.6653C31.0898 44.8728 31.0636 45.0811 30.9979 45.2785Z" fill="#F3802D"/>
</svg>
