<svg width="16" height="17" viewBox="0 0 16 17" fill="none" xmlns="http://www.w3.org/2000/svg">
<path d="M8 0.710449C6.41775 0.710449 4.87103 1.17964 3.55544 2.05869C2.23985 2.93774 1.21447 4.18717 0.608967 5.64898C0.00346628 7.11079 -0.15496 8.71932 0.153721 10.2712C0.462403 11.823 1.22433 13.2485 2.34315 14.3673C3.46197 15.4861 4.88743 16.248 6.43928 16.5567C7.99113 16.8654 9.59966 16.707 11.0615 16.1015C12.5233 15.496 13.7727 14.4706 14.6518 13.155C15.5308 11.8394 16 10.2927 16 8.71045C15.9978 6.5894 15.1542 4.55587 13.6544 3.05607C12.1546 1.55626 10.121 0.712689 8 0.710449ZM11.5123 7.29968L7.20462 11.6074C7.14746 11.6646 7.07959 11.71 7.00489 11.7409C6.93018 11.7719 6.8501 11.7879 6.76923 11.7879C6.68836 11.7879 6.60828 11.7719 6.53358 11.7409C6.45887 11.71 6.391 11.6646 6.33385 11.6074L4.48769 9.76122C4.37222 9.64575 4.30735 9.48913 4.30735 9.32583C4.30735 9.16253 4.37222 9.00592 4.48769 8.89045C4.60317 8.77498 4.75978 8.71011 4.92308 8.71011C5.08638 8.71011 5.24299 8.77498 5.35846 8.89045L6.76923 10.302L10.6415 6.42891C10.6987 6.37173 10.7666 6.32638 10.8413 6.29544C10.916 6.26449 10.9961 6.24857 11.0769 6.24857C11.1578 6.24857 11.2378 6.26449 11.3126 6.29544C11.3873 6.32638 11.4551 6.37173 11.5123 6.42891C11.5695 6.48608 11.6148 6.55396 11.6458 6.62867C11.6767 6.70337 11.6927 6.78344 11.6927 6.86429C11.6927 6.94515 11.6767 7.02522 11.6458 7.09992C11.6148 7.17463 11.5695 7.2425 11.5123 7.29968Z" fill="white"/>
</svg>
