<svg width="51" height="40" viewBox="0 0 51 40" fill="none" xmlns="http://www.w3.org/2000/svg">
<path d="M3.825 39.6667C2.805 39.6667 1.9125 39.2845 1.1475 38.52C0.3825 37.7556 0 36.8983 0 35.9479V3.71875C0 2.7684 0.3825 1.91102 1.1475 1.14661C1.9125 0.382205 2.805 0 3.825 0H21.675L25.5 3.71875H47.175C48.1525 3.71875 49.0344 4.10095 49.8206 4.86536C50.6069 5.62977 51 6.48715 51 7.4375V35.9479C51 36.8983 50.6069 37.7556 49.8206 38.52C49.0344 39.2845 48.1525 39.6667 47.175 39.6667H3.825ZM3.825 3.71875V35.9479H47.175V7.4375H23.9063L20.0813 3.71875H3.825Z" fill="white"/>
<path d="M3.825 39.6667C2.805 39.6667 1.9125 39.2845 1.1475 38.52C0.3825 37.7556 0 36.8983 0 35.9479V3.71875C0 2.7684 0.3825 1.91102 1.1475 1.14661C1.9125 0.382205 2.805 0 3.825 0H21.675L25.5 3.71875H47.175C48.1525 3.71875 49.0344 4.10095 49.8206 4.86536C50.6069 5.62977 51 6.48715 51 7.4375V35.9479C51 36.8983 50.6069 37.7556 49.8206 38.52C49.0344 39.2845 48.1525 39.6667 47.175 39.6667H3.825ZM3.825 3.71875V35.9479H47.175V7.4375H23.9063L20.0813 3.71875H3.825Z" fill="white"/>
<path d="M23.0684 28.5478L34.7984 17.1436L32.0571 14.4785L23.0046 23.2796L19.3709 19.7467L16.6934 22.3499L23.0684 28.5478Z" fill="white"/>
<path d="M23.0684 28.5478L34.7984 17.1436L32.0571 14.4785L23.0046 23.2796L19.3709 19.7467L16.6934 22.3499L23.0684 28.5478Z" fill="white"/>
</svg>
