<svg width="26" height="22" viewBox="0 0 26 22" fill="none" xmlns="http://www.w3.org/2000/svg">
<path d="M24 0H2C1.46957 0 0.960859 0.210714 0.585786 0.585786C0.210714 0.960859 0 1.46957 0 2V20C0 20.5304 0.210714 21.0391 0.585786 21.4142C0.960859 21.7893 1.46957 22 2 22H24C24.5304 22 25.0391 21.7893 25.4142 21.4142C25.7893 21.0391 26 20.5304 26 20V2C26 1.46957 25.7893 0.960859 25.4142 0.585786C25.0391 0.210714 24.5304 0 24 0ZM16.5 6C16.7967 6 17.0867 6.08797 17.3334 6.2528C17.58 6.41762 17.7723 6.65189 17.8858 6.92597C17.9993 7.20006 18.0291 7.50166 17.9712 7.79264C17.9133 8.08361 17.7704 8.35088 17.5607 8.56066C17.3509 8.77044 17.0836 8.9133 16.7926 8.97118C16.5017 9.02906 16.2001 8.99935 15.926 8.88582C15.6519 8.77229 15.4176 8.58003 15.2528 8.33335C15.088 8.08668 15 7.79667 15 7.5C15 7.10218 15.158 6.72064 15.4393 6.43934C15.7206 6.15804 16.1022 6 16.5 6ZM2 20V16.5L8.5 10L18.5 20H2ZM24 20H21.3288L16.8288 15.5L19.3288 13L24 17.6725V20Z" fill="white"/>
</svg>
