<svg width="25" height="25" viewBox="0 0 25 25" fill="none" xmlns="http://www.w3.org/2000/svg">
<path d="M10.8424 23.6912C10.8424 23.9564 10.7371 24.2107 10.5495 24.3983C10.362 24.5858 10.1076 24.6912 9.84241 24.6912H2.84241C2.31197 24.6912 1.80327 24.4804 1.42819 24.1054C1.05312 23.7303 0.842407 23.2216 0.842407 22.6912V2.69116C0.842407 2.16073 1.05312 1.65202 1.42819 1.27695C1.80327 0.901876 2.31197 0.691162 2.84241 0.691162H9.84241C10.1076 0.691162 10.362 0.796519 10.5495 0.984056C10.7371 1.17159 10.8424 1.42595 10.8424 1.69116C10.8424 1.95638 10.7371 2.21073 10.5495 2.39827C10.362 2.58581 10.1076 2.69116 9.84241 2.69116H2.84241V22.6912H9.84241C10.1076 22.6912 10.362 22.7965 10.5495 22.9841C10.7371 23.1716 10.8424 23.4259 10.8424 23.6912ZM24.5499 11.9837L19.5499 6.98366C19.3623 6.79602 19.1078 6.69061 18.8424 6.69061C18.577 6.69061 18.3225 6.79602 18.1349 6.98366C17.9473 7.1713 17.8419 7.4258 17.8419 7.69116C17.8419 7.95653 17.9473 8.21102 18.1349 8.39866L21.4287 11.6912H9.84241C9.57719 11.6912 9.32284 11.7965 9.1353 11.9841C8.94776 12.1716 8.84241 12.4259 8.84241 12.6912C8.84241 12.9564 8.94776 13.2107 9.1353 13.3983C9.32284 13.5858 9.57719 13.6912 9.84241 13.6912H21.4287L18.1349 16.9837C17.9473 17.1713 17.8419 17.4258 17.8419 17.6912C17.8419 17.9565 17.9473 18.211 18.1349 18.3987C18.3225 18.5863 18.577 18.6917 18.8424 18.6917C19.1078 18.6917 19.3623 18.5863 19.5499 18.3987L24.5499 13.3987C24.6429 13.3058 24.7166 13.1955 24.767 13.0741C24.8173 12.9527 24.8432 12.8226 24.8432 12.6912C24.8432 12.5597 24.8173 12.4296 24.767 12.3082C24.7166 12.1868 24.6429 12.0765 24.5499 11.9837Z" fill="white"/>
</svg>
