<svg width="34" height="33" viewBox="0 0 34 33" fill="none" xmlns="http://www.w3.org/2000/svg">
<path d="M28.0781 28.8406L18.9824 19.8C18.2907 20.3958 17.4837 20.8599 16.5614 21.1922C15.6392 21.5245 14.6593 21.6906 13.6217 21.6906C11.1316 21.6906 9.02199 20.8312 7.29276 19.1125C5.56353 17.3937 4.69891 15.3198 4.69891 12.8906C4.69891 10.4615 5.56353 8.3875 7.29276 6.66875C9.02199 4.95 11.1201 4.09063 13.5872 4.09063C16.0311 4.09063 18.112 4.95 19.8297 6.66875C21.5474 8.3875 22.4062 10.4615 22.4062 12.8906C22.4062 13.876 22.2448 14.8271 21.922 15.7438C21.5993 16.6604 21.1151 17.5198 20.4695 18.3219L29.5998 27.3281L28.0781 28.8406ZM13.5872 19.6281C15.4547 19.6281 17.0456 18.9693 18.3598 17.6516C19.674 16.3339 20.3312 14.7469 20.3312 12.8906C20.3312 11.0344 19.674 9.4474 18.3598 8.12969C17.0456 6.81198 15.4547 6.15313 13.5872 6.15313C11.6965 6.15313 10.0883 6.81198 8.7626 8.12969C7.43686 9.4474 6.77399 11.0344 6.77399 12.8906C6.77399 14.7469 7.43686 16.3339 8.7626 17.6516C10.0883 18.9693 11.6965 19.6281 13.5872 19.6281V19.6281Z" fill="white" stroke="white"/>
</svg>
