<svg width="15" height="10" viewBox="0 0 15 10" fill="none" xmlns="http://www.w3.org/2000/svg">
<path d="M13.994 1.18742L4.93202 9.55234C4.87942 9.60095 4.81696 9.63951 4.7482 9.66582C4.67944 9.69213 4.60574 9.70567 4.53131 9.70567C4.45688 9.70567 4.38318 9.69213 4.31443 9.66582C4.24567 9.63951 4.1832 9.60095 4.1306 9.55234L0.16598 5.89269C0.0597046 5.79459 0 5.66153 0 5.5228C0 5.38407 0.0597046 5.25101 0.16598 5.15291C0.272254 5.05481 0.416394 4.9997 0.56669 4.9997C0.716985 4.9997 0.861125 5.05481 0.9674 5.15291L4.53131 8.44333L13.1926 0.447645C13.2989 0.349545 13.443 0.294434 13.5933 0.294434C13.7436 0.294434 13.8877 0.349545 13.994 0.447645C14.1003 0.545745 14.16 0.678798 14.16 0.817532C14.16 0.956266 14.1003 1.08932 13.994 1.18742Z" fill="#43DB6D"/>
</svg>
