<svg width="16" height="17" viewBox="0 0 16 17" fill="none" xmlns="http://www.w3.org/2000/svg">
<path d="M12.3698 1.40834C12.3904 1.33311 12.4261 1.26259 12.4747 1.2008C12.5234 1.139 12.584 1.08715 12.6533 1.04821C12.7225 1.00926 12.7989 0.983986 12.8781 0.973821C12.9574 0.963657 13.0379 0.968804 13.1151 0.98897C14.3244 1.30535 15.3207 2.03443 15.9185 3.04359C15.9992 3.17977 16.021 3.3416 15.9792 3.49348C15.9375 3.64535 15.8354 3.77483 15.6957 3.85344C15.5559 3.93204 15.3898 3.95333 15.2339 3.91262C15.078 3.8719 14.9451 3.77252 14.8644 3.63634C14.4293 2.90133 13.6962 2.36786 12.8003 2.13446C12.723 2.11434 12.6506 2.07959 12.5872 2.03221C12.5238 1.98482 12.4706 1.92572 12.4306 1.85829C12.3906 1.79086 12.3647 1.71641 12.3542 1.63921C12.3438 1.56201 12.3491 1.48356 12.3698 1.40834ZM4.40761 15.9152C3.69422 15.3669 3.09795 14.6674 2.53286 13.7131C2.49291 13.6457 2.43972 13.5866 2.37632 13.5392C2.31292 13.4918 2.24056 13.457 2.16337 13.4368C2.08618 13.4167 2.00567 13.4115 1.92644 13.4217C1.8472 13.4318 1.7708 13.4571 1.70158 13.496C1.63237 13.5349 1.5717 13.5868 1.52304 13.6485C1.47439 13.7103 1.43869 13.7808 1.418 13.856C1.39731 13.9312 1.39202 14.0096 1.40244 14.0868C1.41286 14.164 1.43879 14.2384 1.47874 14.3059C2.12445 15.395 2.81502 16.2019 3.65391 16.8458C3.78078 16.9409 3.94101 16.9834 4.09987 16.9642C4.25873 16.945 4.40342 16.8656 4.50258 16.7432C4.60173 16.6207 4.64737 16.4652 4.62959 16.3102C4.61182 16.1552 4.53206 16.0133 4.40761 15.9152ZM13.2764 3.51927C13.1975 3.38243 13.0916 3.26219 12.9648 3.16552C12.8379 3.06886 12.6926 2.99769 12.5373 2.95615C12.3819 2.91461 12.2197 2.90353 12.0599 2.92353C11.9002 2.94354 11.7461 2.99425 11.6066 3.07271C11.4671 3.15117 11.345 3.25583 11.2474 3.38062C11.1497 3.5054 11.0785 3.64783 11.0378 3.79965C10.997 3.95146 10.9877 4.10965 11.0102 4.26502C11.0327 4.42039 11.0866 4.56987 11.1689 4.70478L12.3858 6.75792C12.4257 6.82534 12.4517 6.89978 12.4621 6.97697C12.4725 7.05417 12.4672 7.13261 12.4465 7.20781C12.4259 7.28302 12.3902 7.35352 12.3415 7.41528C12.2928 7.47704 12.2321 7.52885 12.1629 7.56776C11.604 7.88221 11.1962 8.40006 11.0292 9.00741C10.8622 9.61476 10.9496 10.2619 11.2723 10.8064C11.353 10.9426 11.3748 11.1044 11.3331 11.2563C11.2913 11.4082 11.1893 11.5376 11.0495 11.6163C10.9097 11.6949 10.7436 11.7161 10.5877 11.6754C10.4318 11.6347 10.2989 11.5353 10.2182 11.3992C9.78785 10.6707 9.63578 9.81751 9.78888 8.99039C9.94198 8.16326 10.3904 7.41553 11.0548 6.87943L7.98599 1.70398C7.82462 1.43161 7.5588 1.23286 7.24701 1.15143C6.93522 1.07 6.603 1.11258 6.32343 1.26979C6.04386 1.42699 5.83984 1.68596 5.75626 1.98971C5.67268 2.29346 5.71638 2.61712 5.87775 2.88948L8.3115 6.9965C8.38718 7.13228 8.40545 7.29148 8.36242 7.44019C8.3194 7.5889 8.21846 7.71536 8.08113 7.79264C7.9438 7.86992 7.78093 7.8919 7.6272 7.85391C7.47348 7.81592 7.34106 7.72096 7.25814 7.58925L4.21595 2.45529C4.05458 2.18293 3.78877 1.98417 3.47698 1.90274C3.16519 1.82132 2.83297 1.86389 2.5534 2.0211C2.27383 2.1783 2.06981 2.43727 1.98623 2.74102C1.90265 3.04477 1.94635 3.36843 2.10771 3.64079L5.45412 9.28748C5.4966 9.35496 5.52478 9.43004 5.53699 9.50829C5.5492 9.58655 5.5452 9.6664 5.52522 9.74312C5.50524 9.81985 5.46969 9.8919 5.42067 9.95502C5.37164 10.0181 5.31014 10.0711 5.23978 10.1107C5.16943 10.1502 5.09164 10.1757 5.01102 10.1855C4.9304 10.1954 4.84858 10.1894 4.77038 10.1679C4.69217 10.1464 4.61918 10.1099 4.5557 10.0605C4.49222 10.0111 4.43954 9.94979 4.40077 9.88023L2.27123 6.28742C2.19133 6.15256 2.08495 6.03435 1.95815 5.93955C1.83136 5.84474 1.68664 5.7752 1.53226 5.73488C1.37787 5.69456 1.21685 5.68426 1.05838 5.70457C0.899915 5.72487 0.747104 5.77539 0.608675 5.85323C0.470246 5.93107 0.34891 6.03471 0.251596 6.15824C0.154281 6.28176 0.0828929 6.42275 0.0415076 6.57315C0.000122288 6.72356 -0.0104499 6.88043 0.0103948 7.03481C0.0312395 7.18919 0.0830928 7.33806 0.162994 7.47292L3.5094 13.1196C4.39898 14.6132 5.86043 15.7021 7.57307 16.1472C9.28572 16.5924 11.1097 16.3575 12.6448 15.494C14.1798 14.6306 15.3006 13.2092 15.7612 11.5417C16.2218 9.87414 15.9846 8.09671 15.1017 6.59936L13.2764 3.51927Z" fill="black"/>
</svg>
