<svg width="49" height="49" viewBox="0 0 49 48" fill="none" xmlns="http://www.w3.org/2000/svg">
<circle cx="24.1768" cy="24" r="24" fill="#F3802D"/>
<path d="M22.2509 19.778H26.7255V9.86065C26.7255 9.27033 26.5142 8.76856 26.0916 8.35533C25.669 7.94211 25.1346 7.7355 24.4882 7.7355C23.8667 7.7355 23.3385 7.93621 22.9035 8.33762C22.4684 8.73904 22.2509 9.24672 22.2509 9.86065V19.778ZM13.3017 26.1534H35.6748V21.9032H13.3017V26.1534ZM10.9152 34.654H15.9119V31.4663C15.9119 31.1593 16.0175 30.9055 16.2288 30.7048C16.4401 30.5041 16.7073 30.4037 17.0305 30.4037C17.3537 30.4037 17.6209 30.5041 17.8322 30.7048C18.0435 30.9055 18.1492 31.1593 18.1492 31.4663V34.654H23.3696V31.4663C23.3696 31.1593 23.4752 30.9055 23.6865 30.7048C23.8978 30.5041 24.1651 30.4037 24.4882 30.4037C24.8114 30.4037 25.0786 30.5041 25.2899 30.7048C25.5012 30.9055 25.6069 31.1593 25.6069 31.4663V34.654H30.8273V31.4663C30.8273 31.1593 30.9329 30.9055 31.1442 30.7048C31.3555 30.5041 31.6228 30.4037 31.9459 30.4037C32.2691 30.4037 32.5363 30.5041 32.7476 30.7048C32.9589 30.9055 33.0646 31.1593 33.0646 31.4663V34.654H38.0612L36.1968 27.5702H12.7796L10.9152 34.654ZM37.0917 36.7792H11.8847C10.9152 36.7792 10.1321 36.4132 9.53552 35.6812C8.9389 34.9492 8.76489 34.1346 9.01348 33.2373L11.0643 25.4451V22.6115C11.0643 21.8323 11.3564 21.1653 11.9406 20.6104C12.5248 20.0555 13.2271 19.778 14.0474 19.778H20.0136V9.86065C20.0136 8.68001 20.4486 7.67647 21.3187 6.85002C22.1888 6.02357 23.2453 5.61035 24.4882 5.61035C25.7312 5.61035 26.7877 6.02357 27.6577 6.85002C28.5278 7.67647 28.9628 8.68001 28.9628 9.86065V19.778H34.929C35.7494 19.778 36.4516 20.0555 37.0358 20.6104C37.62 21.1653 37.9121 21.8323 37.9121 22.6115V25.4451L39.963 33.2373C40.2116 34.1346 40.0375 34.9492 39.4409 35.6812C38.8443 36.4132 38.0612 36.7792 37.0917 36.7792ZM35.6748 21.9032H13.3017H35.6748ZM26.7255 19.778H22.2509H26.7255Z" fill="white"/>
</svg>
