<svg width="49" height="48" viewBox="0 0 49 48" fill="none" xmlns="http://www.w3.org/2000/svg">
<circle cx="24.0034" cy="24" r="24" fill="#F32D2D"/>
<g clip-path="url(#clip0_581_5933)">
<path d="M12.0291 34.0776C11.5313 34.0776 11.0821 33.8773 10.6817 33.4769C10.2813 33.0765 10.0811 32.6273 10.0811 32.1295V15.2464C10.0811 14.7486 10.2813 14.2994 10.6817 13.899C11.0821 13.4986 11.5313 13.2983 12.0291 13.2983H21.1525L23.1005 15.2464H34.107C34.6049 15.2464 35.054 15.4466 35.4544 15.847C35.8549 16.2475 36.0551 16.6966 36.0551 17.1944H22.2564L20.3083 15.2464H12.0291V32.1295L15.3408 19.1425H38.0031L34.5291 32.5841C34.3992 33.1035 34.1611 33.4823 33.8148 33.7204C33.4685 33.9585 33.0248 34.0776 32.4836 34.0776H12.0291ZM14.0746 32.1295H32.646L35.3733 21.0905H16.8018L14.0746 32.1295ZM14.0746 32.1295L16.8018 21.0905L14.0746 32.1295V32.1295ZM12.0291 17.1944V15.2464V17.1944Z" fill="white"/>
</g>
<defs>
<clipPath id="clip0_581_5933">
<rect width="31.1688" height="31.1688" fill="white" transform="translate(7.48389 8.10352)"/>
</clipPath>
</defs>
</svg>
