<svg width="46" height="48" viewBox="0 0 46 48" fill="none" xmlns="http://www.w3.org/2000/svg">
<ellipse cx="22.8797" cy="24" rx="22.8763" ry="24" fill="#F32D2D"/>
<g clip-path="url(#clip0_581_5933)">
<path d="M11.4662 34.0776C10.9917 34.0776 10.5636 33.8773 10.1819 33.4769C9.80022 33.0765 9.60938 32.6273 9.60938 32.1295V15.2464C9.60938 14.7486 9.80022 14.2994 10.1819 13.899C10.5636 13.4986 10.9917 13.2983 11.4662 13.2983H20.1624L22.0192 15.2464H32.5104C32.9849 15.2464 33.413 15.4466 33.7947 15.847C34.1764 16.2475 34.3672 16.6966 34.3672 17.1944H21.2146L19.3578 15.2464H11.4662V32.1295L14.6228 19.1425H36.2241L32.9127 32.5841C32.7889 33.1035 32.562 33.4823 32.2319 33.7204C31.9018 33.9585 31.4788 34.0776 30.963 34.0776H11.4662ZM13.4159 32.1295H31.1178L33.7173 21.0905H16.0155L13.4159 32.1295ZM13.4159 32.1295L16.0155 21.0905L13.4159 32.1295V32.1295ZM11.4662 17.1944V15.2464V17.1944Z" fill="white"/>
</g>
<defs>
<clipPath id="clip0_581_5933">
<rect width="29.7094" height="31.1688" fill="white" transform="translate(7.13379 8.10352)"/>
</clipPath>
</defs>
</svg>
