<svg width="24" height="24" viewBox="0 0 24 24" fill="none" xmlns="http://www.w3.org/2000/svg">
<path d="M19.9 20.9207L13.325 14.3855C12.825 14.8163 12.2417 15.1517 11.575 15.3919C10.9083 15.6321 10.2 15.7522 9.45 15.7522C7.65 15.7522 6.125 15.131 4.875 13.8886C3.625 12.6461 3 11.147 3 9.391C3 7.63504 3.625 6.13585 4.875 4.89342C6.125 3.651 7.64167 3.02979 9.425 3.02979C11.1917 3.02979 12.6958 3.651 13.9375 4.89342C15.1792 6.13585 15.8 7.63504 15.8 9.391C15.8 10.1033 15.6833 10.7908 15.45 11.4534C15.2167 12.116 14.8667 12.7373 14.4 13.3171L21 19.8274L19.9 20.9207ZM9.425 14.2613C10.775 14.2613 11.925 13.785 12.875 12.8325C13.825 11.88 14.3 10.7328 14.3 9.391C14.3 8.04918 13.825 6.90201 12.875 5.94948C11.925 4.99696 10.775 4.52069 9.425 4.52069C8.05833 4.52069 6.89583 4.99696 5.9375 5.94948C4.97917 6.90201 4.5 8.04918 4.5 9.391C4.5 10.7328 4.97917 11.88 5.9375 12.8325C6.89583 13.785 8.05833 14.2613 9.425 14.2613Z" fill="#A1A1A1" stroke="#A1A1A1"/>
</svg>
