<svg width="12" height="8" viewBox="0 0 12 8" fill="none" xmlns="http://www.w3.org/2000/svg">
<path d="M11.8402 1.65867L6.38589 7.11294C6.33523 7.16365 6.27508 7.20388 6.20887 7.23133C6.14265 7.25878 6.07168 7.27291 6 7.27291C5.92832 7.27291 5.85735 7.25878 5.79113 7.23133C5.72492 7.20388 5.66476 7.16365 5.61411 7.11294L0.159841 1.65867C0.0574964 1.55633 0 1.41752 0 1.27278C0 1.12804 0.0574964 0.989235 0.159841 0.886891C0.262185 0.784547 0.400994 0.727051 0.54573 0.727051C0.690467 0.727051 0.829275 0.784547 0.93162 0.886891L6 5.95595L11.0684 0.886891C11.1191 0.836215 11.1792 0.796017 11.2454 0.768592C11.3116 0.741166 11.3826 0.727051 11.4543 0.727051C11.5259 0.727051 11.5969 0.741166 11.6631 0.768592C11.7293 0.796017 11.7895 0.836215 11.8402 0.886891C11.8908 0.937567 11.931 0.997728 11.9585 1.06394C11.9859 1.13015 12 1.20111 12 1.27278C12 1.34445 11.9859 1.41541 11.9585 1.48162C11.931 1.54783 11.8908 1.60799 11.8402 1.65867Z" fill="white"/>
</svg>
