<svg width="24" height="25" viewBox="0 0 24 25" fill="none" xmlns="http://www.w3.org/2000/svg">
<path d="M12 0.727539C9.62663 0.727539 7.30655 1.43133 5.33316 2.7499C3.35977 4.06848 1.8217 5.94262 0.913451 8.13534C0.00519941 10.328 -0.232441 12.7408 0.230582 15.0686C0.693605 17.3964 1.83649 19.5346 3.51472 21.2128C5.19295 22.891 7.33115 24.0339 9.65892 24.497C11.9867 24.96 14.3995 24.7223 16.5922 23.8141C18.7849 22.9058 20.6591 21.3678 21.9776 19.3944C23.2962 17.421 24 15.1009 24 12.7275C23.9966 9.54597 22.7313 6.49568 20.4816 4.24597C18.2319 1.99626 15.1816 0.730899 12 0.727539ZM17.2685 10.6114L10.8069 17.0729C10.7212 17.1587 10.6194 17.2268 10.5073 17.2733C10.3953 17.3197 10.2752 17.3436 10.1538 17.3436C10.0325 17.3436 9.91243 17.3197 9.80037 17.2733C9.68831 17.2268 9.5865 17.1587 9.50077 17.0729L6.73154 14.3037C6.55834 14.1305 6.46103 13.8956 6.46103 13.6506C6.46103 13.4057 6.55834 13.1707 6.73154 12.9975C6.90475 12.8243 7.13967 12.727 7.38462 12.727C7.62957 12.727 7.86449 12.8243 8.0377 12.9975L10.1538 15.1148L15.9623 9.30523C16.0481 9.21947 16.1499 9.15143 16.2619 9.10502C16.374 9.05861 16.4941 9.03472 16.6154 9.03472C16.7367 9.03472 16.8568 9.05861 16.9688 9.10502C17.0809 9.15143 17.1827 9.21947 17.2685 9.30523C17.3542 9.39099 17.4223 9.49281 17.4687 9.60486C17.5151 9.71692 17.539 9.83702 17.539 9.95831C17.539 10.0796 17.5151 10.1997 17.4687 10.3117C17.4223 10.4238 17.3542 10.5256 17.2685 10.6114Z" fill="black"/>
<path d="M12 0.727539C9.62663 0.727539 7.30655 1.43133 5.33316 2.7499C3.35977 4.06848 1.8217 5.94262 0.913451 8.13534C0.00519941 10.328 -0.232441 12.7408 0.230582 15.0686C0.693605 17.3964 1.83649 19.5346 3.51472 21.2128C5.19295 22.891 7.33115 24.0339 9.65892 24.497C11.9867 24.96 14.3995 24.7223 16.5922 23.8141C18.7849 22.9058 20.6591 21.3678 21.9776 19.3944C23.2962 17.421 24 15.1009 24 12.7275C23.9966 9.54597 22.7313 6.49568 20.4816 4.24597C18.2319 1.99626 15.1816 0.730899 12 0.727539ZM17.2685 10.6114L10.8069 17.0729C10.7212 17.1587 10.6194 17.2268 10.5073 17.2733C10.3953 17.3197 10.2752 17.3436 10.1538 17.3436C10.0325 17.3436 9.91243 17.3197 9.80037 17.2733C9.68831 17.2268 9.5865 17.1587 9.50077 17.0729L6.73154 14.3037C6.55834 14.1305 6.46103 13.8956 6.46103 13.6506C6.46103 13.4057 6.55834 13.1707 6.73154 12.9975C6.90475 12.8243 7.13967 12.727 7.38462 12.727C7.62957 12.727 7.86449 12.8243 8.0377 12.9975L10.1538 15.1148L15.9623 9.30523C16.0481 9.21947 16.1499 9.15143 16.2619 9.10502C16.374 9.05861 16.4941 9.03472 16.6154 9.03472C16.7367 9.03472 16.8568 9.05861 16.9688 9.10502C17.0809 9.15143 17.1827 9.21947 17.2685 9.30523C17.3542 9.39099 17.4223 9.49281 17.4687 9.60486C17.5151 9.71692 17.539 9.83702 17.539 9.95831C17.539 10.0796 17.5151 10.1997 17.4687 10.3117C17.4223 10.4238 17.3542 10.5256 17.2685 10.6114Z" stroke="white"/>
</svg>
