<svg width="24" height="25" viewBox="0 0 24 25" fill="none" xmlns="http://www.w3.org/2000/svg">
<path d="M12 0.727539C9.62663 0.727539 7.30655 1.43133 5.33316 2.7499C3.35977 4.06848 1.8217 5.94262 0.913451 8.13534C0.00519943 10.328 -0.232441 12.7408 0.230582 15.0686C0.693605 17.3964 1.83649 19.5346 3.51472 21.2128C5.19295 22.891 7.33115 24.0339 9.65892 24.497C11.9867 24.96 14.3995 24.7223 16.5922 23.8141C18.7849 22.9058 20.6591 21.3678 21.9776 19.3944C23.2962 17.421 24 15.1009 24 12.7275C23.9966 9.54597 22.7313 6.49568 20.4816 4.24597C18.2319 1.99626 15.1816 0.730899 12 0.727539ZM17.2685 13.3806L13.5762 17.0729C13.4029 17.2461 13.168 17.3434 12.9231 17.3434C12.6781 17.3434 12.4432 17.2461 12.27 17.0729C12.0968 16.8997 11.9995 16.6648 11.9995 16.4198C11.9995 16.1749 12.0968 15.94 12.27 15.7668L14.3873 13.6506H7.38462C7.1398 13.6506 6.90502 13.5534 6.73191 13.3803C6.55879 13.2071 6.46154 12.9724 6.46154 12.7275C6.46154 12.4827 6.55879 12.2479 6.73191 12.0748C6.90502 11.9017 7.1398 11.8045 7.38462 11.8045H14.3873L12.27 9.68831C12.0968 9.5151 11.9995 9.28018 11.9995 9.03523C11.9995 8.79028 12.0968 8.55536 12.27 8.38215C12.4432 8.20895 12.6781 8.11164 12.9231 8.11164C13.168 8.11164 13.4029 8.20895 13.5762 8.38215L17.2685 12.0745C17.3543 12.1602 17.4224 12.262 17.4688 12.3741C17.5153 12.4861 17.5392 12.6062 17.5392 12.7275C17.5392 12.8488 17.5153 12.969 17.4688 13.081C17.4224 13.1931 17.3543 13.2949 17.2685 13.3806Z" fill="black"/>
</svg>
