<svg width="25" height="25" viewBox="0 0 25 25" fill="none" xmlns="http://www.w3.org/2000/svg">
<path d="M12.4001 0.835938C5.6296 0.835938 0.146973 6.02512 0.146973 12.4189C0.146973 18.8128 5.6296 24.0019 12.4001 24.0019C19.1828 24.0019 24.6777 18.8128 24.6777 12.4189C24.6777 6.02512 19.1828 0.835938 12.4001 0.835938ZM12.4124 21.6853C6.99106 21.6853 2.60005 17.5386 2.60005 12.4189C2.60005 7.29925 6.99106 3.15254 12.4124 3.15254C17.8337 3.15254 22.2247 7.29925 22.2247 12.4189C22.2247 17.5386 17.8337 21.6853 12.4124 21.6853ZM12.1425 6.62744H12.0689C11.5783 6.62744 11.1858 6.99809 11.1858 7.46141V12.9286C11.1858 13.334 11.4066 13.7162 11.7868 13.9247L16.877 16.8089C17.294 17.0406 17.8337 16.9247 18.079 16.5309C18.3365 16.1371 18.2016 15.6158 17.7723 15.3842L13.0256 12.7201V7.46141C13.0256 6.99809 12.6331 6.62744 12.1425 6.62744Z" fill="white"/>
</svg>
