<svg width="15" height="17" viewBox="0 0 15 17" fill="none" xmlns="http://www.w3.org/2000/svg">
<path d="M14.375 3.10254H11.25V2.47754C11.25 1.98026 11.0525 1.50334 10.7008 1.15171C10.3492 0.800083 9.87228 0.602539 9.375 0.602539H5.625C5.12772 0.602539 4.65081 0.800083 4.29917 1.15171C3.94754 1.50334 3.75 1.98026 3.75 2.47754V3.10254H0.625C0.45924 3.10254 0.300269 3.16839 0.183058 3.2856C0.0658481 3.40281 0 3.56178 0 3.72754C0 3.8933 0.0658481 4.05227 0.183058 4.16948C0.300269 4.28669 0.45924 4.35254 0.625 4.35254H1.25V15.6025C1.25 15.9341 1.3817 16.252 1.61612 16.4864C1.85054 16.7208 2.16848 16.8525 2.5 16.8525H12.5C12.8315 16.8525 13.1495 16.7208 13.3839 16.4864C13.6183 16.252 13.75 15.9341 13.75 15.6025V4.35254H14.375C14.5408 4.35254 14.6997 4.28669 14.8169 4.16948C14.9342 4.05227 15 3.8933 15 3.72754C15 3.56178 14.9342 3.40281 14.8169 3.2856C14.6997 3.16839 14.5408 3.10254 14.375 3.10254ZM6.25 12.4775C6.25 12.6433 6.18415 12.8023 6.06694 12.9195C5.94973 13.0367 5.79076 13.1025 5.625 13.1025C5.45924 13.1025 5.30027 13.0367 5.18306 12.9195C5.06585 12.8023 5 12.6433 5 12.4775V7.47754C5 7.31178 5.06585 7.15281 5.18306 7.0356C5.30027 6.91839 5.45924 6.85254 5.625 6.85254C5.79076 6.85254 5.94973 6.91839 6.06694 7.0356C6.18415 7.15281 6.25 7.31178 6.25 7.47754V12.4775ZM10 12.4775C10 12.6433 9.93415 12.8023 9.81694 12.9195C9.69973 13.0367 9.54076 13.1025 9.375 13.1025C9.20924 13.1025 9.05027 13.0367 8.93306 12.9195C8.81585 12.8023 8.75 12.6433 8.75 12.4775V7.47754C8.75 7.31178 8.81585 7.15281 8.93306 7.0356C9.05027 6.91839 9.20924 6.85254 9.375 6.85254C9.54076 6.85254 9.69973 6.91839 9.81694 7.0356C9.93415 7.15281 10 7.31178 10 7.47754V12.4775ZM10 3.10254H5V2.47754C5 2.31178 5.06585 2.15281 5.18306 2.0356C5.30027 1.91839 5.45924 1.85254 5.625 1.85254H9.375C9.54076 1.85254 9.69973 1.91839 9.81694 2.0356C9.93415 2.15281 10 2.31178 10 2.47754V3.10254Z" fill="white"/>
</svg>
