<svg width="500" height="500" viewBox="0 0 500 500" fill="none" xmlns="http://www.w3.org/2000/svg">
<path d="M429.278 255.109L413.955 239.786L272.767 380.974L288.09 396.297L429.278 255.109Z" fill="#EBEBEB"/>
<path d="M361.93 322.45L346.61 307.12L325.72 328.01L339.77 350.42L361.93 322.45Z" fill="#E0E0E0"/>
<path d="M288.087 396.297L293.192 401.402L434.38 260.214L429.275 255.109L288.087 396.297Z" fill="#E0E0E0"/>
<path d="M288.093 244.885L272.77 260.208L413.958 401.396L429.281 386.073L288.093 244.885Z" fill="#EBEBEB"/>
<path d="M429.28 386.076L434.385 380.97L293.197 239.782L288.092 244.888L429.28 386.076Z" fill="#E0E0E0"/>
<path d="M176.202 287.549L164.273 275.62L54.3886 385.504L66.3175 397.433L176.202 287.549Z" fill="#EBEBEB"/>
<path d="M123.78 339.95L111.85 328.03L95.6001 344.29L106.53 361.72L123.78 339.95Z" fill="#E0E0E0"/>
<path d="M66.3093 397.429L70.2832 401.403L180.168 291.519L176.194 287.545L66.3093 397.429Z" fill="#E0E0E0"/>
<path d="M66.3229 279.592L54.394 291.521L164.278 401.406L176.207 389.477L66.3229 279.592Z" fill="#EBEBEB"/>
<path d="M176.188 389.47L180.162 385.496L70.2777 275.611L66.3038 279.585L176.188 389.47Z" fill="#E0E0E0"/>
<path d="M318.87 294.11H301.26V401.39H318.87V294.11Z" fill="#F5F5F5"/>
<path d="M318.87 338.69H301.26V351.56L318.87 347.76V338.69Z" fill="#EBEBEB"/>
<path d="M318.86 401.4H324.73V294.12H318.86V401.4Z" fill="#EBEBEB"/>
<path d="M134.4 294.11H116.79V401.39H134.4V294.11Z" fill="#F5F5F5"/>
<path d="M134.39 338.69H116.79V351.56L134.39 347.76V338.69Z" fill="#EBEBEB"/>
<path d="M134.39 401.4H140.26V294.12H134.39V401.4Z" fill="#EBEBEB"/>
<path d="M328.11 309.84H103.36V342.86H328.11V309.84Z" fill="#F5F5F5"/>
<path d="M328.11 342.85H331.41V309.83H328.11V342.85Z" fill="#EBEBEB"/>
<path d="M242.73 276.17H198.79L167.72 307.24V351.18L198.79 382.25H242.73L273.8 351.18V307.24L242.73 276.17Z" fill="#FAFAFA"/>
<path d="M240.72 281.02H200.8L172.57 309.25V349.17L200.8 377.4H240.72L268.95 349.17V309.25L240.72 281.02Z" fill="#F3802D"/>
<path d="M182.19 333.82L187.81 333.32C187.856 334.359 188.108 335.379 188.55 336.32C188.781 336.816 189.15 337.235 189.613 337.528C190.076 337.82 190.613 337.974 191.16 337.97C191.536 338 191.914 337.94 192.262 337.793C192.61 337.647 192.918 337.42 193.16 337.13C193.625 336.569 193.87 335.858 193.85 335.13C193.855 334.44 193.622 333.769 193.19 333.23C192.347 332.447 191.312 331.902 190.19 331.65C188.062 331.111 186.137 329.964 184.65 328.35C183.487 326.85 182.895 324.986 182.98 323.09C182.966 321.71 183.257 320.345 183.83 319.09C184.375 317.879 185.27 316.858 186.4 316.16C187.836 315.371 189.464 315.001 191.1 315.09C192.114 315.02 193.132 315.156 194.093 315.49C195.053 315.823 195.937 316.347 196.69 317.03C197.97 318.32 198.69 320.38 198.98 323.2L193.41 323.67C193.357 322.707 193.035 321.778 192.48 320.99C192.231 320.709 191.922 320.488 191.576 320.344C191.229 320.2 190.854 320.137 190.48 320.16C190.192 320.141 189.903 320.186 189.634 320.294C189.366 320.401 189.125 320.567 188.93 320.78C188.579 321.204 188.395 321.74 188.41 322.29C188.405 322.72 188.558 323.136 188.84 323.46C189.401 323.972 190.093 324.318 190.84 324.46C192.803 324.969 194.675 325.779 196.39 326.86C197.464 327.616 198.309 328.654 198.83 329.86C199.35 331.129 199.608 332.489 199.59 333.86C199.614 335.521 199.272 337.166 198.59 338.68C197.994 340.058 197.002 341.227 195.74 342.04C194.345 342.847 192.75 343.243 191.14 343.18C187.893 343.18 185.643 342.287 184.39 340.5C183.047 338.522 182.285 336.208 182.19 333.82Z" fill="white"/>
<path d="M201.17 315.6H219.17V322.33H213.17V342.82H207.26V322.33H201.26L201.17 315.6Z" fill="white"/>
<path d="M220.14 329.23C220.14 324.79 221.01 321.33 222.75 318.85C223.592 317.705 224.69 316.773 225.957 316.128C227.224 315.484 228.624 315.146 230.045 315.14C231.466 315.134 232.869 315.461 234.141 316.095C235.413 316.729 236.519 317.652 237.37 318.79C239.123 321.223 240 324.627 240 329C240.083 331.656 239.701 334.306 238.87 336.83C238.247 338.686 237.118 340.331 235.61 341.58C234.091 342.745 232.214 343.346 230.3 343.28C228.408 343.356 226.538 342.842 224.95 341.81C223.378 340.629 222.183 339.017 221.51 337.17C220.541 334.638 220.076 331.941 220.14 329.23ZM226.05 329.23C226.05 331.983 226.41 333.957 227.13 335.15C227.41 335.687 227.831 336.136 228.349 336.45C228.866 336.764 229.46 336.93 230.065 336.93C230.67 336.93 231.264 336.764 231.781 336.45C232.299 336.136 232.72 335.687 233 335.15C233.7 333.97 234 331.86 234 328.82C234.133 326.885 233.761 324.948 232.92 323.2C232.63 322.658 232.197 322.207 231.668 321.894C231.139 321.582 230.534 321.422 229.92 321.43C229.323 321.437 228.738 321.609 228.232 321.926C227.726 322.244 227.317 322.695 227.05 323.23C226.383 324.483 226.05 326.497 226.05 329.27V329.23Z" fill="white"/>
<path d="M243.11 315.6H252.93C253.849 315.539 254.769 315.706 255.608 316.086C256.448 316.467 257.18 317.048 257.74 317.78C258.911 319.62 259.467 321.784 259.33 323.96C259.465 326.239 258.854 328.499 257.59 330.4C256.961 331.19 256.148 331.814 255.223 332.219C254.297 332.623 253.287 332.795 252.28 332.72H249V342.82H243.07L243.11 315.6ZM249 327.21H250.45C250.888 327.258 251.331 327.207 251.747 327.059C252.163 326.912 252.539 326.673 252.85 326.36C253.329 325.745 253.573 324.979 253.54 324.2C253.588 323.429 253.4 322.661 253 322C252.73 321.674 252.382 321.422 251.989 321.266C251.596 321.11 251.169 321.057 250.75 321.11H249V327.21Z" fill="white"/>
<path d="M411.35 121.75C410.306 121.755 409.266 121.879 408.25 122.12C406.93 119.12 404 117.25 400.05 117.25C397.026 117.324 394.089 118.28 391.6 120C389.92 114.36 384.89 110.59 377.87 110.59C367.87 110.59 357.42 118.23 353.64 127.99C352.716 127.773 351.769 127.666 350.82 127.67H349.88C341.27 128.25 341.88 141.25 350.55 141.25H412C413.064 141.254 414.113 141.007 415.064 140.529C416.014 140.051 416.838 139.356 417.47 138.5C418.531 137.06 419.339 135.451 419.86 133.74C421.76 127.12 418 121.75 411.35 121.75Z" fill="#F0F0F0"/>
<path d="M171.36 64.1301C170.02 55.2501 162.94 49.0601 152.59 49.0601C144.11 49.0601 135.37 53.2101 128.86 59.6001C126.961 57.9536 124.512 57.0825 122 57.1601C114.82 57.1601 107.29 62.9801 105.17 70.1601C104.855 71.2198 104.677 72.3153 104.64 73.4201L104.49 73.5201C98.5499 77.5201 101.49 86.9101 108.73 86.9101H172C173.207 86.9198 174.397 86.6276 175.463 86.06C176.528 85.4924 177.435 84.6674 178.1 83.6601C179.088 82.1516 179.853 80.5079 180.37 78.7801C182.58 71.1401 178.61 64.8501 171.36 64.1301Z" fill="#F0F0F0"/>
<path d="M246.88 163.3C245.04 151.09 235.31 142.58 221.08 142.58C209.41 142.58 197.4 148.29 188.46 157.07C185.857 154.8 182.492 153.6 179.04 153.71C169.18 153.71 158.81 161.71 155.9 171.58C155.467 173.036 155.222 174.542 155.17 176.06L154.97 176.19C146.78 181.76 150.84 194.6 160.74 194.6H244C247.376 194.624 250.67 193.562 253.396 191.57C256.123 189.579 258.136 186.764 259.14 183.54V183.42C262.32 172.93 256.85 164.28 246.88 163.3Z" fill="#F5F5F5"/>
<path d="M250 446.56C357.082 446.56 443.89 441.492 443.89 435.24C443.89 428.988 357.082 423.92 250 423.92C142.917 423.92 56.1099 428.988 56.1099 435.24C56.1099 441.492 142.917 446.56 250 446.56Z" fill="#F5F5F5"/>
<path d="M128.74 147.92H78.54V125.26L128.74 65.59H152.74V126.59H165.19V147.97H152.76V166.51H128.76L128.74 147.92ZM128.74 126.54V95.33L102.22 126.54H128.74Z" fill="#B1BBCB"/>
<path d="M364.91 65.59V166.46H337V100.36C332.928 103.522 328.577 106.307 324 108.68C318.888 111.146 313.579 113.183 308.13 114.77V92.18C317.51 89.1466 324.793 85.5133 329.98 81.28C335.172 77.0366 339.337 71.6725 342.16 65.59H364.91Z" fill="#B1BBCB"/>
<path d="M311.82 192.19C311.38 192.98 311.04 193.55 310.65 194.19C310.26 194.83 309.87 195.43 309.48 196.05C308.69 197.27 307.85 198.45 307 199.63C305.286 201.996 303.446 204.269 301.49 206.44C299.499 208.667 297.357 210.756 295.08 212.69C292.714 214.741 290.144 216.544 287.41 218.07C286.55 218.572 285.65 219.003 284.72 219.36C283.748 219.731 282.744 220.012 281.72 220.2C279.895 220.516 278.037 220.603 276.19 220.46C272.994 220.181 269.854 219.454 266.86 218.3C264.097 217.247 261.422 215.976 258.86 214.5C256.342 213.063 253.935 211.438 251.66 209.64C251.016 209.117 250.579 208.383 250.426 207.568C250.273 206.753 250.415 205.91 250.825 205.19C251.236 204.469 251.889 203.918 252.669 203.634C253.448 203.35 254.302 203.352 255.08 203.64L255.26 203.71C259.969 205.593 264.83 207.068 269.79 208.12C271.976 208.576 274.209 208.76 276.44 208.67C277.311 208.633 278.173 208.474 279 208.2C279.309 208.099 279.607 207.969 279.89 207.81C280.17 207.65 280.22 207.6 280.79 207.21C284.618 204.397 288.051 201.084 291 197.36C292.57 195.44 294.1 193.45 295.55 191.36C296.29 190.36 296.99 189.29 297.7 188.25L298.7 186.69L299.64 185.22L299.8 184.97C300.79 183.456 302.328 182.385 304.091 181.979C305.854 181.574 307.705 181.867 309.256 182.797C310.808 183.727 311.939 185.221 312.414 186.966C312.888 188.712 312.668 190.573 311.8 192.16L311.82 192.19Z" fill="#FF8B7B"/>
<path d="M256.74 204.46L249.07 199.38L245.82 209.58C247.357 210.39 249.084 210.771 250.819 210.683C252.554 210.595 254.233 210.041 255.68 209.08L256.74 204.46Z" fill="#FF8B7B"/>
<path d="M242 200.91L241.4 204.16C241.291 204.736 241.348 205.331 241.564 205.877C241.78 206.422 242.146 206.895 242.62 207.24L245.79 209.58L249.04 199.38L245.96 198.48C245.54 198.356 245.099 198.322 244.664 198.38C244.23 198.438 243.813 198.586 243.44 198.815C243.067 199.044 242.746 199.349 242.498 199.71C242.25 200.071 242.08 200.48 242 200.91Z" fill="#FF8B7B"/>
<path d="M312.06 175.94C304.25 177.17 296.35 186.34 291.6 194.89C294.719 200.328 299.446 204.667 305.13 207.31C305.13 207.31 314.39 198.55 318.13 192.07C321.87 185.59 319.41 174.77 312.06 175.94Z" fill="#F3802D"/>
<path opacity="0.2" d="M312.06 175.94C304.25 177.17 296.35 186.34 291.6 194.89C294.719 200.328 299.446 204.667 305.13 207.31C305.13 207.31 314.39 198.55 318.13 192.07C321.87 185.59 319.41 174.77 312.06 175.94Z" fill="black"/>
<path d="M291.9 192.93C291.177 193.749 290.61 194.695 290.23 195.72C292.18 198.72 296.81 206.72 305.45 208.42C306.29 207.951 306.932 207.195 307.26 206.29C307.26 206.29 297.32 201.39 291.9 192.93Z" fill="#263238"/>
<path d="M343.53 175.67C334.09 174.09 324.476 173.814 314.96 174.85C307.86 175.76 302.56 182.29 302.61 189.44C302.646 196.9 303.315 204.343 304.61 211.69C302 225.44 301.06 244.13 303.81 248.25L353 248.94C355.11 243.06 352.46 217.61 355.27 191.04C355.652 187.463 354.647 183.875 352.463 181.016C350.279 178.157 347.082 176.243 343.53 175.67Z" fill="#F3802D"/>
<path opacity="0.2" d="M325 248.31C322.19 226.18 325 189.17 325 188.79L326 188.87C326 189.24 323.21 226.15 326 248.18L325 248.31Z" fill="black"/>
<path d="M319.65 175.54C321.34 174.91 320.71 173.97 320.71 173.97C320.71 173.97 313.03 173.97 307.71 175.4C306.9 176.26 307.77 177.4 307.77 177.4C307.77 177.4 314.62 177.42 319.65 175.54Z" fill="#263238"/>
<path opacity="0.2" d="M322.79 174C322.79 174 319.62 179.86 323.86 185.19C320.5 185.19 318.33 190.92 318.33 190.92C318.33 190.92 311.77 181.8 320.16 174.51C320.63 173.78 322.79 174 322.79 174Z" fill="black"/>
<path d="M319.4 176.84C318.58 180.42 325.79 187.17 325.79 187.17C325.79 187.17 338.54 181.01 339.35 177.48L319.4 176.84Z" fill="white"/>
<path opacity="0.2" d="M348.18 197.79C346.82 200.41 348.63 211.79 353.88 216.6C353.94 211.9 354.08 206.91 354.38 201.78L348.18 197.79Z" fill="black"/>
<path d="M336.69 156.25L323.53 164.89C325.09 168.71 325.82 172.69 321.32 174.53C320.742 174.762 320.247 175.162 319.898 175.678C319.55 176.194 319.363 176.802 319.363 177.425C319.363 178.048 319.55 178.656 319.898 179.172C320.247 179.688 320.742 180.088 321.32 180.32C322.646 180.802 324.033 181.095 325.44 181.19C329.67 181.6 333.934 180.911 337.82 179.19C338.229 178.986 338.589 178.694 338.874 178.337C339.16 177.979 339.364 177.564 339.472 177.119C339.581 176.675 339.591 176.212 339.503 175.763C339.414 175.314 339.229 174.89 338.96 174.52C335.51 169.64 335.93 161.16 336.69 156.25Z" fill="#FF8B7B"/>
<path opacity="0.2" d="M331.33 159.77L323.54 164.88C323.978 165.925 324.313 167.01 324.54 168.12C327.65 167.94 331.71 165.48 331.79 162.91C331.867 161.842 331.71 160.771 331.33 159.77Z" fill="black"/>
<path d="M322.08 139.77C325.43 139.7 326.34 144.51 325.08 146.14C327.62 146.69 328.85 149.66 328.08 151.14C327.31 152.62 324.37 154.29 321.75 153.63C317.26 152.51 316.49 148.78 317.75 147.08C315.35 145.1 316.57 139 322.08 139.77Z" fill="#263238"/>
<path opacity="0.2" d="M322.08 139.77C325.43 139.7 326.34 144.51 325.08 146.14C327.62 146.69 328.85 149.66 328.08 151.14C327.31 152.62 324.37 154.29 321.75 153.63C317.26 152.51 316.49 148.78 317.75 147.08C315.35 145.1 316.57 139 322.08 139.77Z" fill="white"/>
<path d="M341 147.7C340 155.59 339.81 160.26 335.54 164.04C329.11 169.71 319.54 165.35 318.18 157.29C316.94 150.04 318.79 138.35 326.76 135.77C328.526 135.208 330.405 135.101 332.223 135.46C334.041 135.818 335.739 136.63 337.16 137.82C338.58 139.01 339.677 140.54 340.348 142.267C341.02 143.994 341.244 145.863 341 147.7Z" fill="#FF8B7B"/>
<path d="M340.05 153.73C336.7 153.73 335.96 148.85 337.24 147.27C334.72 146.62 333.6 143.61 334.38 142.13C335.16 140.65 338.19 139.13 340.79 139.86C345.24 141.14 345.89 144.86 344.6 146.55C347 148.65 345.53 154.67 340.05 153.73Z" fill="#263238"/>
<path opacity="0.2" d="M340.05 153.73C336.7 153.73 335.96 148.85 337.24 147.27C334.72 146.62 333.6 143.61 334.38 142.13C335.16 140.65 338.19 139.13 340.79 139.86C345.24 141.14 345.89 144.86 344.6 146.55C347 148.65 345.53 154.67 340.05 153.73Z" fill="white"/>
<path opacity="0.2" d="M332 149C332.402 148.891 332.822 148.862 333.236 148.915C333.649 148.968 334.048 149.102 334.41 149.31C333.594 149.362 332.776 149.257 332 149Z" fill="black"/>
<path opacity="0.2" d="M332 149.54C332.381 149.519 332.762 149.581 333.116 149.723C333.47 149.864 333.789 150.082 334.05 150.36C333.317 150.234 332.618 149.954 332 149.54Z" fill="black"/>
<path opacity="0.2" d="M319.47 148.39C319.378 148.336 319.276 148.3 319.17 148.287C319.064 148.273 318.957 148.281 318.854 148.31C318.751 148.339 318.655 148.388 318.572 148.455C318.489 148.522 318.42 148.606 318.37 148.7C318.763 148.746 319.159 148.634 319.47 148.39Z" fill="black"/>
<path opacity="0.2" d="M319.48 149C319.48 149 318.87 148.91 318.55 149.82C318.933 149.642 319.256 149.357 319.48 149Z" fill="black"/>
<path d="M343.38 155.74C342.462 157.391 340.955 158.633 339.16 159.22C336.88 159.88 335.97 157.6 336.79 155.22C337.54 153.09 339.61 150.17 341.79 150.56C343.97 150.95 344.58 153.63 343.38 155.74Z" fill="#FF8B7B"/>
<path d="M330.4 149C330.4 149.64 329.99 150.14 329.56 150.11C329.13 150.08 328.83 149.53 328.88 148.88C328.93 148.23 329.29 147.74 329.72 147.77C330.15 147.8 330.45 148.37 330.4 149Z" fill="#263238"/>
<path d="M327.2 160.75C326.38 160.91 325.63 160.59 325.53 160.05C325.43 159.51 326.03 158.95 326.85 158.79C327.67 158.63 328.42 158.95 328.52 159.49C328.62 160.03 328 160.6 327.2 160.75Z" fill="#263238"/>
<path d="M321.65 148.31C321.65 148.95 321.23 149.45 320.81 149.42C320.39 149.39 320.07 148.84 320.12 148.19C320.17 147.54 320.54 147.05 320.96 147.08C321.38 147.11 321.69 147.66 321.65 148.31Z" fill="#263238"/>
<path d="M323.64 154.75C318.96 155.07 318.06 157.35 318.88 158.35C319.7 159.35 321.7 158.35 321.7 158.35C321.7 158.35 325.49 159.16 326.6 157.95C328.39 158.71 331.12 157.29 330.35 156.21C329.58 155.13 327.65 154.47 323.64 154.75Z" fill="#263238"/>
<path opacity="0.2" d="M323.64 154.75C318.96 155.07 318.06 157.35 318.88 158.35C319.7 159.35 321.7 158.35 321.7 158.35C321.7 158.35 325.49 159.16 326.6 157.95C328.39 158.71 331.12 157.29 330.35 156.21C329.58 155.13 327.65 154.47 323.64 154.75Z" fill="white"/>
<path d="M323.78 149C322.881 150.915 321.72 152.695 320.33 154.29C320.75 154.637 321.24 154.89 321.766 155.029C322.293 155.169 322.843 155.193 323.38 155.1L323.78 149Z" fill="#FF5652"/>
<path d="M331.81 145.64C331.874 145.632 331.935 145.612 331.99 145.58C332.033 145.553 332.069 145.517 332.097 145.476C332.126 145.434 332.146 145.387 332.156 145.338C332.166 145.289 332.167 145.238 332.157 145.188C332.147 145.139 332.128 145.092 332.1 145.05C331.781 144.532 331.342 144.099 330.819 143.788C330.297 143.476 329.707 143.295 329.1 143.26C328.999 143.26 328.903 143.3 328.832 143.371C328.76 143.443 328.72 143.539 328.72 143.64C328.72 143.741 328.76 143.837 328.832 143.909C328.903 143.98 328.999 144.02 329.1 144.02C329.579 144.055 330.041 144.204 330.45 144.454C330.859 144.705 331.202 145.05 331.45 145.46C331.487 145.521 331.541 145.57 331.604 145.602C331.668 145.633 331.739 145.647 331.81 145.64Z" fill="#263238"/>
<path d="M318.78 144.89C318.843 144.889 318.905 144.873 318.96 144.843C319.016 144.814 319.064 144.772 319.1 144.72C319.356 144.32 319.703 143.986 320.114 143.746C320.524 143.506 320.986 143.367 321.46 143.34C321.561 143.34 321.658 143.3 321.729 143.229C321.8 143.158 321.84 143.061 321.84 142.96C321.84 142.859 321.8 142.763 321.729 142.691C321.658 142.62 321.561 142.58 321.46 142.58C320.859 142.604 320.272 142.773 319.749 143.073C319.227 143.372 318.785 143.793 318.46 144.3C318.432 144.341 318.413 144.387 318.404 144.436C318.394 144.485 318.395 144.535 318.405 144.583C318.415 144.632 318.435 144.678 318.464 144.718C318.492 144.759 318.528 144.794 318.57 144.82C318.63 144.867 318.704 144.892 318.78 144.89Z" fill="#263238"/>
<path d="M331.69 329.8C333.93 293.72 333.43 256.7 329.54 248.64L303.79 248.25C303.79 248.25 307 308.57 308 332.6C309.05 357.6 311.29 422.6 311.29 422.6L326.19 422.78C326.19 422.78 334.93 357.71 331.69 329.8Z" fill="#4F5D64"/>
<path opacity="0.2" d="M332.8 274.65C324.01 284.25 328.12 310.83 331.95 325.47C333 307.16 333.28 288.93 332.8 274.65Z" fill="black"/>
<path d="M326 424.66L312.9 424.49C312.071 424.448 311.252 424.691 310.58 425.18C306.78 428.18 303.89 428.27 299.58 429.04C294.41 429.97 296.97 435.17 300.78 435.23C307.08 435.33 306.55 435.1 311.93 435.18L315.65 435.23L317.33 433.52L318.82 435.23H325.7C325.879 435.234 326.056 435.2 326.221 435.13C326.385 435.06 326.533 434.955 326.654 434.824C326.775 434.692 326.867 434.537 326.923 434.367C326.979 434.197 326.999 434.018 326.98 433.84L326 424.66Z" fill="#263238"/>
<path d="M327 426C326.77 426 309.81 425.46 309.81 425.46L309.12 419.37L327.93 419.79L327 426Z" fill="#F3802D"/>
<path d="M361.93 329.8C359.17 293.72 358 257 353 248.94L321.95 248.54C321.95 248.54 334.3 308.54 338.64 332.6C343.15 357.6 355.29 422.6 355.29 422.6L370.22 422.78C370.22 422.78 369 357.71 361.93 329.8Z" fill="#4F5D64"/>
<path d="M370.93 424.66L357.82 424.49C356.994 424.449 356.179 424.693 355.51 425.18C351.71 428.18 353.45 428.27 349.14 429.04C343.97 429.97 346.52 435.17 350.33 435.23C356.63 435.33 356.11 435.1 361.48 435.18L367.32 435.23L368.09 433.52L369.09 435.23H370.63C370.806 435.23 370.98 435.192 371.141 435.12C371.302 435.048 371.446 434.944 371.564 434.813C371.681 434.682 371.77 434.527 371.825 434.36C371.879 434.192 371.898 434.015 371.88 433.84L370.93 424.66Z" fill="#263238"/>
<path d="M371.92 426C371.68 426 354.65 425.46 354.65 425.46L353 419.33L371.87 419.75L371.92 426Z" fill="#F3802D"/>
<path d="M323.31 173.29C323.31 173.29 319.62 179.86 323.86 185.19C320.5 185.19 318.3 188.83 318.3 188.83C318.3 188.83 313.83 179.83 320.44 173.83C320.9 173.15 323.31 173.29 323.31 173.29Z" fill="#F3802D"/>
<path d="M354.33 251.68C336.76 252.41 316.61 252.63 304.01 251.68C303.941 251.677 303.873 251.659 303.813 251.626C303.752 251.593 303.7 251.546 303.66 251.49C302.834 250.09 302.453 248.472 302.57 246.85C302.58 246.731 302.635 246.62 302.725 246.54C302.814 246.46 302.93 246.417 303.05 246.42C319.68 246.87 336.21 246.85 353.59 246.42C353.685 246.418 353.779 246.445 353.859 246.497C353.939 246.548 354.002 246.623 354.04 246.71C354.621 248.15 354.874 249.701 354.78 251.25C354.772 251.365 354.722 251.473 354.639 251.553C354.555 251.632 354.445 251.678 354.33 251.68Z" fill="#263238"/>
<path opacity="0.2" d="M354.33 251.68C336.76 252.41 316.61 252.63 304.01 251.68C303.941 251.677 303.873 251.659 303.813 251.626C303.752 251.593 303.7 251.546 303.66 251.49C302.834 250.09 302.453 248.472 302.57 246.85C302.58 246.731 302.635 246.62 302.725 246.54C302.814 246.46 302.93 246.417 303.05 246.42C319.68 246.87 336.21 246.85 353.59 246.42C353.685 246.418 353.779 246.445 353.859 246.497C353.939 246.548 354.002 246.623 354.04 246.71C354.621 248.15 354.874 249.701 354.78 251.25C354.772 251.365 354.722 251.473 354.639 251.553C354.555 251.632 354.445 251.678 354.33 251.68Z" fill="black"/>
<path d="M320 246.14C319.792 248.351 319.971 250.581 320.53 252.73C324.34 253.32 332.16 252.88 332.16 252.88C332.273 250.664 332.193 248.442 331.92 246.24C325.92 246 320 246.14 320 246.14Z" fill="white"/>
<path d="M355.13 185.72L355.7 186.23L356.15 186.65L357 187.47C357.55 188.01 358.05 188.55 358.56 189.1C359.56 190.19 360.51 191.32 361.41 192.46C363.208 194.718 364.878 197.075 366.41 199.52C369.396 204.351 371.917 209.454 373.94 214.76C374.21 215.47 374.42 215.9 374.8 217.11C375.101 218.089 375.315 219.093 375.44 220.11C375.624 221.89 375.601 223.685 375.37 225.46C374.94 228.518 374.134 231.51 372.97 234.37C371.906 237.024 370.656 239.601 369.23 242.08C367.834 244.516 366.273 246.855 364.56 249.08C364.051 249.733 363.327 250.185 362.516 250.354C361.705 250.523 360.86 250.4 360.132 250.005C359.404 249.61 358.84 248.97 358.539 248.198C358.238 247.427 358.221 246.573 358.49 245.79L358.55 245.62C360.285 240.925 361.698 236.117 362.78 231.23C363.271 229.047 363.526 226.818 363.54 224.58C363.542 223.713 363.435 222.85 363.22 222.01C362.975 221.249 362.639 220.521 362.22 219.84C360.015 215.419 357.513 211.152 354.73 207.07C353.36 205.07 351.9 203.07 350.4 201.25C349.65 200.31 348.87 199.42 348.1 198.54L346.94 197.27L346.38 196.68L346.12 196.41L345.95 196.25C344.549 195.031 343.688 193.306 343.559 191.453C343.43 189.6 344.042 187.772 345.26 186.37C346.479 184.968 348.204 184.108 350.057 183.979C351.91 183.849 353.739 184.461 355.14 185.68L355.13 185.72Z" fill="#FF8B7B"/>
<path d="M346.51 177.06C354.3 178.41 362.06 187.69 366.69 196.31C363.497 201.698 358.715 205.967 353 208.53C353 208.53 343.86 199.63 340.21 193.11C336.56 186.59 339.18 175.79 346.51 177.06Z" fill="#F3802D"/>
<path d="M366.42 194.34C367.129 195.174 367.681 196.13 368.05 197.16C366.05 200.16 361.31 208.09 352.64 209.64C351.81 209.156 351.181 208.389 350.87 207.48C350.87 207.48 360.88 202.72 366.42 194.34Z" fill="#263238"/>
<path d="M340.87 176.36C339.26 175.67 339.87 174.76 339.87 174.76C339.87 174.76 347.28 175.02 352.35 176.63C353.1 177.52 352.22 178.63 352.22 178.63C352.22 178.63 345.65 178.41 340.87 176.36Z" fill="#263238"/>
<path opacity="0.2" d="M338.93 174.56C338.93 174.56 337.25 180.42 329.57 185.2C332.93 185.2 335.18 191.33 335.18 191.33C335.18 191.33 342.18 183.11 340.56 175C340.09 174.28 338.93 174.56 338.93 174.56Z" fill="black"/>
<path d="M338.71 173.5C338.71 173.5 336.71 179.84 329.57 185.2C332.93 185.2 335.26 188.83 335.26 188.83C335.26 188.83 342.14 183.11 340.56 175C340.037 174.394 339.411 173.887 338.71 173.5Z" fill="#F3802D"/>
<path d="M345.91 197.57C345.45 206.21 339.98 208.27 339.21 208.27C338.44 208.27 333.21 206.21 333.67 197.57L339.92 195.11L345.91 197.57Z" fill="white"/>
<path d="M359.37 245.1L353.21 250.4L361.38 255.71C361.38 255.71 366.38 250.23 363.9 247.11L359.37 245.1Z" fill="#FF8B7B"/>
<path d="M352.52 258.81L355.69 260.18C356.302 260.446 356.988 260.487 357.627 260.295C358.267 260.102 358.817 259.69 359.18 259.13L361.38 255.71L353.21 250.4L351.08 255.05C350.924 255.391 350.838 255.759 350.826 256.134C350.814 256.509 350.877 256.882 351.011 257.232C351.145 257.582 351.347 257.902 351.607 258.173C351.866 258.444 352.176 258.661 352.52 258.81Z" fill="#FF8B7B"/>
<path d="M317.7 138.13C312.21 138.88 314.05 140.62 326.29 142.18C338.53 143.74 341.6 142.51 341.6 142.51C341.6 142.51 327.54 138.1 317.7 138.13Z" fill="#263238"/>
<path d="M345.39 144.89C345.39 144.89 334.64 140.52 317.7 138.13C317.49 135.64 319.54 133 319.54 133C319.54 133 315.76 131.11 316.93 127.5C318.1 123.89 323.51 124.36 329.82 121.5C332.13 124.04 338.48 128.17 342.82 128.7C343.89 130.91 346.69 136.44 351.23 138.57C351.16 140.98 346.65 141.57 346.65 141.57C346.671 142.179 346.57 142.787 346.354 143.356C346.137 143.926 345.81 144.448 345.39 144.89Z" fill="#F3802D"/>
<path opacity="0.3" d="M346.64 141.57C342.71 138 328.75 131.48 319.54 133C319.54 133 317.49 135.65 317.7 138.13C334.64 140.52 345.39 144.89 345.39 144.89C345.808 144.447 346.133 143.925 346.348 143.355C346.563 142.785 346.662 142.179 346.64 141.57Z" fill="black"/>
<path d="M331.44 128.84C330.23 135 326.03 136.11 325.44 136.05C324.85 135.99 321.25 134.17 322.44 128.05L327.27 126.71L331.44 128.84Z" fill="white"/>
<path d="M251.75 229.78C251.14 229.78 250.55 229.556 250.093 229.15C249.636 228.745 249.344 228.186 249.27 227.58L242.13 169.39C242.049 168.727 242.235 168.059 242.647 167.533C243.059 167.007 243.662 166.666 244.325 166.585C244.988 166.504 245.656 166.69 246.182 167.102C246.708 167.513 247.049 168.117 247.13 168.78L254.23 227C254.272 227.326 254.249 227.657 254.163 227.974C254.076 228.291 253.928 228.588 253.726 228.847C253.525 229.106 253.273 229.323 252.988 229.485C252.702 229.647 252.387 229.751 252.06 229.79L251.75 229.78Z" fill="#263238"/>
<path d="M250.16 203.6C249.55 201.36 250.7 201.03 249.59 197.85C249 196.16 250.94 194.85 251.18 196.21C252.08 201.16 258.65 203.93 256.37 207.06C254.09 210.19 250.76 205.84 250.16 203.6Z" fill="#FF8B7B"/>
<path d="M294.729 119.786C296.69 88.5278 272.94 61.5979 241.681 59.6367C210.423 57.6756 183.493 81.4259 181.531 112.684C179.57 143.943 203.321 170.873 234.579 172.834C265.838 174.795 292.768 151.045 294.729 119.786Z" fill="#F3802D"/>
<path d="M281.286 131.521C289.734 107.678 277.254 81.5021 253.412 73.0544C229.57 64.6067 203.393 77.0865 194.946 100.929C186.498 124.771 198.978 150.947 222.82 159.395C246.663 167.843 272.839 155.363 281.286 131.521Z" fill="white"/>
<path d="M267.87 108.49C264.11 103.41 256.87 108.49 254.7 113.83C254.111 115.155 253.723 116.56 253.55 118L251.16 101.69L249.27 86.2301C249.071 84.9034 248.362 83.7068 247.294 82.8949C246.226 82.083 244.884 81.7199 243.552 81.8827C242.22 82.0456 241.005 82.7216 240.164 83.767C239.323 84.8123 238.924 86.1445 239.05 87.4801L238.58 83.6301C238.497 82.9597 238.283 82.3121 237.95 81.7244C237.617 81.1367 237.172 80.6203 236.639 80.2048C236.107 79.7893 235.498 79.4827 234.847 79.3026C234.196 79.1225 233.515 79.0723 232.845 79.1551C232.175 79.2378 231.527 79.4518 230.939 79.7847C230.352 80.1177 229.835 80.5632 229.42 81.0958C229.004 81.6283 228.698 82.2375 228.518 82.8885C228.337 83.5395 228.287 84.2197 228.37 84.8901L229.03 90.2501C228.94 89.5246 228.697 88.8265 228.317 88.2022C227.937 87.578 227.428 87.0418 226.825 86.6293C226.221 86.2169 225.537 85.9377 224.817 85.8102C224.097 85.6827 223.359 85.71 222.65 85.8901C221.437 86.2013 220.379 86.9431 219.672 87.9771C218.965 89.0111 218.659 90.2668 218.81 91.5101L219.63 98.2001C219.542 97.4739 219.3 96.7749 218.92 96.1498C218.54 95.5247 218.031 94.9878 217.428 94.5751C216.824 94.1624 216.139 93.8833 215.418 93.7566C214.698 93.6298 213.959 93.6583 213.25 93.8401C212.039 94.1493 210.981 94.8896 210.276 95.9222C209.571 96.9549 209.267 98.2091 209.42 99.4501L211.06 112.82L212.23 122.41L213.78 135C214.88 144 218.39 149.08 223.6 151.37C231.6 154.88 246.25 154.92 252.83 149.58C258.59 144.91 262.29 133.66 263.18 126.69C264.07 119.72 269.4 110.54 267.87 108.49Z" fill="#263238"/>
<path d="M276.513 76.7442L267.176 69.447L199.728 155.746L209.064 163.043L276.513 76.7442Z" fill="#F3802D"/>
<path d="M80.4399 199.08V180.88H93.6099V183H82.8499V188.58H92.9199V190.72H82.8499V196.91H93.9999V199.06L80.4399 199.08Z" fill="#B1BBCB"/>
<path d="M97.0503 199.08V185.89H99.0503V187.89C99.3873 187.18 99.8713 186.549 100.47 186.04C100.888 185.744 101.388 185.587 101.9 185.59C102.72 185.613 103.517 185.866 104.2 186.32L103.43 188.39C102.937 188.084 102.37 187.918 101.79 187.91C101.316 187.902 100.854 188.058 100.48 188.35C100.079 188.658 99.7847 189.085 99.6403 189.57C99.3887 190.417 99.264 191.297 99.2703 192.18V199.08H97.0503Z" fill="#B1BBCB"/>
<path d="M105.52 199.08V185.89H107.52V187.89C107.87 187.16 108.375 186.515 109 186C109.419 185.706 109.918 185.548 110.43 185.55C111.25 185.573 112.047 185.826 112.73 186.28L111.96 188.35C111.467 188.044 110.9 187.878 110.32 187.87C109.846 187.862 109.383 188.018 109.01 188.31C108.608 188.618 108.314 189.045 108.17 189.53C107.918 190.377 107.794 191.257 107.8 192.14V199.04L105.52 199.08Z" fill="#B1BBCB"/>
<path d="M113.18 192.49C113.18 190.05 113.847 188.24 115.18 187.06C116.33 186.073 117.806 185.549 119.32 185.59C120.146 185.561 120.969 185.705 121.735 186.013C122.501 186.322 123.195 186.787 123.77 187.38C124.369 188.046 124.83 188.823 125.126 189.667C125.423 190.512 125.55 191.406 125.5 192.3C125.562 193.675 125.298 195.046 124.73 196.3C124.234 197.259 123.46 198.047 122.51 198.56C121.535 199.102 120.436 199.381 119.32 199.37C118.493 199.403 117.668 199.263 116.898 198.958C116.128 198.653 115.43 198.191 114.85 197.6C113.645 196.181 113.046 194.346 113.18 192.49ZM115.48 192.49C115.379 193.845 115.769 195.19 116.58 196.28C116.927 196.675 117.353 196.992 117.832 197.209C118.31 197.426 118.83 197.538 119.355 197.538C119.881 197.538 120.4 197.426 120.879 197.209C121.357 196.992 121.784 196.675 122.13 196.28C122.953 195.165 123.347 193.791 123.24 192.41C123.335 191.082 122.94 189.766 122.13 188.71C121.783 188.316 121.356 188.001 120.878 187.785C120.399 187.569 119.88 187.457 119.355 187.457C118.83 187.457 118.311 187.569 117.833 187.785C117.354 188.001 116.927 188.316 116.58 188.71C115.771 189.797 115.381 191.139 115.48 192.49Z" fill="#B1BBCB"/>
<path d="M128.13 199.08V185.89H130.13V187.89C130.464 187.178 130.948 186.546 131.55 186.04C131.968 185.744 132.468 185.587 132.98 185.59C133.8 185.613 134.597 185.866 135.28 186.32L134.51 188.39C134.017 188.085 133.45 187.919 132.87 187.91C132.393 187.902 131.928 188.058 131.55 188.35C131.152 188.659 130.861 189.086 130.72 189.57C130.464 190.416 130.339 191.296 130.35 192.18V199.08H128.13Z" fill="#B1BBCB"/>
<path d="M88.7502 221.69V219.75C88.3045 220.454 87.6846 221.031 86.9506 221.425C86.2165 221.819 85.3932 222.017 84.5602 222C83.8131 222.006 83.0734 221.852 82.3902 221.55C81.797 221.316 81.2761 220.93 80.8802 220.43C80.5418 219.928 80.3072 219.364 80.1902 218.77C80.0842 218.079 80.0407 217.379 80.0602 216.68V208.5H82.2902V215.81C82.2651 216.599 82.3119 217.389 82.4302 218.17C82.5507 218.725 82.8665 219.218 83.3202 219.56C83.8156 219.903 84.4079 220.078 85.0102 220.06C85.6744 220.062 86.327 219.886 86.9002 219.55C87.4602 219.23 87.8995 218.734 88.1502 218.14C88.4264 217.313 88.5484 216.441 88.5102 215.57V208.5H90.7502V221.69H88.7502Z" fill="#B1BBCB"/>
<path d="M94.25 221.69V208.5H96.25V210.37C96.7004 209.674 97.3249 209.107 98.0616 208.727C98.7982 208.346 99.6216 208.165 100.45 208.2C101.202 208.189 101.948 208.335 102.64 208.63C103.233 208.86 103.751 209.247 104.14 209.75C104.482 210.251 104.72 210.815 104.84 211.41C104.94 212.129 104.98 212.855 104.96 213.58V221.69H102.73V213.69C102.757 213.013 102.665 212.336 102.46 211.69C102.285 211.236 101.961 210.855 101.54 210.61C101.068 210.333 100.527 210.195 99.98 210.21C99.0738 210.195 98.194 210.515 97.51 211.11C96.82 211.72 96.51 212.87 96.51 214.56V221.76L94.25 221.69Z" fill="#B1BBCB"/>
<path d="M117 220.06C116.292 220.692 115.48 221.196 114.6 221.55C113.814 221.847 112.98 221.996 112.14 221.99C110.931 222.068 109.738 221.686 108.8 220.92C108.418 220.582 108.116 220.164 107.913 219.695C107.711 219.227 107.615 218.72 107.63 218.21C107.624 217.609 107.767 217.016 108.046 216.484C108.326 215.952 108.732 215.497 109.23 215.16C109.721 214.824 110.266 214.574 110.84 214.42C111.5 214.272 112.168 214.162 112.84 214.09C114.196 213.966 115.535 213.708 116.84 213.32C116.84 213.01 116.84 212.82 116.84 212.73C116.877 212.384 116.84 212.033 116.731 211.702C116.623 211.371 116.445 211.067 116.21 210.81C115.483 210.251 114.575 209.98 113.66 210.05C112.845 209.991 112.032 210.183 111.33 210.6C110.739 211.117 110.346 211.825 110.22 212.6L108.04 212.3C108.188 211.478 108.531 210.702 109.04 210.04C109.564 209.413 110.259 208.951 111.04 208.71C112.005 208.381 113.02 208.222 114.04 208.24C114.973 208.208 115.905 208.343 116.79 208.64C117.385 208.833 117.919 209.177 118.34 209.64C118.692 210.083 118.933 210.604 119.04 211.16C119.13 211.843 119.167 212.532 119.15 213.22V216.22C119.116 217.555 119.163 218.891 119.29 220.22C119.393 220.774 119.585 221.308 119.86 221.8H117.52C117.235 221.259 117.059 220.668 117 220.06ZM116.81 215.06C115.629 215.478 114.405 215.76 113.16 215.9C112.478 215.969 111.806 216.12 111.16 216.35C110.8 216.499 110.493 216.753 110.28 217.08C110.073 217.394 109.965 217.764 109.97 218.14C109.965 218.422 110.022 218.703 110.138 218.96C110.254 219.218 110.425 219.447 110.64 219.63C111.209 220.072 111.922 220.286 112.64 220.23C113.443 220.245 114.236 220.048 114.94 219.66C115.583 219.31 116.1 218.768 116.42 218.11C116.697 217.401 116.819 216.64 116.78 215.88L116.81 215.06Z" fill="#B1BBCB"/>
<path d="M131.19 221.69V219.75C130.745 220.454 130.125 221.031 129.391 221.425C128.657 221.819 127.833 222.017 127 222C126.25 222.005 125.507 221.851 124.82 221.55C124.231 221.313 123.714 220.927 123.32 220.43C122.974 219.933 122.738 219.366 122.63 218.77C122.52 218.079 122.473 217.379 122.49 216.68V208.5H124.73V215.81C124.705 216.599 124.752 217.389 124.87 218.17C124.991 218.725 125.307 219.218 125.76 219.56C126.256 219.903 126.848 220.078 127.45 220.06C128.115 220.062 128.767 219.886 129.34 219.55C129.9 219.23 130.34 218.734 130.59 218.14C130.867 217.313 130.989 216.441 130.95 215.57V208.5H133.19V221.69H131.19Z" fill="#B1BBCB"/>
<path d="M141.57 219.69L141.9 221.69C141.346 221.818 140.779 221.885 140.21 221.89C139.558 221.924 138.908 221.793 138.32 221.51C137.905 221.286 137.572 220.936 137.37 220.51C137.135 219.654 137.043 218.766 137.1 217.88V210.29H135.46V208.5H137.1V205.23L139.32 203.89V208.5H141.57V210.24H139.32V218C139.293 218.414 139.333 218.829 139.44 219.23C139.519 219.412 139.656 219.564 139.83 219.66C140.063 219.785 140.326 219.844 140.59 219.83C140.92 219.807 141.247 219.76 141.57 219.69Z" fill="#B1BBCB"/>
<path d="M143.76 221.69V203.48H146V210C146.48 209.421 147.084 208.957 147.768 208.643C148.452 208.33 149.198 208.175 149.95 208.19C150.835 208.166 151.712 208.366 152.5 208.77C153.178 209.115 153.723 209.674 154.05 210.36C154.409 211.318 154.566 212.339 154.51 213.36V221.72H152.28V213.36C152.355 212.484 152.094 211.611 151.55 210.92C151.279 210.657 150.955 210.453 150.601 210.322C150.246 210.191 149.868 210.136 149.49 210.16C148.833 210.16 148.187 210.336 147.62 210.67C147.064 210.987 146.628 211.479 146.38 212.07C146.097 212.848 145.968 213.673 146 214.5V221.72L143.76 221.69Z" fill="#B1BBCB"/>
<path d="M157.07 215.09C157.07 212.65 157.737 210.843 159.07 209.67C160.223 208.682 161.702 208.158 163.22 208.2C164.051 208.17 164.879 208.314 165.651 208.624C166.423 208.934 167.121 209.403 167.7 210C168.3 210.667 168.761 211.446 169.058 212.292C169.355 213.138 169.481 214.035 169.43 214.93C169.491 216.304 169.231 217.674 168.67 218.93C168.174 219.895 167.396 220.687 166.44 221.2C165.468 221.74 164.372 222.02 163.26 222.01C162.43 222.045 161.602 221.904 160.83 221.598C160.058 221.291 159.36 220.825 158.78 220.23C157.552 218.811 156.937 216.962 157.07 215.09ZM159.37 215.09C159.269 216.448 159.659 217.796 160.47 218.89C160.812 219.294 161.24 219.617 161.723 219.835C162.205 220.053 162.731 220.161 163.26 220.15C163.787 220.16 164.31 220.051 164.79 219.831C165.27 219.611 165.693 219.286 166.03 218.88C166.847 217.766 167.237 216.397 167.13 215.02C167.226 213.689 166.831 212.37 166.02 211.31C165.674 210.915 165.247 210.598 164.768 210.381C164.29 210.164 163.77 210.052 163.245 210.052C162.72 210.052 162.2 210.164 161.722 210.381C161.243 210.598 160.816 210.915 160.47 211.31C159.657 212.395 159.266 213.738 159.37 215.09Z" fill="#B1BBCB"/>
<path d="M172 221.69V208.5H174V210.5C174.331 209.786 174.816 209.154 175.42 208.65C175.838 208.354 176.338 208.197 176.85 208.2C177.669 208.219 178.466 208.469 179.15 208.92L178.38 211C177.89 210.687 177.322 210.517 176.74 210.51C176.266 210.505 175.805 210.66 175.43 210.95C175.031 211.26 174.737 211.686 174.59 212.17C174.339 213.017 174.215 213.897 174.22 214.78V221.69H172Z" fill="#B1BBCB"/>
<path d="M180.53 206.05V203.48H182.77V206.05H180.53ZM180.53 221.69V208.5H182.77V221.69H180.53Z" fill="#B1BBCB"/>
<path d="M185 221.69V219.88L193.4 210.24C192.4 210.24 191.6 210.31 190.88 210.31H185.5V208.5H196.28V210L189.14 218.37L187.76 219.9C188.76 219.82 189.7 219.78 190.58 219.78H196.68V221.71L185 221.69Z" fill="#B1BBCB"/>
<path d="M207.92 217.44L210.23 217.73C209.936 218.972 209.232 220.079 208.23 220.87C207.131 221.649 205.806 222.043 204.46 221.99C203.612 222.034 202.764 221.896 201.973 221.588C201.182 221.279 200.465 220.806 199.87 220.2C198.667 218.823 198.056 217.026 198.17 215.2C198.055 213.319 198.671 211.467 199.89 210.03C200.454 209.422 201.143 208.943 201.909 208.626C202.675 208.308 203.501 208.16 204.33 208.19C205.138 208.163 205.943 208.309 206.691 208.62C207.438 208.93 208.109 209.398 208.66 209.99C209.847 211.403 210.445 213.218 210.33 215.06C210.33 215.19 210.33 215.39 210.33 215.66H200.49C200.494 216.877 200.93 218.054 201.72 218.98C202.073 219.356 202.501 219.654 202.977 219.853C203.452 220.053 203.964 220.151 204.48 220.14C205.232 220.16 205.97 219.931 206.58 219.49C207.216 218.951 207.681 218.239 207.92 217.44ZM200.58 213.83H207.94C207.916 212.932 207.623 212.061 207.1 211.33C206.769 210.916 206.347 210.583 205.867 210.36C205.386 210.136 204.86 210.026 204.33 210.04C203.853 210.024 203.378 210.104 202.933 210.276C202.488 210.447 202.082 210.707 201.74 211.04C201.01 211.787 200.594 212.786 200.58 213.83Z" fill="#B1BBCB"/>
<path d="M221.59 221.69V220C221.213 220.636 220.671 221.157 220.021 221.509C219.372 221.862 218.639 222.031 217.9 222C216.868 222.005 215.859 221.702 215 221.13C214.103 220.528 213.392 219.686 212.95 218.7C212.452 217.573 212.206 216.352 212.23 215.12C212.214 213.892 212.438 212.672 212.89 211.53C213.279 210.519 213.98 209.657 214.89 209.07C215.764 208.5 216.787 208.201 217.83 208.21C218.571 208.198 219.303 208.369 219.96 208.71C220.554 209.03 221.069 209.477 221.47 210.02V203.49H223.7V221.7L221.59 221.69ZM214.53 215.11C214.425 216.456 214.8 217.795 215.59 218.89C215.888 219.276 216.27 219.59 216.706 219.808C217.142 220.026 217.622 220.143 218.11 220.15C218.589 220.152 219.062 220.046 219.494 219.838C219.925 219.63 220.304 219.326 220.6 218.95C221.358 217.888 221.712 216.59 221.6 215.29C221.731 213.882 221.379 212.471 220.6 211.29C220.299 210.894 219.911 210.573 219.465 210.352C219.019 210.132 218.528 210.018 218.03 210.02C217.549 210.015 217.073 210.123 216.641 210.335C216.208 210.547 215.831 210.857 215.54 211.24C214.771 212.377 214.414 213.742 214.53 215.11Z" fill="#B1BBCB"/>
</svg>
