<svg width="17" height="18" viewBox="0 0 17 18" fill="none" xmlns="http://www.w3.org/2000/svg">
<path d="M0.141891 9.1418C0.169936 10.7485 0.673802 12.3109 1.58977 13.6312C2.50574 14.9516 3.79267 15.9707 5.28783 16.5596C6.78299 17.1486 8.41921 17.281 9.9896 16.94C11.56 16.599 12.994 15.8001 14.1103 14.6441C15.2266 13.4881 15.975 12.0271 16.261 10.4458C16.5469 8.86446 16.3575 7.23385 15.7168 5.76016C15.076 4.28647 14.0126 3.03589 12.6611 2.16656C11.3095 1.29722 9.73058 0.848189 8.12385 0.876235C5.97003 0.916106 3.92 1.80878 2.42357 3.35837C0.927149 4.90796 0.106569 6.9879 0.141891 9.1418ZM8.64552 5.42564L11.1888 7.88162C11.3081 7.99683 11.3767 8.15472 11.3796 8.32055C11.3825 8.48637 11.3194 8.64656 11.2042 8.76587C11.089 8.88517 10.9311 8.95382 10.7653 8.95671C10.5995 8.95961 10.4393 8.89651 10.32 8.7813L8.86235 7.37293L8.9451 12.1136C8.94799 12.2793 8.88493 12.4394 8.76978 12.5587C8.65463 12.6779 8.49683 12.7465 8.3311 12.7494C8.16536 12.7523 8.00527 12.6893 7.88603 12.5741C7.76679 12.459 7.69818 12.3012 7.69529 12.1354L7.61254 7.39474L6.20496 8.85313C6.08975 8.97243 5.93187 9.04108 5.76604 9.04398C5.60021 9.04687 5.44003 8.98377 5.32072 8.86856C5.20142 8.75335 5.13277 8.59546 5.12987 8.42964C5.12698 8.26381 5.19008 8.10362 5.30529 7.98432L7.76128 5.44107C7.8183 5.38196 7.88641 5.33466 7.96173 5.30189C8.03704 5.26912 8.11808 5.25151 8.2002 5.25008C8.28232 5.24864 8.36392 5.26341 8.44033 5.29353C8.51674 5.32366 8.58647 5.36855 8.64552 5.42564Z" fill="#FCDE42"/>
</svg>
