<svg width="18" height="20" viewBox="0 0 18 20" fill="none" xmlns="http://www.w3.org/2000/svg">
<path d="M17.5 9.98925C17.5006 10.2311 17.4365 10.4687 17.3142 10.6775C17.192 10.8863 17.016 11.0587 16.8046 11.1769L2.52991 19.3218C2.32482 19.4379 2.09322 19.4993 1.85745 19.5C1.64003 19.4996 1.42588 19.4471 1.23295 19.3471C1.04002 19.247 0.873943 19.1023 0.748633 18.9249C0.623322 18.7476 0.542431 18.5429 0.512741 18.328C0.483052 18.1131 0.505428 17.8942 0.577994 17.6896L2.90312 10.9072C2.92603 10.8401 2.96943 10.7818 3.02722 10.7406C3.08501 10.6993 3.15428 10.6772 3.22532 10.6773H9.33867C9.4319 10.6775 9.52419 10.6585 9.60978 10.6216C9.69538 10.5848 9.77246 10.5307 9.83624 10.4629C9.90002 10.395 9.94914 10.3148 9.98054 10.2272C10.0119 10.1396 10.025 10.0465 10.0188 9.95362C10.0034 9.7791 9.92244 9.61684 9.79223 9.49933C9.66201 9.38182 9.49212 9.31773 9.31657 9.31991H3.23128C3.16034 9.32003 3.09114 9.29802 3.03336 9.25695C2.97559 9.21587 2.93213 9.1578 2.90907 9.09086L0.576294 2.30413C0.48545 2.04407 0.476031 1.76259 0.549288 1.49706C0.622545 1.23153 0.775012 0.994527 0.986441 0.817511C1.19787 0.640496 1.45826 0.531848 1.73303 0.505995C2.0078 0.480142 2.28395 0.538307 2.52481 0.672767L16.8071 8.80751C17.0172 8.92554 17.1921 9.09717 17.3138 9.30482C17.4356 9.51247 17.4998 9.74867 17.5 9.98925Z" fill="white"/>
</svg>
