<svg width="17" height="17" viewBox="0 0 17 17" fill="none" xmlns="http://www.w3.org/2000/svg">
<path d="M8.13088 16.277C9.73785 16.2811 11.31 15.8086 12.6484 14.9193C13.9868 14.0299 15.0315 12.7636 15.6503 11.2806C16.269 9.79752 16.4341 8.16427 16.1247 6.58737C15.8152 5.01048 15.0451 3.56076 13.9117 2.42155C12.7783 1.28233 11.3326 0.504787 9.7573 0.187237C8.18202 -0.130313 6.54794 0.0263942 5.06172 0.637543C3.57549 1.24869 2.30387 2.28683 1.40766 3.62069C0.511447 4.95454 0.0308928 6.5242 0.0267675 8.13116C0.0235123 10.2853 0.874963 12.3528 2.39429 13.88C3.91361 15.4071 5.97671 16.2692 8.13088 16.277ZM4.5857 7.70068L7.09211 5.2071C7.20969 5.09013 7.36891 5.02465 7.53477 5.02508C7.70062 5.0255 7.85951 5.0918 7.97648 5.20937C8.09346 5.32695 8.15893 5.48618 8.15851 5.65203C8.15808 5.81788 8.09179 5.97677 7.97421 6.09375L6.53694 7.52287L11.2783 7.53505C11.4441 7.53547 11.6029 7.60173 11.7198 7.71924C11.8367 7.83675 11.9022 7.99589 11.9017 8.16165C11.9013 8.32741 11.835 8.48621 11.7175 8.60312C11.6 8.72003 11.4409 8.78547 11.2751 8.78504L6.53373 8.77287L7.96365 10.2094C8.08062 10.3269 8.1461 10.4862 8.14567 10.652C8.14524 10.8179 8.07895 10.9768 7.96138 11.0937C7.8438 11.2107 7.68457 11.2762 7.51872 11.2758C7.35287 11.2753 7.19398 11.209 7.077 11.0915L4.58343 8.58505C4.52547 8.52686 4.47955 8.45781 4.44829 8.38185C4.41703 8.3059 4.40105 8.22453 4.40126 8.14239C4.40147 8.06026 4.41787 7.97897 4.44952 7.90318C4.48116 7.82739 4.52744 7.75857 4.5857 7.70068Z" fill="#191C24"/>
</svg>
