<svg width="17" height="17" viewBox="0 0 17 17" fill="none" xmlns="http://www.w3.org/2000/svg">
<path d="M8.125 16.3069C9.73197 16.3069 11.3029 15.8304 12.639 14.9376C13.9752 14.0448 15.0166 12.7758 15.6315 11.2912C16.2465 9.80654 16.4074 8.17287 16.0939 6.59678C15.7804 5.02068 15.0065 3.57294 13.8702 2.43664C12.7339 1.30034 11.2862 0.52651 9.7101 0.213005C8.13401 -0.1005 6.50034 0.0604019 5.01569 0.675364C3.53104 1.29033 2.26209 2.33173 1.36931 3.66788C0.47652 5.00403 -3.8147e-06 6.57491 -3.8147e-06 8.18188C0.00227165 10.3361 0.859027 12.4014 2.38227 13.9246C3.90551 15.4479 5.97081 16.3046 8.125 16.3069ZM4.55781 7.7397L7.05781 5.2397C7.17508 5.12242 7.33414 5.05654 7.5 5.05654C7.66585 5.05654 7.82491 5.12242 7.94218 5.2397C8.05946 5.35697 8.12534 5.51603 8.12534 5.68188C8.12534 5.84774 8.05946 6.0068 7.94218 6.12407L6.50859 7.55688L11.25 7.55688C11.4158 7.55688 11.5747 7.62273 11.6919 7.73994C11.8091 7.85715 11.875 8.01612 11.875 8.18188C11.875 8.34765 11.8091 8.50662 11.6919 8.62383C11.5747 8.74104 11.4158 8.80688 11.25 8.80688H6.50859L7.94218 10.2397C8.05946 10.357 8.12534 10.516 8.12534 10.6819C8.12534 10.8477 8.05946 11.0068 7.94218 11.1241C7.82491 11.2413 7.66585 11.3072 7.5 11.3072C7.33414 11.3072 7.17508 11.2413 7.05781 11.1241L4.55781 8.62407C4.4997 8.56603 4.4536 8.4971 4.42215 8.42122C4.39069 8.34535 4.37451 8.26402 4.37451 8.18188C4.37451 8.09975 4.39069 8.01842 4.42215 7.94255C4.4536 7.86667 4.4997 7.79774 4.55781 7.7397Z" fill="#F32D2D"/>
</svg>
