<svg width="20" height="20" viewBox="0 0 20 20" fill="none" xmlns="http://www.w3.org/2000/svg">
<path d="M18.5 14.6946L11.668 2.82974C11.4972 2.53906 11.2535 2.29803 10.9609 2.13057C10.6684 1.9631 10.3371 1.875 9.99998 1.875C9.66287 1.875 9.33161 1.9631 9.03904 2.13057C8.74647 2.29803 8.50274 2.53906 8.33202 2.82974L1.49998 14.6946C1.33571 14.9757 1.24915 15.2955 1.24915 15.6211C1.24915 15.9468 1.33571 16.2665 1.49998 16.5477C1.66852 16.8401 1.91184 17.0825 2.20495 17.2498C2.49807 17.4172 2.83044 17.5036 3.16795 17.5001H16.832C17.1693 17.5033 17.5013 17.4168 17.7941 17.2494C18.0869 17.0821 18.33 16.8399 18.4984 16.5477C18.6629 16.2667 18.7498 15.947 18.75 15.6214C18.7503 15.2957 18.664 14.9759 18.5 14.6946ZM9.37498 8.12505C9.37498 7.95929 9.44083 7.80032 9.55804 7.68311C9.67525 7.5659 9.83422 7.50005 9.99998 7.50005C10.1657 7.50005 10.3247 7.5659 10.4419 7.68311C10.5591 7.80032 10.625 7.95929 10.625 8.12505V11.2501C10.625 11.4158 10.5591 11.5748 10.4419 11.692C10.3247 11.8092 10.1657 11.8751 9.99998 11.8751C9.83422 11.8751 9.67525 11.8092 9.55804 11.692C9.44083 11.5748 9.37498 11.4158 9.37498 11.2501V8.12505ZM9.99998 15.0001C9.81456 15.0001 9.63331 14.9451 9.47914 14.8421C9.32497 14.739 9.2048 14.5926 9.13385 14.4213C9.06289 14.25 9.04432 14.0615 9.0805 13.8797C9.11667 13.6978 9.20596 13.5308 9.33707 13.3996C9.46818 13.2685 9.63523 13.1792 9.81709 13.1431C9.99894 13.1069 10.1874 13.1255 10.3587 13.1964C10.5301 13.2674 10.6765 13.3875 10.7795 13.5417C10.8825 13.6959 10.9375 13.8771 10.9375 14.0626C10.9375 14.3112 10.8387 14.5496 10.6629 14.7255C10.4871 14.9013 10.2486 15.0001 9.99998 15.0001Z" fill="#FCDE42"/>
</svg>
