<svg width="44" height="45" viewBox="0 0 44 45" fill="none" xmlns="http://www.w3.org/2000/svg">
<rect y="0.5" width="44" height="44" rx="5" fill="#43DB6D"/>
<path d="M11.8 32C11.32 32 10.9 31.8169 10.54 31.4508C10.18 31.0846 10 30.674 10 30.2188V14.7812C10 14.326 10.18 13.9154 10.54 13.5492C10.9 13.1831 11.32 13 11.8 13H20.2L22 14.7812H32.2C32.66 14.7812 33.075 14.9643 33.445 15.3305C33.815 15.6966 34 16.1073 34 16.5625V30.2188C34 30.674 33.815 31.0846 33.445 31.4508C33.075 31.8169 32.66 32 32.2 32H11.8ZM11.8 14.7812V30.2188H32.2V16.5625H21.25L19.45 14.7812H11.8Z" fill="white"/>
<path d="M11.8 32C11.32 32 10.9 31.8169 10.54 31.4508C10.18 31.0846 10 30.674 10 30.2188V14.7812C10 14.326 10.18 13.9154 10.54 13.5492C10.9 13.1831 11.32 13 11.8 13H20.2L22 14.7812H32.2C32.66 14.7812 33.075 14.9643 33.445 15.3305C33.815 15.6966 34 16.1073 34 16.5625V30.2188C34 30.674 33.815 31.0846 33.445 31.4508C33.075 31.8169 32.66 32 32.2 32H11.8ZM11.8 14.7812V30.2188H32.2V16.5625H21.25L19.45 14.7812H11.8Z" fill="white"/>
<path d="M20.8556 26.6741L26.3756 21.2116L25.0856 19.9351L20.8256 24.1507L19.1156 22.4585L17.8556 23.7054L20.8556 26.6741Z" fill="white"/>
<path d="M20.8556 26.6741L26.3756 21.2116L25.0856 19.9351L20.8256 24.1507L19.1156 22.4585L17.8556 23.7054L20.8556 26.6741Z" fill="white"/>
</svg>
