<svg width="44" height="44" viewBox="0 0 44 44" fill="none" xmlns="http://www.w3.org/2000/svg">
<rect width="44" height="44" rx="5" fill="#43DB6D"/>
<path d="M10.1 33.5C9.54 33.5 9.05 33.2784 8.63 32.8352C8.21 32.3919 8 31.8948 8 31.3437V12.6562C8 12.1052 8.21 11.6081 8.63 11.1648C9.05 10.7216 9.54 10.5 10.1 10.5H19.9L22 12.6562H33.9C34.4367 12.6562 34.9208 12.8779 35.3525 13.3211C35.7842 13.7643 36 14.2615 36 14.8125V31.3437C36 31.8948 35.7842 32.3919 35.3525 32.8352C34.9208 33.2784 34.4367 33.5 33.9 33.5H10.1ZM10.1 12.6562V31.3437H33.9V14.8125H21.125L19.025 12.6562H10.1Z" fill="white"/>
<path d="M10.1 33.5C9.54 33.5 9.05 33.2784 8.63 32.8352C8.21 32.3919 8 31.8948 8 31.3437V12.6562C8 12.1052 8.21 11.6081 8.63 11.1648C9.05 10.7216 9.54 10.5 10.1 10.5H19.9L22 12.6562H33.9C34.4367 12.6562 34.9208 12.8779 35.3525 13.3211C35.7842 13.7643 36 14.2615 36 14.8125V31.3437C36 31.8948 35.7842 32.3919 35.3525 32.8352C34.9208 33.2784 34.4367 33.5 33.9 33.5H10.1ZM10.1 12.6562V31.3437H33.9V14.8125H21.125L19.025 12.6562H10.1Z" fill="white"/>
<path d="M20.665 27.0533L27.105 20.4408L25.6 18.8955L20.63 23.9986L18.635 21.9502L17.165 23.4596L20.665 27.0533Z" fill="white"/>
<path d="M20.665 27.0533L27.105 20.4408L25.6 18.8955L20.63 23.9986L18.635 21.9502L17.165 23.4596L20.665 27.0533Z" fill="white"/>
</svg>
