<svg width="66" height="68" viewBox="0 0 66 68" fill="none" xmlns="http://www.w3.org/2000/svg">
<path d="M0.333008 5.5C0.333008 2.73858 2.57158 0.5 5.33301 0.5H65.333V67.5H5.33301C2.57158 67.5 0.333008 65.2614 0.333008 62.5V5.5Z" fill="#43DB6D"/>
<path d="M17.958 47.5C17.258 47.5 16.6455 47.2398 16.1205 46.7195C15.5955 46.1992 15.333 45.6156 15.333 44.9688V23.0312C15.333 22.3844 15.5955 21.8008 16.1205 21.2805C16.6455 20.7602 17.258 20.5 17.958 20.5H30.208L32.833 23.0312H47.708C48.3788 23.0312 48.9841 23.2914 49.5236 23.8117C50.0632 24.332 50.333 24.9156 50.333 25.5625V44.9688C50.333 45.6156 50.0632 46.1992 49.5236 46.7195C48.9841 47.2398 48.3788 47.5 47.708 47.5H17.958ZM17.958 23.0312V44.9688H47.708V25.5625H31.7393L29.1143 23.0312H17.958Z" fill="white"/>
<path d="M17.958 47.5C17.258 47.5 16.6455 47.2398 16.1205 46.7195C15.5955 46.1992 15.333 45.6156 15.333 44.9688V23.0312C15.333 22.3844 15.5955 21.8008 16.1205 21.2805C16.6455 20.7602 17.258 20.5 17.958 20.5H30.208L32.833 23.0312H47.708C48.3788 23.0312 48.9841 23.2914 49.5236 23.8117C50.0632 24.332 50.333 24.9156 50.333 25.5625V44.9688C50.333 45.6156 50.0632 46.1992 49.5236 46.7195C48.9841 47.2398 48.3788 47.5 47.708 47.5H17.958ZM17.958 23.0312V44.9688H47.708V25.5625H31.7393L29.1143 23.0312H17.958Z" fill="white"/>
<path d="M31.1641 39.932L39.2141 32.1695L37.3328 30.3555L31.1203 36.3461L28.6266 33.9414L26.7891 35.7133L31.1641 39.932Z" fill="white"/>
<path d="M31.1641 39.932L39.2141 32.1695L37.3328 30.3555L31.1203 36.3461L28.6266 33.9414L26.7891 35.7133L31.1641 39.932Z" fill="white"/>
</svg>
