<svg width="65" height="67" viewBox="0 0 65 67" fill="none" xmlns="http://www.w3.org/2000/svg">
<path d="M0 5C0 2.23858 2.23858 0 5 0H65V67H5C2.23858 67 0 64.7614 0 62V5Z" fill="#EAC503"/>
<path d="M24.0205 41.9788H45.6038V20.3955H43.2913V30.0695C43.2913 30.3007 43.195 30.4742 43.0023 30.5898C42.8096 30.7054 42.6104 30.699 42.4049 30.5705L39.707 28.9132L37.0091 30.5705C36.8035 30.699 36.6044 30.7054 36.4117 30.5898C36.2189 30.4742 36.1226 30.3007 36.1226 30.0695V20.3955H24.0205V41.9788ZM24.0205 44.2913C23.4038 44.2913 22.8643 44.0601 22.4018 43.5976C21.9393 43.1351 21.708 42.5955 21.708 41.9788V20.3955C21.708 19.7788 21.9393 19.2393 22.4018 18.7768C22.8643 18.3143 23.4038 18.083 24.0205 18.083H45.6038C46.2205 18.083 46.7601 18.3143 47.2226 18.7768C47.6851 19.2393 47.9163 19.7788 47.9163 20.3955V41.9788C47.9163 42.5955 47.6851 43.1351 47.2226 43.5976C46.7601 44.0601 46.2205 44.2913 45.6038 44.2913H24.0205ZM19.3955 48.9163C18.7788 48.9163 18.2393 48.6851 17.7768 48.2226C17.3143 47.7601 17.083 47.2205 17.083 46.6038V23.8643C17.083 23.5302 17.1922 23.254 17.4106 23.0356C17.629 22.8172 17.9052 22.708 18.2393 22.708C18.5733 22.708 18.8495 22.8172 19.0679 23.0356C19.2863 23.254 19.3955 23.5302 19.3955 23.8643V46.6038H42.1351C42.4691 46.6038 42.7453 46.713 42.9637 46.9314C43.1821 47.1498 43.2913 47.4261 43.2913 47.7601C43.2913 48.0941 43.1821 48.3703 42.9637 48.5887C42.7453 48.8071 42.4691 48.9163 42.1351 48.9163H19.3955ZM36.1226 20.3955H43.2913H36.1226ZM24.0205 20.3955H45.6038H24.0205Z" fill="white"/>
</svg>
