<svg width="44" height="44" viewBox="0 0 44 44" fill="none" xmlns="http://www.w3.org/2000/svg">
<rect width="44" height="44" rx="5" fill="#F3CC00"/>
<path d="M16.5 27.5H30.5V13.5H29V19.775C29 19.925 28.9375 20.0375 28.8125 20.1125C28.6875 20.1875 28.5583 20.1833 28.425 20.1L26.675 19.025L24.925 20.1C24.7917 20.1833 24.6625 20.1875 24.5375 20.1125C24.4125 20.0375 24.35 19.925 24.35 19.775V13.5H16.5V27.5ZM16.5 29C16.1 29 15.75 28.85 15.45 28.55C15.15 28.25 15 27.9 15 27.5V13.5C15 13.1 15.15 12.75 15.45 12.45C15.75 12.15 16.1 12 16.5 12H30.5C30.9 12 31.25 12.15 31.55 12.45C31.85 12.75 32 13.1 32 13.5V27.5C32 27.9 31.85 28.25 31.55 28.55C31.25 28.85 30.9 29 30.5 29H16.5ZM13.5 32C13.1 32 12.75 31.85 12.45 31.55C12.15 31.25 12 30.9 12 30.5V15.75C12 15.5333 12.0708 15.3542 12.2125 15.2125C12.3542 15.0708 12.5333 15 12.75 15C12.9667 15 13.1458 15.0708 13.2875 15.2125C13.4292 15.3542 13.5 15.5333 13.5 15.75V30.5H28.25C28.4667 30.5 28.6458 30.5708 28.7875 30.7125C28.9292 30.8542 29 31.0333 29 31.25C29 31.4667 28.9292 31.6458 28.7875 31.7875C28.6458 31.9292 28.4667 32 28.25 32H13.5ZM24.35 13.5H29H24.35ZM16.5 13.5H30.5H16.5Z" fill="white"/>
</svg>
