<svg width="44" height="44" viewBox="0 0 44 44" fill="none" xmlns="http://www.w3.org/2000/svg">
<rect width="44" height="44" rx="5" fill="#F3CC00" fill-opacity="0.95"/>
<path d="M15.583 28.4163H31.9163V12.083H30.1663V19.4038C30.1663 19.5788 30.0934 19.7101 29.9476 19.7976C29.8018 19.8851 29.6511 19.8802 29.4955 19.783L27.4538 18.5288L25.4122 19.783C25.2566 19.8802 25.1059 19.8851 24.9601 19.7976C24.8143 19.7101 24.7413 19.5788 24.7413 19.4038V12.083H15.583V28.4163ZM15.583 30.1663C15.1163 30.1663 14.708 29.9913 14.358 29.6413C14.008 29.2913 13.833 28.883 13.833 28.4163V12.083C13.833 11.6163 14.008 11.208 14.358 10.858C14.708 10.508 15.1163 10.333 15.583 10.333H31.9163C32.383 10.333 32.7913 10.508 33.1413 10.858C33.4913 11.208 33.6663 11.6163 33.6663 12.083V28.4163C33.6663 28.883 33.4913 29.2913 33.1413 29.6413C32.7913 29.9913 32.383 30.1663 31.9163 30.1663H15.583ZM12.083 33.6663C11.6163 33.6663 11.208 33.4913 10.858 33.1413C10.508 32.7913 10.333 32.383 10.333 31.9163V14.708C10.333 14.4552 10.4156 14.2462 10.5809 14.0809C10.7462 13.9156 10.9552 13.833 11.208 13.833C11.4608 13.833 11.6698 13.9156 11.8351 14.0809C12.0004 14.2462 12.083 14.4552 12.083 14.708V31.9163H29.2913C29.5441 31.9163 29.7531 31.999 29.9184 32.1643C30.0837 32.3295 30.1663 32.5386 30.1663 32.7913C30.1663 33.0441 30.0837 33.2531 29.9184 33.4184C29.7531 33.5837 29.5441 33.6663 29.2913 33.6663H12.083ZM24.7413 12.083H30.1663H24.7413ZM15.583 12.083H31.9163H15.583Z" fill="white"/>
</svg>
