<svg width="66" height="67" viewBox="0 0 66 67" fill="none" xmlns="http://www.w3.org/2000/svg">
<path d="M0.666992 5C0.666992 2.23858 2.90557 0 5.66699 0H65.667V67H5.66699C2.90557 67 0.666992 64.7614 0.666992 62V5Z" fill="#2D94F3"/>
<path d="M20.834 24.6663C20.5451 24.6663 20.3062 24.5719 20.1173 24.383C19.9284 24.1941 19.834 23.9552 19.834 23.6663V19.833C19.834 19.5441 19.9284 19.3052 20.1173 19.1163C20.3062 18.9275 20.5451 18.833 20.834 18.833H24.6673C24.9562 18.833 25.1951 18.9275 25.384 19.1163C25.5729 19.3052 25.6673 19.5441 25.6673 19.833C25.6673 20.1219 25.5729 20.3608 25.384 20.5497C25.1951 20.7386 24.9562 20.833 24.6673 20.833H21.834V23.6663C21.834 23.9552 21.7395 24.1941 21.5507 24.383C21.3618 24.5719 21.1229 24.6663 20.834 24.6663ZM45.5007 24.6663C45.2118 24.6663 44.9729 24.5719 44.784 24.383C44.5951 24.1941 44.5007 23.9552 44.5007 23.6663V20.833H41.6673C41.3784 20.833 41.1395 20.7386 40.9506 20.5497C40.7618 20.3608 40.6673 20.1219 40.6673 19.833C40.6673 19.5441 40.7618 19.3052 40.9506 19.1163C41.1395 18.9275 41.3784 18.833 41.6673 18.833H45.5007C45.7895 18.833 46.0284 18.9275 46.2173 19.1163C46.4062 19.3052 46.5006 19.5441 46.5006 19.833V23.6663C46.5006 23.9552 46.4062 24.1941 46.2173 24.383C46.0284 24.5719 45.7895 24.6663 45.5007 24.6663ZM20.834 48.1663C20.5451 48.1663 20.3062 48.0719 20.1173 47.883C19.9284 47.6941 19.834 47.4552 19.834 47.1663V43.333C19.834 43.0441 19.9284 42.8052 20.1173 42.6163C20.3062 42.4275 20.5451 42.333 20.834 42.333C21.1229 42.333 21.3618 42.4275 21.5507 42.6163C21.7395 42.8052 21.834 43.0441 21.834 43.333V46.1663H24.6673C24.9562 46.1663 25.1951 46.2608 25.384 46.4497C25.5729 46.6386 25.6673 46.8775 25.6673 47.1663C25.6673 47.4552 25.5729 47.6941 25.384 47.883C25.1951 48.0719 24.9562 48.1663 24.6673 48.1663H20.834ZM41.6673 48.1663C41.3784 48.1663 41.1395 48.0719 40.9506 47.883C40.7618 47.6941 40.6673 47.4552 40.6673 47.1663C40.6673 46.8775 40.7618 46.6386 40.9506 46.4497C41.1395 46.2608 41.3784 46.1663 41.6673 46.1663H44.5007V43.333C44.5007 43.0441 44.5951 42.8052 44.784 42.6163C44.9729 42.4275 45.2118 42.333 45.5007 42.333C45.7895 42.333 46.0284 42.4275 46.2173 42.6163C46.4062 42.8052 46.5006 43.0441 46.5006 43.333V47.1663C46.5006 47.4552 46.4062 47.6941 46.2173 47.883C46.0284 48.0719 45.7895 48.1663 45.5007 48.1663H41.6673ZM25.834 42.1663H40.5007V24.833H25.834V42.1663ZM25.834 44.1663C25.3007 44.1663 24.834 43.9663 24.434 43.5663C24.034 43.1663 23.834 42.6997 23.834 42.1663V24.833C23.834 24.2997 24.034 23.833 24.434 23.433C24.834 23.033 25.3007 22.833 25.834 22.833H40.5007C41.034 22.833 41.5006 23.033 41.9006 23.433C42.3006 23.833 42.5007 24.2997 42.5007 24.833V42.1663C42.5007 42.6997 42.3006 43.1663 41.9006 43.5663C41.5006 43.9663 41.034 44.1663 40.5007 44.1663H25.834ZM30.5007 30.4997H35.834C36.1229 30.4997 36.3618 30.4052 36.5506 30.2163C36.7395 30.0275 36.834 29.7886 36.834 29.4997C36.834 29.2108 36.7395 28.9719 36.5506 28.783C36.3618 28.5941 36.1229 28.4997 35.834 28.4997H30.5007C30.2118 28.4997 29.9729 28.5941 29.784 28.783C29.5951 28.9719 29.5007 29.2108 29.5007 29.4997C29.5007 29.7886 29.5951 30.0275 29.784 30.2163C29.9729 30.4052 30.2118 30.4997 30.5007 30.4997ZM30.5007 34.4997H35.834C36.1229 34.4997 36.3618 34.4052 36.5506 34.2163C36.7395 34.0275 36.834 33.7886 36.834 33.4997C36.834 33.2108 36.7395 32.9719 36.5506 32.783C36.3618 32.5941 36.1229 32.4997 35.834 32.4997H30.5007C30.2118 32.4997 29.9729 32.5941 29.784 32.783C29.5951 32.9719 29.5007 33.2108 29.5007 33.4997C29.5007 33.7886 29.5951 34.0275 29.784 34.2163C29.9729 34.4052 30.2118 34.4997 30.5007 34.4997ZM30.5007 38.4997H35.834C36.1229 38.4997 36.3618 38.4052 36.5506 38.2163C36.7395 38.0275 36.834 37.7886 36.834 37.4997C36.834 37.2108 36.7395 36.9719 36.5506 36.783C36.3618 36.5941 36.1229 36.4997 35.834 36.4997H30.5007C30.2118 36.4997 29.9729 36.5941 29.784 36.783C29.5951 36.9719 29.5007 37.2108 29.5007 37.4997C29.5007 37.7886 29.5951 38.0275 29.784 38.2163C29.9729 38.4052 30.2118 38.4997 30.5007 38.4997ZM25.834 42.1663V24.833V42.1663Z" fill="white"/>
</svg>
