<svg width="44" height="44" viewBox="0 0 44 44" fill="none" xmlns="http://www.w3.org/2000/svg">
<rect width="44" height="44" rx="5" fill="#2D94F3"/>
<path d="M11.208 14.2712C10.9552 14.2712 10.7462 14.1885 10.5809 14.0232C10.4156 13.858 10.333 13.6489 10.333 13.3962V10.042C10.333 9.78921 10.4156 9.58019 10.5809 9.41491C10.7462 9.24963 10.9552 9.16699 11.208 9.16699H14.5622C14.815 9.16699 15.024 9.24963 15.1893 9.41491C15.3545 9.58019 15.4372 9.78921 15.4372 10.042C15.4372 10.2948 15.3545 10.5038 15.1893 10.6691C15.024 10.8344 14.815 10.917 14.5622 10.917H12.083V13.3962C12.083 13.6489 12.0004 13.858 11.8351 14.0232C11.6698 14.1885 11.4608 14.2712 11.208 14.2712ZM32.7913 14.2712C32.5386 14.2712 32.3295 14.1885 32.1643 14.0232C31.999 13.858 31.9163 13.6489 31.9163 13.3962V10.917H29.4372C29.1844 10.917 28.9754 10.8344 28.8101 10.6691C28.6448 10.5038 28.5622 10.2948 28.5622 10.042C28.5622 9.78921 28.6448 9.58019 28.8101 9.41491C28.9754 9.24963 29.1844 9.16699 29.4372 9.16699H32.7913C33.0441 9.16699 33.2531 9.24963 33.4184 9.41491C33.5837 9.58019 33.6663 9.78921 33.6663 10.042V13.3962C33.6663 13.6489 33.5837 13.858 33.4184 14.0232C33.2531 14.1885 33.0441 14.2712 32.7913 14.2712ZM11.208 34.8337C10.9552 34.8337 10.7462 34.751 10.5809 34.5857C10.4156 34.4205 10.333 34.2114 10.333 33.9587V30.6045C10.333 30.3517 10.4156 30.1427 10.5809 29.9774C10.7462 29.8121 10.9552 29.7295 11.208 29.7295C11.4608 29.7295 11.6698 29.8121 11.8351 29.9774C12.0004 30.1427 12.083 30.3517 12.083 30.6045V33.0837H14.5622C14.815 33.0837 15.024 33.1663 15.1893 33.3316C15.3545 33.4969 15.4372 33.7059 15.4372 33.9587C15.4372 34.2114 15.3545 34.4205 15.1893 34.5857C15.024 34.751 14.815 34.8337 14.5622 34.8337H11.208ZM29.4372 34.8337C29.1844 34.8337 28.9754 34.751 28.8101 34.5857C28.6448 34.4205 28.5622 34.2114 28.5622 33.9587C28.5622 33.7059 28.6448 33.4969 28.8101 33.3316C28.9754 33.1663 29.1844 33.0837 29.4372 33.0837H31.9163V30.6045C31.9163 30.3517 31.999 30.1427 32.1643 29.9774C32.3295 29.8121 32.5386 29.7295 32.7913 29.7295C33.0441 29.7295 33.2531 29.8121 33.4184 29.9774C33.5837 30.1427 33.6663 30.3517 33.6663 30.6045V33.9587C33.6663 34.2114 33.5837 34.4205 33.4184 34.5857C33.2531 34.751 33.0441 34.8337 32.7913 34.8337H29.4372ZM15.583 29.5837H28.4163V14.417H15.583V29.5837ZM15.583 31.3337C15.1163 31.3337 14.708 31.1587 14.358 30.8087C14.008 30.4587 13.833 30.0503 13.833 29.5837V14.417C13.833 13.9503 14.008 13.542 14.358 13.192C14.708 12.842 15.1163 12.667 15.583 12.667H28.4163C28.883 12.667 29.2913 12.842 29.6413 13.192C29.9913 13.542 30.1663 13.9503 30.1663 14.417V29.5837C30.1663 30.0503 29.9913 30.4587 29.6413 30.8087C29.2913 31.1587 28.883 31.3337 28.4163 31.3337H15.583ZM19.6663 19.3753H24.333C24.5858 19.3753 24.7948 19.2927 24.9601 19.1274C25.1254 18.9621 25.208 18.7531 25.208 18.5003C25.208 18.2475 25.1254 18.0385 24.9601 17.8732C24.7948 17.708 24.5858 17.6253 24.333 17.6253H19.6663C19.4136 17.6253 19.2045 17.708 19.0393 17.8732C18.874 18.0385 18.7913 18.2475 18.7913 18.5003C18.7913 18.7531 18.874 18.9621 19.0393 19.1274C19.2045 19.2927 19.4136 19.3753 19.6663 19.3753ZM19.6663 22.8753H24.333C24.5858 22.8753 24.7948 22.7927 24.9601 22.6274C25.1254 22.4621 25.208 22.2531 25.208 22.0003C25.208 21.7475 25.1254 21.5385 24.9601 21.3732C24.7948 21.208 24.5858 21.1253 24.333 21.1253H19.6663C19.4136 21.1253 19.2045 21.208 19.0393 21.3732C18.874 21.5385 18.7913 21.7475 18.7913 22.0003C18.7913 22.2531 18.874 22.4621 19.0393 22.6274C19.2045 22.7927 19.4136 22.8753 19.6663 22.8753ZM19.6663 26.3753H24.333C24.5858 26.3753 24.7948 26.2927 24.9601 26.1274C25.1254 25.9621 25.208 25.7531 25.208 25.5003C25.208 25.2475 25.1254 25.0385 24.9601 24.8732C24.7948 24.708 24.5858 24.6253 24.333 24.6253H19.6663C19.4136 24.6253 19.2045 24.708 19.0393 24.8732C18.874 25.0385 18.7913 25.2475 18.7913 25.5003C18.7913 25.7531 18.874 25.9621 19.0393 26.1274C19.2045 26.2927 19.4136 26.3753 19.6663 26.3753ZM15.583 29.5837V14.417V29.5837Z" fill="white"/>
</svg>
