<svg width="44" height="44" viewBox="0 0 44 44" fill="none" xmlns="http://www.w3.org/2000/svg">
<rect width="44" height="44" rx="5" fill="#2D94F3"/>
<path d="M12.75 15.375C12.5333 15.375 12.3542 15.3042 12.2125 15.1625C12.0708 15.0208 12 14.8417 12 14.625V11.75C12 11.5333 12.0708 11.3542 12.2125 11.2125C12.3542 11.0708 12.5333 11 12.75 11H15.625C15.8417 11 16.0208 11.0708 16.1625 11.2125C16.3042 11.3542 16.375 11.5333 16.375 11.75C16.375 11.9667 16.3042 12.1458 16.1625 12.2875C16.0208 12.4292 15.8417 12.5 15.625 12.5H13.5V14.625C13.5 14.8417 13.4292 15.0208 13.2875 15.1625C13.1458 15.3042 12.9667 15.375 12.75 15.375ZM31.25 15.375C31.0333 15.375 30.8542 15.3042 30.7125 15.1625C30.5708 15.0208 30.5 14.8417 30.5 14.625V12.5H28.375C28.1583 12.5 27.9792 12.4292 27.8375 12.2875C27.6958 12.1458 27.625 11.9667 27.625 11.75C27.625 11.5333 27.6958 11.3542 27.8375 11.2125C27.9792 11.0708 28.1583 11 28.375 11H31.25C31.4667 11 31.6458 11.0708 31.7875 11.2125C31.9292 11.3542 32 11.5333 32 11.75V14.625C32 14.8417 31.9292 15.0208 31.7875 15.1625C31.6458 15.3042 31.4667 15.375 31.25 15.375ZM12.75 33C12.5333 33 12.3542 32.9292 12.2125 32.7875C12.0708 32.6458 12 32.4667 12 32.25V29.375C12 29.1583 12.0708 28.9792 12.2125 28.8375C12.3542 28.6958 12.5333 28.625 12.75 28.625C12.9667 28.625 13.1458 28.6958 13.2875 28.8375C13.4292 28.9792 13.5 29.1583 13.5 29.375V31.5H15.625C15.8417 31.5 16.0208 31.5708 16.1625 31.7125C16.3042 31.8542 16.375 32.0333 16.375 32.25C16.375 32.4667 16.3042 32.6458 16.1625 32.7875C16.0208 32.9292 15.8417 33 15.625 33H12.75ZM28.375 33C28.1583 33 27.9792 32.9292 27.8375 32.7875C27.6958 32.6458 27.625 32.4667 27.625 32.25C27.625 32.0333 27.6958 31.8542 27.8375 31.7125C27.9792 31.5708 28.1583 31.5 28.375 31.5H30.5V29.375C30.5 29.1583 30.5708 28.9792 30.7125 28.8375C30.8542 28.6958 31.0333 28.625 31.25 28.625C31.4667 28.625 31.6458 28.6958 31.7875 28.8375C31.9292 28.9792 32 29.1583 32 29.375V32.25C32 32.4667 31.9292 32.6458 31.7875 32.7875C31.6458 32.9292 31.4667 33 31.25 33H28.375ZM16.5 28.5H27.5V15.5H16.5V28.5ZM16.5 30C16.1 30 15.75 29.85 15.45 29.55C15.15 29.25 15 28.9 15 28.5V15.5C15 15.1 15.15 14.75 15.45 14.45C15.75 14.15 16.1 14 16.5 14H27.5C27.9 14 28.25 14.15 28.55 14.45C28.85 14.75 29 15.1 29 15.5V28.5C29 28.9 28.85 29.25 28.55 29.55C28.25 29.85 27.9 30 27.5 30H16.5ZM20 19.75H24C24.2167 19.75 24.3958 19.6792 24.5375 19.5375C24.6792 19.3958 24.75 19.2167 24.75 19C24.75 18.7833 24.6792 18.6042 24.5375 18.4625C24.3958 18.3208 24.2167 18.25 24 18.25H20C19.7833 18.25 19.6042 18.3208 19.4625 18.4625C19.3208 18.6042 19.25 18.7833 19.25 19C19.25 19.2167 19.3208 19.3958 19.4625 19.5375C19.6042 19.6792 19.7833 19.75 20 19.75ZM20 22.75H24C24.2167 22.75 24.3958 22.6792 24.5375 22.5375C24.6792 22.3958 24.75 22.2167 24.75 22C24.75 21.7833 24.6792 21.6042 24.5375 21.4625C24.3958 21.3208 24.2167 21.25 24 21.25H20C19.7833 21.25 19.6042 21.3208 19.4625 21.4625C19.3208 21.6042 19.25 21.7833 19.25 22C19.25 22.2167 19.3208 22.3958 19.4625 22.5375C19.6042 22.6792 19.7833 22.75 20 22.75ZM20 25.75H24C24.2167 25.75 24.3958 25.6792 24.5375 25.5375C24.6792 25.3958 24.75 25.2167 24.75 25C24.75 24.7833 24.6792 24.6042 24.5375 24.4625C24.3958 24.3208 24.2167 24.25 24 24.25H20C19.7833 24.25 19.6042 24.3208 19.4625 24.4625C19.3208 24.6042 19.25 24.7833 19.25 25C19.25 25.2167 19.3208 25.3958 19.4625 25.5375C19.6042 25.6792 19.7833 25.75 20 25.75ZM16.5 28.5V15.5V28.5Z" fill="white"/>
</svg>
