<svg width="31" height="31" viewBox="0 0 31 31" fill="none" xmlns="http://www.w3.org/2000/svg">
<path d="M15.167 23.1911C14.7607 23.1911 14.4248 23.0557 14.1592 22.785C13.8936 22.5143 13.7607 22.172 13.7607 21.758V5.46815L9.12012 10.1975C8.83887 10.4841 8.51074 10.6194 8.13574 10.6035C7.76074 10.5876 7.43262 10.4363 7.15137 10.1497C6.87012 9.86306 6.72949 9.5207 6.72949 9.12261C6.72949 8.72452 6.87012 8.38216 7.15137 8.09554L14.1826 0.929936C14.3389 0.7707 14.4951 0.659235 14.6514 0.595541C14.8076 0.531847 14.9795 0.5 15.167 0.5C15.3545 0.5 15.5264 0.531847 15.6826 0.595541C15.8389 0.659235 15.9951 0.7707 16.1514 0.929936L23.2295 8.14331C23.5107 8.42994 23.6514 8.76433 23.6514 9.1465C23.6514 9.52866 23.5107 9.86306 23.2295 10.1497C22.9482 10.4363 22.6123 10.5796 22.2217 10.5796C21.8311 10.5796 21.4951 10.4363 21.2139 10.1497L16.5732 5.46815V21.758C16.5732 22.172 16.4404 22.5143 16.1748 22.785C15.9092 23.0557 15.5732 23.1911 15.167 23.1911ZM2.97949 30.5C2.22949 30.5 1.57324 30.2134 1.01074 29.6401C0.448242 29.0669 0.166992 28.3981 0.166992 27.6338V22.2357C0.166992 21.8217 0.299805 21.4793 0.56543 21.2086C0.831055 20.9379 1.16699 20.8025 1.57324 20.8025C1.97949 20.8025 2.31543 20.9379 2.58105 21.2086C2.84668 21.4793 2.97949 21.8217 2.97949 22.2357V27.6338H27.3545V22.2357C27.3545 21.8217 27.4873 21.4793 27.7529 21.2086C28.0186 20.9379 28.3545 20.8025 28.7607 20.8025C29.167 20.8025 29.5029 20.9379 29.7686 21.2086C30.0342 21.4793 30.167 21.8217 30.167 22.2357V27.6338C30.167 28.3981 29.8857 29.0669 29.3232 29.6401C28.7607 30.2134 28.1045 30.5 27.3545 30.5H2.97949Z" fill="white"/>
</svg>
