<svg width="37" height="37" viewBox="0 0 37 37" fill="none" xmlns="http://www.w3.org/2000/svg">
<path d="M10.0205 26.9788H31.6038V5.39551H29.2913V15.0695C29.2913 15.3007 29.195 15.4742 29.0023 15.5898C28.8096 15.7054 28.6104 15.699 28.4049 15.5705L25.707 13.9132L23.0091 15.5705C22.8035 15.699 22.6044 15.7054 22.4117 15.5898C22.2189 15.4742 22.1226 15.3007 22.1226 15.0695V5.39551H10.0205V26.9788ZM10.0205 29.2913C9.40384 29.2913 8.86426 29.0601 8.40176 28.5976C7.93926 28.1351 7.70801 27.5955 7.70801 26.9788V5.39551C7.70801 4.77884 7.93926 4.23926 8.40176 3.77676C8.86426 3.31426 9.40384 3.08301 10.0205 3.08301H31.6038C32.2205 3.08301 32.7601 3.31426 33.2226 3.77676C33.6851 4.23926 33.9163 4.77884 33.9163 5.39551V26.9788C33.9163 27.5955 33.6851 28.1351 33.2226 28.5976C32.7601 29.0601 32.2205 29.2913 31.6038 29.2913H10.0205ZM5.39551 33.9163C4.77884 33.9163 4.23926 33.6851 3.77676 33.2226C3.31426 32.7601 3.08301 32.2205 3.08301 31.6038V8.86426C3.08301 8.53023 3.19221 8.25401 3.41061 8.03561C3.62901 7.81721 3.90523 7.70801 4.23926 7.70801C4.57329 7.70801 4.8495 7.81721 5.0679 8.03561C5.28631 8.25401 5.39551 8.53023 5.39551 8.86426V31.6038H28.1351C28.4691 31.6038 28.7453 31.713 28.9637 31.9314C29.1821 32.1498 29.2913 32.4261 29.2913 32.7601C29.2913 33.0941 29.1821 33.3703 28.9637 33.5887C28.7453 33.8071 28.4691 33.9163 28.1351 33.9163H5.39551ZM22.1226 5.39551H29.2913H22.1226ZM10.0205 5.39551H31.6038H10.0205Z" fill="white"/>
</svg>
