<svg width="33" height="33" viewBox="0 0 33 33" fill="none" xmlns="http://www.w3.org/2000/svg">
<path d="M14.203 15.0455H18.797V4.86364C18.797 4.25758 18.58 3.74242 18.1462 3.31818C17.7123 2.89394 17.1636 2.68182 16.5 2.68182C15.862 2.68182 15.3196 2.88788 14.873 3.3C14.4263 3.71212 14.203 4.23333 14.203 4.86364V15.0455ZM5.01513 21.5909H27.9849V17.2273H5.01513V21.5909ZM2.56502 30.3182H7.69493V27.0455C7.69493 26.7303 7.8034 26.4697 8.02034 26.2636C8.23727 26.0576 8.51164 25.9545 8.84342 25.9545C9.17521 25.9545 9.44957 26.0576 9.6665 26.2636C9.88344 26.4697 9.99191 26.7303 9.99191 27.0455V30.3182H15.3515V27.0455C15.3515 26.7303 15.46 26.4697 15.6769 26.2636C15.8939 26.0576 16.1682 25.9545 16.5 25.9545C16.8318 25.9545 17.1061 26.0576 17.3231 26.2636C17.54 26.4697 17.6485 26.7303 17.6485 27.0455V30.3182H23.0081V27.0455C23.0081 26.7303 23.1166 26.4697 23.3335 26.2636C23.5504 26.0576 23.8248 25.9545 24.1566 25.9545C24.4884 25.9545 24.7627 26.0576 24.9797 26.2636C25.1966 26.4697 25.3051 26.7303 25.3051 27.0455V30.3182H30.435L28.5208 23.0455H4.47917L2.56502 30.3182ZM29.4396 32.5H3.56038C2.56502 32.5 1.76108 32.1242 1.14856 31.3727C0.536031 30.6212 0.357377 29.7848 0.612597 28.8636L2.71816 20.8636V17.9545C2.71816 17.1545 3.01804 16.4697 3.6178 15.9C4.21757 15.3303 4.93856 15.0455 5.78079 15.0455H11.9061V4.86364C11.9061 3.65152 12.3527 2.62121 13.246 1.77273C14.1392 0.924242 15.2239 0.5 16.5 0.5C17.7761 0.5 18.8608 0.924242 19.754 1.77273C20.6473 2.62121 21.0939 3.65152 21.0939 4.86364V15.0455H27.2192C28.0614 15.0455 28.7824 15.3303 29.3822 15.9C29.982 16.4697 30.2818 17.1545 30.2818 17.9545V20.8636L32.3874 28.8636C32.6426 29.7848 32.464 30.6212 31.8514 31.3727C31.2389 32.1242 30.435 32.5 29.4396 32.5ZM27.9849 17.2273H5.01513H27.9849ZM18.797 15.0455H14.203H18.797Z" fill="white"/>
</svg>
