<svg width="39" height="39" viewBox="0 0 39 39" fill="none" xmlns="http://www.w3.org/2000/svg">
<path d="M6.04102 32.1663C5.43407 32.1663 4.8865 31.9222 4.39831 31.434C3.91011 30.9459 3.66602 30.3983 3.66602 29.7913V9.20801C3.66602 8.60106 3.91011 8.05349 4.39831 7.5653C4.8865 7.07711 5.43407 6.83301 6.04102 6.83301H17.1639L19.5389 9.20801H32.9577C33.5646 9.20801 34.1122 9.4521 34.6004 9.9403C35.0886 10.4285 35.3327 10.9761 35.3327 11.583H18.5098L16.1348 9.20801H6.04102V29.7913L10.0785 13.958H37.7077L33.4723 30.3455C33.3139 30.9788 33.0237 31.4406 32.6014 31.7309C32.1792 32.0212 31.6382 32.1663 30.9785 32.1663H6.04102ZM8.53477 29.7913H31.1764L34.5014 16.333H11.8598L8.53477 29.7913ZM8.53477 29.7913L11.8598 16.333L8.53477 29.7913V29.7913ZM6.04102 11.583V9.20801V11.583Z" fill="white"/>
</svg>
