<svg width="33" height="33" viewBox="0 0 33 33" fill="none" xmlns="http://www.w3.org/2000/svg">
<path d="M3.83398 7.66634C3.5451 7.66634 3.30621 7.5719 3.11732 7.38301C2.92843 7.19412 2.83398 6.95523 2.83398 6.66634V2.83301C2.83398 2.54412 2.92843 2.30523 3.11732 2.11634C3.30621 1.92745 3.5451 1.83301 3.83398 1.83301H7.66732C7.95621 1.83301 8.1951 1.92745 8.38398 2.11634C8.57287 2.30523 8.66732 2.54412 8.66732 2.83301C8.66732 3.1219 8.57287 3.36079 8.38398 3.54967C8.1951 3.73856 7.95621 3.83301 7.66732 3.83301H4.83398V6.66634C4.83398 6.95523 4.73954 7.19412 4.55065 7.38301C4.36176 7.5719 4.12287 7.66634 3.83398 7.66634ZM28.5007 7.66634C28.2118 7.66634 27.9729 7.5719 27.784 7.38301C27.5951 7.19412 27.5007 6.95523 27.5007 6.66634V3.83301H24.6673C24.3784 3.83301 24.1395 3.73856 23.9506 3.54967C23.7618 3.36079 23.6673 3.1219 23.6673 2.83301C23.6673 2.54412 23.7618 2.30523 23.9506 2.11634C24.1395 1.92745 24.3784 1.83301 24.6673 1.83301H28.5007C28.7895 1.83301 29.0284 1.92745 29.2173 2.11634C29.4062 2.30523 29.5006 2.54412 29.5006 2.83301V6.66634C29.5006 6.95523 29.4062 7.19412 29.2173 7.38301C29.0284 7.5719 28.7895 7.66634 28.5007 7.66634ZM3.83398 31.1663C3.5451 31.1663 3.30621 31.0719 3.11732 30.883C2.92843 30.6941 2.83398 30.4552 2.83398 30.1663V26.333C2.83398 26.0441 2.92843 25.8052 3.11732 25.6163C3.30621 25.4275 3.5451 25.333 3.83398 25.333C4.12287 25.333 4.36176 25.4275 4.55065 25.6163C4.73954 25.8052 4.83398 26.0441 4.83398 26.333V29.1663H7.66732C7.95621 29.1663 8.1951 29.2608 8.38398 29.4497C8.57287 29.6386 8.66732 29.8775 8.66732 30.1663C8.66732 30.4552 8.57287 30.6941 8.38398 30.883C8.1951 31.0719 7.95621 31.1663 7.66732 31.1663H3.83398ZM24.6673 31.1663C24.3784 31.1663 24.1395 31.0719 23.9506 30.883C23.7618 30.6941 23.6673 30.4552 23.6673 30.1663C23.6673 29.8775 23.7618 29.6386 23.9506 29.4497C24.1395 29.2608 24.3784 29.1663 24.6673 29.1663H27.5007V26.333C27.5007 26.0441 27.5951 25.8052 27.784 25.6163C27.9729 25.4275 28.2118 25.333 28.5007 25.333C28.7895 25.333 29.0284 25.4275 29.2173 25.6163C29.4062 25.8052 29.5006 26.0441 29.5006 26.333V30.1663C29.5006 30.4552 29.4062 30.6941 29.2173 30.883C29.0284 31.0719 28.7895 31.1663 28.5007 31.1663H24.6673ZM8.83398 25.1663H23.5007V7.83301H8.83398V25.1663ZM8.83398 27.1663C8.30065 27.1663 7.83398 26.9663 7.43398 26.5663C7.03398 26.1663 6.83398 25.6997 6.83398 25.1663V7.83301C6.83398 7.29967 7.03398 6.83301 7.43398 6.43301C7.83398 6.03301 8.30065 5.83301 8.83398 5.83301H23.5007C24.034 5.83301 24.5006 6.03301 24.9006 6.43301C25.3006 6.83301 25.5007 7.29967 25.5007 7.83301V25.1663C25.5007 25.6997 25.3006 26.1663 24.9006 26.5663C24.5006 26.9663 24.034 27.1663 23.5007 27.1663H8.83398ZM13.5007 13.4997H18.834C19.1229 13.4997 19.3618 13.4052 19.5506 13.2163C19.7395 13.0275 19.834 12.7886 19.834 12.4997C19.834 12.2108 19.7395 11.9719 19.5506 11.783C19.3618 11.5941 19.1229 11.4997 18.834 11.4997H13.5007C13.2118 11.4997 12.9729 11.5941 12.784 11.783C12.5951 11.9719 12.5007 12.2108 12.5007 12.4997C12.5007 12.7886 12.5951 13.0275 12.784 13.2163C12.9729 13.4052 13.2118 13.4997 13.5007 13.4997ZM13.5007 17.4997H18.834C19.1229 17.4997 19.3618 17.4052 19.5506 17.2163C19.7395 17.0275 19.834 16.7886 19.834 16.4997C19.834 16.2108 19.7395 15.9719 19.5506 15.783C19.3618 15.5941 19.1229 15.4997 18.834 15.4997H13.5007C13.2118 15.4997 12.9729 15.5941 12.784 15.783C12.5951 15.9719 12.5007 16.2108 12.5007 16.4997C12.5007 16.7886 12.5951 17.0275 12.784 17.2163C12.9729 17.4052 13.2118 17.4997 13.5007 17.4997ZM13.5007 21.4997H18.834C19.1229 21.4997 19.3618 21.4052 19.5506 21.2163C19.7395 21.0275 19.834 20.7886 19.834 20.4997C19.834 20.2108 19.7395 19.9719 19.5506 19.783C19.3618 19.5941 19.1229 19.4997 18.834 19.4997H13.5007C13.2118 19.4997 12.9729 19.5941 12.784 19.783C12.5951 19.9719 12.5007 20.2108 12.5007 20.4997C12.5007 20.7886 12.5951 21.0275 12.784 21.2163C12.9729 21.4052 13.2118 21.4997 13.5007 21.4997ZM8.83398 25.1663V7.83301V25.1663Z" fill="white"/>
</svg>
