<svg width="36" height="28" viewBox="0 0 36 28" fill="none" xmlns="http://www.w3.org/2000/svg">
<path d="M2.95801 27.5C2.25801 27.5 1.64551 27.2398 1.12051 26.7195C0.595507 26.1992 0.333008 25.6156 0.333008 24.9688V3.03125C0.333008 2.38437 0.595507 1.80078 1.12051 1.28047C1.64551 0.760156 2.25801 0.5 2.95801 0.5H15.208L17.833 3.03125H32.708C33.3788 3.03125 33.9841 3.29141 34.5236 3.81172C35.0632 4.33203 35.333 4.91563 35.333 5.5625V24.9688C35.333 25.6156 35.0632 26.1992 34.5236 26.7195C33.9841 27.2398 33.3788 27.5 32.708 27.5H2.95801ZM2.95801 3.03125V24.9688H32.708V5.5625H16.7393L14.1143 3.03125H2.95801Z" fill="white"/>
<path d="M2.95801 27.5C2.25801 27.5 1.64551 27.2398 1.12051 26.7195C0.595507 26.1992 0.333008 25.6156 0.333008 24.9688V3.03125C0.333008 2.38437 0.595507 1.80078 1.12051 1.28047C1.64551 0.760156 2.25801 0.5 2.95801 0.5H15.208L17.833 3.03125H32.708C33.3788 3.03125 33.9841 3.29141 34.5236 3.81172C35.0632 4.33203 35.333 4.91563 35.333 5.5625V24.9688C35.333 25.6156 35.0632 26.1992 34.5236 26.7195C33.9841 27.2398 33.3788 27.5 32.708 27.5H2.95801ZM2.95801 3.03125V24.9688H32.708V5.5625H16.7393L14.1143 3.03125H2.95801Z" fill="white"/>
<path d="M16.1641 19.932L24.2141 12.1695L22.3328 10.3555L16.1203 16.3461L13.6266 13.9414L11.7891 15.7133L16.1641 19.932Z" fill="white"/>
<path d="M16.1641 19.932L24.2141 12.1695L22.3328 10.3555L16.1203 16.3461L13.6266 13.9414L11.7891 15.7133L16.1641 19.932Z" fill="white"/>
</svg>
