<svg width="44" height="44" viewBox="0 0 44 44" fill="none" xmlns="http://www.w3.org/2000/svg">
<rect width="44" height="44" rx="5" fill="#F3802D"/>
<path d="M20.2773 20.9091H23.7227V13.2727C23.7227 12.8182 23.56 12.4318 23.2346 12.1136C22.9092 11.7955 22.4977 11.6364 22 11.6364C21.5215 11.6364 21.1147 11.7909 20.7797 12.1C20.4448 12.4091 20.2773 12.8 20.2773 13.2727V20.9091ZM13.3863 25.8182H30.6137V22.5455H13.3863V25.8182ZM11.5488 32.3636H15.3962V29.9091C15.3962 29.6727 15.4776 29.4773 15.6403 29.3227C15.803 29.1682 16.0087 29.0909 16.2576 29.0909C16.5064 29.0909 16.7122 29.1682 16.8749 29.3227C17.0376 29.4773 17.1189 29.6727 17.1189 29.9091V32.3636H21.1386V29.9091C21.1386 29.6727 21.22 29.4773 21.3827 29.3227C21.5454 29.1682 21.7512 29.0909 22 29.0909C22.2488 29.0909 22.4546 29.1682 22.6173 29.3227C22.78 29.4773 22.8614 29.6727 22.8614 29.9091V32.3636H26.8811V29.9091C26.8811 29.6727 26.9624 29.4773 27.1251 29.3227C27.2878 29.1682 27.4936 29.0909 27.7424 29.0909C27.9913 29.0909 28.197 29.1682 28.3597 29.3227C28.5224 29.4773 28.6038 29.6727 28.6038 29.9091V32.3636H32.4512L31.0156 26.9091H12.9844L11.5488 32.3636ZM31.7047 34H12.2953C11.5488 34 10.9458 33.7182 10.4864 33.1545C10.027 32.5909 9.89303 31.9636 10.0844 31.2727L11.6636 25.2727V23.0909C11.6636 22.4909 11.8885 21.9773 12.3384 21.55C12.7882 21.1227 13.3289 20.9091 13.9606 20.9091H18.5545V13.2727C18.5545 12.3636 18.8895 11.5909 19.5595 10.9545C20.2294 10.3182 21.0429 10 22 10C22.9571 10 23.7706 10.3182 24.4405 10.9545C25.1105 11.5909 25.4455 12.3636 25.4455 13.2727V20.9091H30.0394C30.6711 20.9091 31.2118 21.1227 31.6616 21.55C32.1115 21.9773 32.3364 22.4909 32.3364 23.0909V25.2727L33.9156 31.2727C34.107 31.9636 33.973 32.5909 33.5136 33.1545C33.0542 33.7182 32.4512 34 31.7047 34ZM30.6137 22.5455H13.3863H30.6137ZM23.7227 20.9091H20.2773H23.7227Z" fill="white"/>
</svg>
