<svg width="44" height="44" viewBox="0 0 44 44" fill="none" xmlns="http://www.w3.org/2000/svg">
<rect width="44" height="44" rx="5" fill="#F3802D"/>
<path d="M19.9901 20.7273H24.0099V11.8182C24.0099 11.2879 23.82 10.8371 23.4404 10.4659C23.0608 10.0947 22.5806 9.90909 22 9.90909C21.4417 9.90909 20.9672 10.0894 20.5764 10.45C20.1855 10.8106 19.9901 11.2667 19.9901 11.8182V20.7273ZM11.9507 26.4545H32.0493V22.6364H11.9507V26.4545ZM9.8069 34.0909H14.2956V31.2273C14.2956 30.9515 14.3905 30.7235 14.5803 30.5432C14.7701 30.3629 15.0102 30.2727 15.3005 30.2727C15.5908 30.2727 15.8309 30.3629 16.0207 30.5432C16.2105 30.7235 16.3054 30.9515 16.3054 31.2273V34.0909H20.9951V31.2273C20.9951 30.9515 21.09 30.7235 21.2798 30.5432C21.4696 30.3629 21.7097 30.2727 22 30.2727C22.2903 30.2727 22.5304 30.3629 22.7202 30.5432C22.91 30.7235 23.0049 30.9515 23.0049 31.2273V34.0909H27.6946V31.2273C27.6946 30.9515 27.7895 30.7235 27.9793 30.5432C28.1691 30.3629 28.4092 30.2727 28.6995 30.2727C28.9898 30.2727 29.2299 30.3629 29.4197 30.5432C29.6095 30.7235 29.7044 30.9515 29.7044 31.2273V34.0909H34.1931L32.5182 27.7273H11.4818L9.8069 34.0909ZM33.3222 36H10.6778C9.8069 36 9.10345 35.6712 8.56749 35.0136C8.03153 34.3561 7.87521 33.6242 8.09852 32.8182L9.94089 25.8182V23.2727C9.94089 22.5727 10.2033 21.9735 10.7281 21.475C11.2529 20.9765 11.8837 20.7273 12.6207 20.7273H17.9803V11.8182C17.9803 10.7576 18.3711 9.85606 19.1527 9.11364C19.9343 8.37121 20.8834 8 22 8C23.1166 8 24.0657 8.37121 24.8473 9.11364C25.6289 9.85606 26.0197 10.7576 26.0197 11.8182V20.7273H31.3793C32.1163 20.7273 32.7471 20.9765 33.2719 21.475C33.7967 21.9735 34.0591 22.5727 34.0591 23.2727V25.8182L35.9015 32.8182C36.1248 33.6242 35.9685 34.3561 35.4325 35.0136C34.8966 35.6712 34.1931 36 33.3222 36ZM32.0493 22.6364H11.9507H32.0493ZM24.0099 20.7273H19.9901H24.0099Z" fill="white"/>
</svg>
