<svg width="65" height="67" viewBox="0 0 65 67" fill="none" xmlns="http://www.w3.org/2000/svg">
<path d="M0 5C0 2.23858 2.23858 0 5 0H65V67H5C2.23858 67 0 64.7614 0 62V5Z" fill="#F3802D"/>
<path d="M30.203 32.0455H34.797V21.8636C34.797 21.2576 34.58 20.7424 34.1462 20.3182C33.7123 19.8939 33.1636 19.6818 32.5 19.6818C31.862 19.6818 31.3196 19.8879 30.873 20.3C30.4263 20.7121 30.203 21.2333 30.203 21.8636V32.0455ZM21.0151 38.5909H43.9849V34.2273H21.0151V38.5909ZM18.565 47.3182H23.6949V44.0455C23.6949 43.7303 23.8034 43.4697 24.0203 43.2636C24.2373 43.0576 24.5116 42.9545 24.8434 42.9545C25.1752 42.9545 25.4496 43.0576 25.6665 43.2636C25.8834 43.4697 25.9919 43.7303 25.9919 44.0455V47.3182H31.3515V44.0455C31.3515 43.7303 31.46 43.4697 31.6769 43.2636C31.8939 43.0576 32.1682 42.9545 32.5 42.9545C32.8318 42.9545 33.1061 43.0576 33.3231 43.2636C33.54 43.4697 33.6485 43.7303 33.6485 44.0455V47.3182H39.0081V44.0455C39.0081 43.7303 39.1166 43.4697 39.3335 43.2636C39.5504 43.0576 39.8248 42.9545 40.1566 42.9545C40.4884 42.9545 40.7627 43.0576 40.9797 43.2636C41.1966 43.4697 41.3051 43.7303 41.3051 44.0455V47.3182H46.435L44.5208 40.0455H20.4792L18.565 47.3182ZM45.4396 49.5H19.5604C18.565 49.5 17.7611 49.1242 17.1486 48.3727C16.536 47.6212 16.3574 46.7848 16.6126 45.8636L18.7182 37.8636V34.9545C18.7182 34.1545 19.018 33.4697 19.6178 32.9C20.2176 32.3303 20.9386 32.0455 21.7808 32.0455H27.9061V21.8636C27.9061 20.6515 28.3527 19.6212 29.246 18.7727C30.1392 17.9242 31.2239 17.5 32.5 17.5C33.7761 17.5 34.8608 17.9242 35.754 18.7727C36.6473 19.6212 37.0939 20.6515 37.0939 21.8636V32.0455H43.2192C44.0614 32.0455 44.7824 32.3303 45.3822 32.9C45.982 33.4697 46.2818 34.1545 46.2818 34.9545V37.8636L48.3874 45.8636C48.6426 46.7848 48.464 47.6212 47.8514 48.3727C47.2389 49.1242 46.435 49.5 45.4396 49.5ZM43.9849 34.2273H21.0151H43.9849ZM34.797 32.0455H30.203H34.797Z" fill="white"/>
</svg>
