<svg width="44" height="45" viewBox="0 0 44 45" fill="none" xmlns="http://www.w3.org/2000/svg">
<rect y="0.5" width="44" height="44" rx="5" fill="#F32D2D"/>
<path d="M12.7917 31.1666C12.3764 31.1666 12.0017 30.9996 11.6677 30.6655C11.3337 30.3315 11.1667 29.9569 11.1667 29.5416V15.4583C11.1667 15.043 11.3337 14.6683 11.6677 14.3343C12.0017 14.0003 12.3764 13.8333 12.7917 13.8333H20.4021L22.0271 15.4583H31.2083C31.6236 15.4583 31.9983 15.6253 32.3323 15.9593C32.6663 16.2933 32.8333 16.668 32.8333 17.0833H21.3229L19.6979 15.4583H12.7917V29.5416L15.5542 18.7083H34.4583L31.5604 29.9208C31.4521 30.3541 31.2535 30.6701 30.9646 30.8687C30.6757 31.0673 30.3056 31.1666 29.8542 31.1666H12.7917ZM14.4979 29.5416H29.9896L32.2646 20.3333H16.7729L14.4979 29.5416ZM14.4979 29.5416L16.7729 20.3333L14.4979 29.5416V29.5416ZM12.7917 17.0833V15.4583V17.0833Z" fill="white"/>
</svg>
