<svg width="65" height="67" viewBox="0 0 65 67" fill="none" xmlns="http://www.w3.org/2000/svg">
<path d="M0 5C0 2.23858 2.23858 0 5 0H65V67H5C2.23858 67 0 64.7614 0 62V5Z" fill="#F32D2D"/>
<path d="M19.041 46.1663C18.4341 46.1663 17.8865 45.9222 17.3983 45.434C16.9101 44.9459 16.666 44.3983 16.666 43.7913V23.208C16.666 22.6011 16.9101 22.0535 17.3983 21.5653C17.8865 21.0771 18.4341 20.833 19.041 20.833H30.1639L32.5389 23.208H45.9577C46.5646 23.208 47.1122 23.4521 47.6004 23.9403C48.0886 24.4285 48.3327 24.9761 48.3327 25.583H31.5098L29.1348 23.208H19.041V43.7913L23.0785 27.958H50.7077L46.4723 44.3455C46.3139 44.9788 46.0237 45.4406 45.6014 45.7309C45.1792 46.0212 44.6382 46.1663 43.9785 46.1663H19.041ZM21.5348 43.7913H44.1764L47.5014 30.333H24.8598L21.5348 43.7913ZM21.5348 43.7913L24.8598 30.333L21.5348 43.7913ZM19.041 25.583V23.208V25.583Z" fill="white"/>
</svg>
