<svg width="44" height="44" viewBox="0 0 44 44" fill="none" xmlns="http://www.w3.org/2000/svg">
<rect width="44" height="44" rx="5" fill="#F32D2D"/>
<path d="M11.375 32C10.8958 32 10.4635 31.8073 10.0781 31.4219C9.69271 31.0365 9.5 30.6042 9.5 30.125V13.875C9.5 13.3958 9.69271 12.9635 10.0781 12.5781C10.4635 12.1927 10.8958 12 11.375 12H20.1562L22.0312 13.875H32.625C33.1042 13.875 33.5365 14.0677 33.9219 14.4531C34.3073 14.8385 34.5 15.2708 34.5 15.75H21.2187L19.3437 13.875H11.375V30.125L14.5625 17.625H36.375L33.0312 30.5625C32.9062 31.0625 32.6771 31.4271 32.3437 31.6562C32.0104 31.8854 31.5833 32 31.0625 32H11.375ZM13.3437 30.125H31.2187L33.8437 19.5H15.9687L13.3437 30.125ZM13.3437 30.125L15.9687 19.5L13.3437 30.125V30.125ZM11.375 15.75V13.875V15.75Z" fill="white"/>
</svg>
