<svg width="66" height="67" viewBox="0 0 66 67" fill="none" xmlns="http://www.w3.org/2000/svg">
<path d="M0.666992 5C0.666992 2.23858 2.90557 0 5.66699 0H65.667V67H5.66699C2.90557 67 0.666992 64.7614 0.666992 62V5Z" fill="#9747FF"/>
<path d="M33.167 41.1911C32.7607 41.1911 32.4248 41.0557 32.1592 40.785C31.8936 40.5143 31.7607 40.172 31.7607 39.758V23.4682L27.1201 28.1975C26.8389 28.4841 26.5107 28.6194 26.1357 28.6035C25.7607 28.5876 25.4326 28.4363 25.1514 28.1497C24.8701 27.8631 24.7295 27.5207 24.7295 27.1226C24.7295 26.7245 24.8701 26.3822 25.1514 26.0955L32.1826 18.9299C32.3389 18.7707 32.4951 18.6592 32.6514 18.5955C32.8076 18.5318 32.9795 18.5 33.167 18.5C33.3545 18.5 33.5264 18.5318 33.6826 18.5955C33.8389 18.6592 33.9951 18.7707 34.1514 18.9299L41.2295 26.1433C41.5107 26.4299 41.6514 26.7643 41.6514 27.1465C41.6514 27.5287 41.5107 27.8631 41.2295 28.1497C40.9482 28.4363 40.6123 28.5796 40.2217 28.5796C39.8311 28.5796 39.4951 28.4363 39.2139 28.1497L34.5732 23.4682V39.758C34.5732 40.172 34.4404 40.5143 34.1748 40.785C33.9092 41.0557 33.5732 41.1911 33.167 41.1911ZM20.9795 48.5C20.2295 48.5 19.5732 48.2134 19.0107 47.6401C18.4482 47.0669 18.167 46.3981 18.167 45.6338V40.2357C18.167 39.8217 18.2998 39.4793 18.5654 39.2086C18.8311 38.9379 19.167 38.8025 19.5732 38.8025C19.9795 38.8025 20.3154 38.9379 20.5811 39.2086C20.8467 39.4793 20.9795 39.8217 20.9795 40.2357V45.6338H45.3545V40.2357C45.3545 39.8217 45.4873 39.4793 45.7529 39.2086C46.0186 38.9379 46.3545 38.8025 46.7607 38.8025C47.167 38.8025 47.5029 38.9379 47.7686 39.2086C48.0342 39.4793 48.167 39.8217 48.167 40.2357V45.6338C48.167 46.3981 47.8857 47.0669 47.3232 47.6401C46.7607 48.2134 46.1045 48.5 45.3545 48.5H20.9795Z" fill="white"/>
</svg>
