<svg width="44" height="44" viewBox="0 0 44 44" fill="none" xmlns="http://www.w3.org/2000/svg">
<rect width="44" height="44" rx="5" fill="#9C2DF3"/>
<path d="M22 27.6401C21.7021 27.6401 21.4557 27.5409 21.2609 27.3424C21.0661 27.1438 20.9688 26.8928 20.9688 26.5892V14.6433L17.5656 18.1115C17.3594 18.3217 17.1188 18.4209 16.8438 18.4092C16.5688 18.3976 16.3281 18.2866 16.1219 18.0764C15.9156 17.8662 15.8125 17.6152 15.8125 17.3232C15.8125 17.0313 15.9156 16.7803 16.1219 16.5701L21.2781 11.3153C21.3927 11.1985 21.5073 11.1168 21.6219 11.0701C21.7365 11.0234 21.8625 11 22 11C22.1375 11 22.2635 11.0234 22.3781 11.0701C22.4927 11.1168 22.6073 11.1985 22.7219 11.3153L27.9125 16.6051C28.1187 16.8153 28.2219 17.0605 28.2219 17.3408C28.2219 17.621 28.1187 17.8662 27.9125 18.0764C27.7062 18.2866 27.4599 18.3917 27.1734 18.3917C26.887 18.3917 26.6406 18.2866 26.4344 18.0764L23.0313 14.6433V26.5892C23.0313 26.8928 22.9339 27.1438 22.7391 27.3424C22.5443 27.5409 22.2979 27.6401 22 27.6401V27.6401ZM13.0625 33C12.5125 33 12.0312 32.7898 11.6187 32.3694C11.2062 31.949 11 31.4586 11 30.8981V26.9395C11 26.6359 11.0974 26.3848 11.2922 26.1863C11.487 25.9878 11.7333 25.8885 12.0313 25.8885C12.3292 25.8885 12.5755 25.9878 12.7703 26.1863C12.9651 26.3848 13.0625 26.6359 13.0625 26.9395V30.8981H30.9375V26.9395C30.9375 26.6359 31.0349 26.3848 31.2297 26.1863C31.4245 25.9878 31.6708 25.8885 31.9688 25.8885C32.2667 25.8885 32.513 25.9878 32.7078 26.1863C32.9026 26.3848 33 26.6359 33 26.9395V30.8981C33 31.4586 32.7938 31.949 32.3813 32.3694C31.9688 32.7898 31.4875 33 30.9375 33H13.0625Z" fill="white"/>
</svg>
