<svg width="44" height="44" viewBox="0 0 44 44" fill="none" xmlns="http://www.w3.org/2000/svg">
<rect width="44" height="44" rx="5" fill="#9C2DF3"/>
<path d="M22 28.6656C21.6479 28.6656 21.3568 28.5483 21.1266 28.3137C20.8964 28.0791 20.7813 27.7824 20.7813 27.4236V13.3057L16.7594 17.4045C16.5156 17.6529 16.2313 17.7702 15.9063 17.7564C15.5813 17.7426 15.2969 17.6115 15.0531 17.3631C14.8094 17.1147 14.6875 16.8179 14.6875 16.4729C14.6875 16.1279 14.8094 15.8312 15.0531 15.5828L21.1469 9.37261C21.2823 9.23461 21.4177 9.138 21.5531 9.0828C21.6885 9.0276 21.8375 9 22 9C22.1625 9 22.3115 9.0276 22.4469 9.0828C22.5823 9.138 22.7177 9.23461 22.8531 9.37261L28.9875 15.6242C29.2312 15.8726 29.3531 16.1624 29.3531 16.4936C29.3531 16.8248 29.2312 17.1147 28.9875 17.3631C28.7437 17.6115 28.4526 17.7357 28.1141 17.7357C27.7755 17.7357 27.4844 17.6115 27.2406 17.3631L23.2188 13.3057V27.4236C23.2188 27.7824 23.1036 28.0791 22.8734 28.3137C22.6432 28.5483 22.3521 28.6656 22 28.6656V28.6656ZM11.4375 35C10.7875 35 10.2187 34.7516 9.73125 34.2548C9.24375 33.758 9 33.1783 9 32.5159V27.8376C9 27.4788 9.1151 27.1821 9.34531 26.9475C9.57552 26.7128 9.86667 26.5955 10.2188 26.5955C10.5708 26.5955 10.862 26.7128 11.0922 26.9475C11.3224 27.1821 11.4375 27.4788 11.4375 27.8376V32.5159H32.5625V27.8376C32.5625 27.4788 32.6776 27.1821 32.9078 26.9475C33.138 26.7128 33.4292 26.5955 33.7813 26.5955C34.1333 26.5955 34.4245 26.7128 34.6547 26.9475C34.8849 27.1821 35 27.4788 35 27.8376V32.5159C35 33.1783 34.7563 33.758 34.2688 34.2548C33.7813 34.7516 33.2125 35 32.5625 35H11.4375Z" fill="white"/>
</svg>
