<svg width="24" height="25" viewBox="0 0 24 25" fill="none" xmlns="http://www.w3.org/2000/svg">
<rect y="0.545898" width="24" height="24" rx="3" fill="#F3CC00"/>
<path d="M7.875 16.6709H18.375V6.1709H17.25V10.8771C17.25 10.9896 17.2031 11.074 17.1094 11.1303C17.0156 11.1865 16.9187 11.1834 16.8187 11.1209L15.5062 10.3146L14.1938 11.1209C14.0938 11.1834 13.9969 11.1865 13.9031 11.1303C13.8094 11.074 13.7625 10.9896 13.7625 10.8771V6.1709H7.875V16.6709ZM7.875 17.7959C7.575 17.7959 7.3125 17.6834 7.0875 17.4584C6.8625 17.2334 6.75 16.9709 6.75 16.6709V6.1709C6.75 5.8709 6.8625 5.6084 7.0875 5.3834C7.3125 5.1584 7.575 5.0459 7.875 5.0459H18.375C18.675 5.0459 18.9375 5.1584 19.1625 5.3834C19.3875 5.6084 19.5 5.8709 19.5 6.1709V16.6709C19.5 16.9709 19.3875 17.2334 19.1625 17.4584C18.9375 17.6834 18.675 17.7959 18.375 17.7959H7.875ZM5.625 20.0459C5.325 20.0459 5.0625 19.9334 4.8375 19.7084C4.6125 19.4834 4.5 19.2209 4.5 18.9209V7.8584C4.5 7.6959 4.55313 7.56152 4.65938 7.45527C4.76563 7.34902 4.9 7.2959 5.0625 7.2959C5.225 7.2959 5.35937 7.34902 5.46562 7.45527C5.57187 7.56152 5.625 7.6959 5.625 7.8584V18.9209H16.6875C16.85 18.9209 16.9844 18.974 17.0906 19.0803C17.1969 19.1865 17.25 19.3209 17.25 19.4834C17.25 19.6459 17.1969 19.7803 17.0906 19.8865C16.9844 19.9928 16.85 20.0459 16.6875 20.0459H5.625ZM13.7625 6.1709H17.25H13.7625ZM7.875 6.1709H18.375H7.875Z" fill="white"/>
</svg>
