<svg width="24" height="25" viewBox="0 0 24 25" fill="none" xmlns="http://www.w3.org/2000/svg">
<rect y="0.545654" width="24" height="24" rx="3" fill="#F3802D"/>
<path d="M10.8515 11.8184H13.1485V6.72747C13.1485 6.42444 13.04 6.16687 12.8231 5.95475C12.6061 5.74262 12.3318 5.63656 12 5.63656C11.681 5.63656 11.4098 5.73959 11.1865 5.94565C10.9632 6.15171 10.8515 6.41232 10.8515 6.72747V11.8184ZM6.25757 15.0911H17.7424V12.9093H6.25757V15.0911ZM5.03251 19.4547H7.59747V17.8184C7.59747 17.6608 7.6517 17.5305 7.76017 17.4275C7.86864 17.3244 8.00582 17.2729 8.17171 17.2729C8.3376 17.2729 8.47478 17.3244 8.58325 17.4275C8.69172 17.5305 8.74595 17.6608 8.74595 17.8184V19.4547H11.4258V17.8184C11.4258 17.6608 11.48 17.5305 11.5885 17.4275C11.6969 17.3244 11.8341 17.2729 12 17.2729C12.1659 17.2729 12.3031 17.3244 12.4115 17.4275C12.52 17.5305 12.5742 17.6608 12.5742 17.8184V19.4547H15.254V17.8184C15.254 17.6608 15.3083 17.5305 15.4167 17.4275C15.5252 17.3244 15.6624 17.2729 15.8283 17.2729C15.9942 17.2729 16.1314 17.3244 16.2398 17.4275C16.3483 17.5305 16.4025 17.6608 16.4025 17.8184V19.4547H18.9675L18.0104 15.8184H5.98958L5.03251 19.4547ZM18.4698 20.5457H5.53019C5.03251 20.5457 4.63054 20.3578 4.32428 19.982C4.01802 19.6063 3.92869 19.1881 4.0563 18.7275L5.10908 14.7275V13.2729C5.10908 12.8729 5.25902 12.5305 5.5589 12.2457C5.85878 11.9608 6.21928 11.8184 6.64039 11.8184H9.70303V6.72747C9.70303 6.12141 9.92634 5.60626 10.373 5.18202C10.8196 4.75778 11.362 4.54565 12 4.54565C12.638 4.54565 13.1804 4.75778 13.627 5.18202C14.0737 5.60626 14.297 6.12141 14.297 6.72747V11.8184H17.3596C17.7807 11.8184 18.1412 11.9608 18.4411 12.2457C18.741 12.5305 18.8909 12.8729 18.8909 13.2729V14.7275L19.9437 18.7275C20.0713 19.1881 19.982 19.6063 19.6757 19.982C19.3695 20.3578 18.9675 20.5457 18.4698 20.5457ZM17.7424 12.9093H6.25757H17.7424ZM13.1485 11.8184H10.8515H13.1485Z" fill="white"/>
</svg>
