<svg width="24" height="25" viewBox="0 0 24 25" fill="none" xmlns="http://www.w3.org/2000/svg">
<rect y="0.545654" width="24" height="24" rx="3" fill="#F32D2D"/>
<path d="M6.12641 18.3371C5.86151 18.3371 5.62252 18.2255 5.40945 18.0023C5.19638 17.7791 5.08984 17.5287 5.08984 17.2512V7.83983C5.08984 7.56232 5.19638 7.31195 5.40945 7.08873C5.62252 6.86552 5.86151 6.75391 6.12641 6.75391H10.981L12.0176 7.83983H17.8742C18.1391 7.83983 18.378 7.95144 18.5911 8.17466C18.8042 8.39788 18.9107 8.64824 18.9107 8.92576H11.5684L10.5318 7.83983H6.12641V17.2512L7.88857 10.0117H19.9473L18.0987 17.5046C18.0296 17.7942 17.9029 18.0053 17.7187 18.138C17.5344 18.2708 17.2983 18.3371 17.0103 18.3371H6.12641ZM7.2148 17.2512H17.0967L18.5479 11.0976H8.666L7.2148 17.2512ZM7.2148 17.2512L8.666 11.0976L7.2148 17.2512ZM6.12641 8.92576V7.83983V8.92576Z" fill="white"/>
</svg>
