<svg width="32" height="32" viewBox="0 0 32 32" fill="none" xmlns="http://www.w3.org/2000/svg">
<path d="M2.50693 14.4426C2.80223 11.9664 3.81502 9.63057 5.42068 7.72256C5.59834 7.50833 5.81876 7.33353 6.06783 7.20935C6.31691 7.08518 6.58917 7.01435 6.86718 7.00141C7.1452 6.98847 7.42285 7.03369 7.68239 7.13419C7.94193 7.23469 8.17763 7.38826 8.37443 7.58506L11.8332 11.1176C12.1663 11.4499 12.3704 11.8898 12.4091 12.3588C12.4478 12.8277 12.3185 13.2951 12.0444 13.6776C11.8368 13.9721 11.6804 14.2996 11.5819 14.6463C11.5506 14.7486 11.4874 14.8382 11.4014 14.9018C11.3155 14.9655 11.2114 14.9999 11.1044 15.0001H3.00443C2.93384 15.0002 2.86404 14.9853 2.7996 14.9565C2.73516 14.9277 2.67755 14.8856 2.63055 14.833C2.58356 14.7803 2.54824 14.7183 2.52694 14.651C2.50563 14.5837 2.49881 14.5127 2.50693 14.4426ZM16.5869 3.00756C16.3107 2.98347 16.0324 3.01709 15.7699 3.10628C15.5073 3.19547 15.2662 3.33829 15.0618 3.52566C14.8574 3.71303 14.6941 3.94086 14.5825 4.19468C14.4708 4.4485 14.4132 4.72277 14.4132 5.00006V10.0838C14.4097 10.5555 14.5746 11.013 14.8782 11.3741C15.1817 11.7352 15.6041 11.9762 16.0694 12.0538C16.9456 12.1984 17.7488 12.6304 18.3523 13.2817C18.9559 13.9331 19.3256 14.7668 19.4031 15.6514C19.4806 16.536 19.2615 17.4213 18.7803 18.1677C18.2992 18.9141 17.5834 19.4791 16.7457 19.7738C16.6482 19.8096 16.564 19.8745 16.5046 19.9597C16.4451 20.0448 16.4132 20.1462 16.4132 20.2501V28.4038C16.4127 28.4746 16.4273 28.5447 16.4559 28.6094C16.4846 28.6742 16.5266 28.7321 16.5793 28.7794C16.632 28.8266 16.6942 28.8622 16.7616 28.8836C16.8291 28.9051 16.9004 28.912 16.9707 28.9038C20.0905 28.5186 22.9662 27.0197 25.0687 24.6827C27.1711 22.3458 28.3588 19.3281 28.4132 16.1851C28.5069 9.39881 23.3119 3.61006 16.5869 3.00756ZM14.0694 19.7701C13.5105 19.5707 13.0028 19.2494 12.5834 18.8295C12.164 18.4097 11.8432 17.9017 11.6444 17.3426C11.6103 17.2434 11.5464 17.1572 11.4613 17.0959C11.3763 17.0346 11.2743 17.0011 11.1694 17.0001H3.00318C2.9325 16.9996 2.86253 17.0142 2.79789 17.0427C2.73325 17.0713 2.67539 17.1132 2.62815 17.1658C2.5809 17.2184 2.54533 17.2803 2.52379 17.3477C2.50225 17.415 2.49522 17.4861 2.50318 17.5563C2.85332 20.4456 4.16196 23.1341 6.21994 25.1921C8.27791 27.25 10.9664 28.5587 13.8557 28.9088C13.9259 28.9168 13.997 28.9097 14.0643 28.8882C14.1316 28.8667 14.1936 28.8311 14.2462 28.7838C14.2987 28.7366 14.3407 28.6787 14.3693 28.6141C14.3978 28.5495 14.4124 28.4795 14.4119 28.4088V20.2501C14.4121 20.1443 14.3792 20.0411 14.3178 19.955C14.2563 19.869 14.1695 19.8043 14.0694 19.7701Z" fill="#F3802D"/>
</svg>
