<svg width="32" height="32" viewBox="0 0 32 32" fill="none" xmlns="http://www.w3.org/2000/svg">
<path d="M17.1738 3.00744C16.8975 2.98335 16.6193 3.01697 16.3567 3.10616C16.0942 3.19535 15.853 3.33816 15.6486 3.52553C15.4442 3.7129 15.281 3.94073 15.1693 4.19456C15.0577 4.44838 15 4.72264 15 4.99994V10.0837C14.9966 10.5554 15.1614 11.0129 15.465 11.374C15.7686 11.7351 16.191 11.9761 16.6563 12.0537C17.3997 12.1784 18.0928 12.5107 18.6556 13.0122C19.2184 13.5138 19.628 14.1641 19.8373 14.8883C20.0465 15.6126 20.0468 16.3812 19.8382 17.1056C19.6296 17.83 19.2205 18.4807 18.6581 18.9827C18.0957 19.4847 17.4029 19.8175 16.6596 19.9429C15.9162 20.0682 15.1526 19.981 14.4567 19.6912C13.7607 19.4013 13.1609 18.9208 12.7263 18.3049C12.2916 17.6889 12.0398 16.9627 12 16.2099C11.9488 15.1824 12.1588 14.3349 12.625 13.6774C12.899 13.2952 13.0282 12.828 12.9895 12.3593C12.9508 11.8905 12.7468 11.4508 12.4138 11.1187L8.96126 7.58494C8.76447 7.38814 8.52876 7.23457 8.26923 7.13407C8.00969 7.03357 7.73203 6.98835 7.45402 7.00129C7.176 7.01423 6.90375 7.08505 6.65467 7.20923C6.40559 7.33341 6.18517 7.50821 6.00751 7.72244C3.92373 10.2199 2.85608 13.4101 3.01681 16.6587C3.17754 19.9074 4.55488 22.9766 6.87501 25.2562C9.30101 27.6631 12.5826 29.0095 16 28.9999H16.1863C19.5669 28.9424 22.793 27.5737 25.1837 25.1828C27.5745 22.7918 28.9428 19.5656 29 16.1849C29.0938 9.39744 23.8988 3.60994 17.1738 3.00744ZM7.54001 8.99244L10.9913 12.5162V12.5237C10.479 13.2589 10.1573 14.1097 10.055 14.9999H5.04501C5.24528 12.79 6.11579 10.694 7.54001 8.99244ZM5.04626 16.9999H10.0838C10.2911 18.2286 10.8759 19.3623 11.7569 20.2435C12.6379 21.1247 13.7714 21.7097 15 21.9174V26.9549C12.4388 26.721 10.0406 25.5969 8.22211 23.7782C6.40364 21.9596 5.27992 19.5612 5.04626 16.9999ZM23.7675 23.7674C21.9562 25.5914 19.56 26.7187 17 26.9512V21.9174C18.1589 21.7246 19.2346 21.1926 20.0913 20.3887C20.9103 19.6256 21.4995 18.6487 21.7923 17.5683C22.0851 16.4879 22.0699 15.3471 21.7483 14.275C21.4267 13.2028 20.8116 12.2419 19.9725 11.501C19.1334 10.7602 18.1038 10.2688 17 10.0824V4.99994C22.69 5.50994 27.0838 10.4099 27 16.1562C26.9607 19.0187 25.8001 21.7515 23.7675 23.7674Z" fill="white"/>
</svg>
