<svg width="32" height="32" viewBox="0 0 32 32" fill="none" xmlns="http://www.w3.org/2000/svg">
<rect width="32" height="32" rx="3" fill="#43DB6D"/>
<path d="M6.65 25C6.21 25 5.825 24.8266 5.495 24.4797C5.165 24.1328 5 23.7437 5 23.3125V8.6875C5 8.25625 5.165 7.86719 5.495 7.52031C5.825 7.17344 6.21 7 6.65 7H14.35L16 8.6875H25.35C25.7717 8.6875 26.1521 8.86094 26.4913 9.20781C26.8304 9.55469 27 9.94375 27 10.375V23.3125C27 23.7437 26.8304 24.1328 26.4913 24.4797C26.1521 24.8266 25.7717 25 25.35 25H6.65ZM6.65 8.6875V23.3125H25.35V10.375H15.3125L13.6625 8.6875H6.65Z" fill="white"/>
<path d="M6.65 25C6.21 25 5.825 24.8266 5.495 24.4797C5.165 24.1328 5 23.7437 5 23.3125V8.6875C5 8.25625 5.165 7.86719 5.495 7.52031C5.825 7.17344 6.21 7 6.65 7H14.35L16 8.6875H25.35C25.7717 8.6875 26.1521 8.86094 26.4913 9.20781C26.8304 9.55469 27 9.94375 27 10.375V23.3125C27 23.7437 26.8304 24.1328 26.4913 24.4797C26.1521 24.8266 25.7717 25 25.35 25H6.65ZM6.65 8.6875V23.3125H25.35V10.375H15.3125L13.6625 8.6875H6.65Z" fill="white"/>
<path d="M14.9512 19.9547L20.0112 14.7797L18.8287 13.5703L14.9237 17.5641L13.3562 15.9609L12.2012 17.1422L14.9512 19.9547Z" fill="white"/>
<path d="M14.9512 19.9547L20.0112 14.7797L18.8287 13.5703L14.9237 17.5641L13.3562 15.9609L12.2012 17.1422L14.9512 19.9547Z" fill="white"/>
</svg>
