<svg width="32" height="32" viewBox="0 0 32 32" fill="none" xmlns="http://www.w3.org/2000/svg">
<rect width="32" height="32" rx="3" fill="#F3CC00"/>
<path d="M10.958 21.0413H23.7913V8.20801H22.4163V13.9601C22.4163 14.0976 22.359 14.2007 22.2445 14.2695C22.1299 14.3382 22.0115 14.3344 21.8893 14.258L20.2851 13.2726L18.6809 14.258C18.5587 14.3344 18.4403 14.3382 18.3257 14.2695C18.2111 14.2007 18.1538 14.0976 18.1538 13.9601V8.20801H10.958V21.0413ZM10.958 22.4163C10.5913 22.4163 10.2705 22.2788 9.99551 22.0038C9.72051 21.7288 9.58301 21.408 9.58301 21.0413V8.20801C9.58301 7.84134 9.72051 7.52051 9.99551 7.24551C10.2705 6.97051 10.5913 6.83301 10.958 6.83301H23.7913C24.158 6.83301 24.4788 6.97051 24.7538 7.24551C25.0288 7.52051 25.1663 7.84134 25.1663 8.20801V21.0413C25.1663 21.408 25.0288 21.7288 24.7538 22.0038C24.4788 22.2788 24.158 22.4163 23.7913 22.4163H10.958ZM8.20801 25.1663C7.84134 25.1663 7.52051 25.0288 7.24551 24.7538C6.97051 24.4788 6.83301 24.158 6.83301 23.7913V10.2705C6.83301 10.0719 6.89794 9.90766 7.0278 9.7778C7.15766 9.64794 7.3219 9.58301 7.52051 9.58301C7.71912 9.58301 7.88335 9.64794 8.01322 9.7778C8.14308 9.90766 8.20801 10.0719 8.20801 10.2705V23.7913H21.7288C21.9275 23.7913 22.0917 23.8563 22.2215 23.9861C22.3514 24.116 22.4163 24.2802 22.4163 24.4788C22.4163 24.6775 22.3514 24.8417 22.2215 24.9715C22.0917 25.1014 21.9275 25.1663 21.7288 25.1663H8.20801ZM18.1538 8.20801H22.4163H18.1538ZM10.958 8.20801H23.7913H10.958Z" fill="white"/>
</svg>
