<svg width="32" height="32" viewBox="0 0 32 32" fill="none" xmlns="http://www.w3.org/2000/svg">
<rect width="32" height="32" rx="3" fill="#2D94F3"/>
<path d="M7.52051 9.92741C7.3219 9.92741 7.15766 9.86248 7.0278 9.73262C6.89794 9.60276 6.83301 9.43852 6.83301 9.23991V6.60449C6.83301 6.40588 6.89794 6.24164 7.0278 6.11178C7.15766 5.98192 7.3219 5.91699 7.52051 5.91699H10.1559C10.3545 5.91699 10.5188 5.98192 10.6486 6.11178C10.7785 6.24164 10.8434 6.40588 10.8434 6.60449C10.8434 6.8031 10.7785 6.96734 10.6486 7.0972C10.5188 7.22706 10.3545 7.29199 10.1559 7.29199H8.20801V9.23991C8.20801 9.43852 8.14308 9.60276 8.01322 9.73262C7.88335 9.86248 7.71912 9.92741 7.52051 9.92741ZM24.4788 9.92741C24.2802 9.92741 24.116 9.86248 23.9861 9.73262C23.8563 9.60276 23.7913 9.43852 23.7913 9.23991V7.29199H21.8434C21.6448 7.29199 21.4806 7.22706 21.3507 7.0972C21.2209 6.96734 21.1559 6.8031 21.1559 6.60449C21.1559 6.40588 21.2209 6.24164 21.3507 6.11178C21.4806 5.98192 21.6448 5.91699 21.8434 5.91699H24.4788C24.6775 5.91699 24.8417 5.98192 24.9715 6.11178C25.1014 6.24164 25.1663 6.40588 25.1663 6.60449V9.23991C25.1663 9.43852 25.1014 9.60276 24.9715 9.73262C24.8417 9.86248 24.6775 9.92741 24.4788 9.92741ZM7.52051 26.0837C7.3219 26.0837 7.15766 26.0187 7.0278 25.8889C6.89794 25.759 6.83301 25.5948 6.83301 25.3962V22.7607C6.83301 22.5621 6.89794 22.3979 7.0278 22.268C7.15766 22.1382 7.3219 22.0732 7.52051 22.0732C7.71912 22.0732 7.88335 22.1382 8.01322 22.268C8.14308 22.3979 8.20801 22.5621 8.20801 22.7607V24.7087H10.1559C10.3545 24.7087 10.5188 24.7736 10.6486 24.9035C10.7785 25.0333 10.8434 25.1975 10.8434 25.3962C10.8434 25.5948 10.7785 25.759 10.6486 25.8889C10.5188 26.0187 10.3545 26.0837 10.1559 26.0837H7.52051ZM21.8434 26.0837C21.6448 26.0837 21.4806 26.0187 21.3507 25.8889C21.2209 25.759 21.1559 25.5948 21.1559 25.3962C21.1559 25.1975 21.2209 25.0333 21.3507 24.9035C21.4806 24.7736 21.6448 24.7087 21.8434 24.7087H23.7913V22.7607C23.7913 22.5621 23.8563 22.3979 23.9861 22.268C24.116 22.1382 24.2802 22.0732 24.4788 22.0732C24.6775 22.0732 24.8417 22.1382 24.9715 22.268C25.1014 22.3979 25.1663 22.5621 25.1663 22.7607V25.3962C25.1663 25.5948 25.1014 25.759 24.9715 25.8889C24.8417 26.0187 24.6775 26.0837 24.4788 26.0837H21.8434ZM10.958 21.9587H21.0413V10.042H10.958V21.9587ZM10.958 23.3337C10.5913 23.3337 10.2705 23.1962 9.99551 22.9212C9.72051 22.6462 9.58301 22.3253 9.58301 21.9587V10.042C9.58301 9.67533 9.72051 9.35449 9.99551 9.07949C10.2705 8.80449 10.5913 8.66699 10.958 8.66699H21.0413C21.408 8.66699 21.7288 8.80449 22.0038 9.07949C22.2788 9.35449 22.4163 9.67533 22.4163 10.042V21.9587C22.4163 22.3253 22.2788 22.6462 22.0038 22.9212C21.7288 23.1962 21.408 23.3337 21.0413 23.3337H10.958ZM14.1663 13.9378H17.833C18.0316 13.9378 18.1959 13.8729 18.3257 13.743C18.4556 13.6132 18.5205 13.4489 18.5205 13.2503C18.5205 13.0517 18.4556 12.8875 18.3257 12.7576C18.1959 12.6278 18.0316 12.5628 17.833 12.5628H14.1663C13.9677 12.5628 13.8035 12.6278 13.6736 12.7576C13.5438 12.8875 13.4788 13.0517 13.4788 13.2503C13.4788 13.4489 13.5438 13.6132 13.6736 13.743C13.8035 13.8729 13.9677 13.9378 14.1663 13.9378ZM14.1663 16.6878H17.833C18.0316 16.6878 18.1959 16.6229 18.3257 16.493C18.4556 16.3632 18.5205 16.1989 18.5205 16.0003C18.5205 15.8017 18.4556 15.6375 18.3257 15.5076C18.1959 15.3778 18.0316 15.3128 17.833 15.3128H14.1663C13.9677 15.3128 13.8035 15.3778 13.6736 15.5076C13.5438 15.6375 13.4788 15.8017 13.4788 16.0003C13.4788 16.1989 13.5438 16.3632 13.6736 16.493C13.8035 16.6229 13.9677 16.6878 14.1663 16.6878ZM14.1663 19.4378H17.833C18.0316 19.4378 18.1959 19.3729 18.3257 19.243C18.4556 19.1132 18.5205 18.9489 18.5205 18.7503C18.5205 18.5517 18.4556 18.3875 18.3257 18.2576C18.1959 18.1278 18.0316 18.0628 17.833 18.0628H14.1663C13.9677 18.0628 13.8035 18.1278 13.6736 18.2576C13.5438 18.3875 13.4788 18.5517 13.4788 18.7503C13.4788 18.9489 13.5438 19.1132 13.6736 19.243C13.8035 19.3729 13.9677 19.4378 14.1663 19.4378ZM10.958 21.9587V10.042V21.9587Z" fill="white"/>
</svg>
