<svg width="32" height="32" viewBox="0 0 32 32" fill="none" xmlns="http://www.w3.org/2000/svg">
<rect width="32" height="32" rx="3" fill="#F3802D"/>
<path d="M14.5644 15.0909H17.4356V8.72727C17.4356 8.34848 17.3 8.02652 17.0289 7.76136C16.7577 7.49621 16.4147 7.36364 16 7.36364C15.6012 7.36364 15.2623 7.49242 14.9831 7.75C14.704 8.00758 14.5644 8.33333 14.5644 8.72727V15.0909ZM8.82196 19.1818H23.178V16.4545H8.82196V19.1818ZM7.29064 24.6364H10.4968V22.5909C10.4968 22.3939 10.5646 22.2311 10.7002 22.1023C10.8358 21.9735 11.0073 21.9091 11.2146 21.9091C11.422 21.9091 11.5935 21.9735 11.7291 22.1023C11.8646 22.2311 11.9324 22.3939 11.9324 22.5909V24.6364H15.2822V22.5909C15.2822 22.3939 15.35 22.2311 15.4856 22.1023C15.6212 21.9735 15.7926 21.9091 16 21.9091C16.2074 21.9091 16.3788 21.9735 16.5144 22.1023C16.65 22.2311 16.7178 22.3939 16.7178 22.5909V24.6364H20.0676V22.5909C20.0676 22.3939 20.1354 22.2311 20.2709 22.1023C20.4065 21.9735 20.578 21.9091 20.7854 21.9091C20.9927 21.9091 21.1642 21.9735 21.2998 22.1023C21.4354 22.2311 21.5032 22.3939 21.5032 22.5909V24.6364H24.7094L23.513 20.0909H8.48698L7.29064 24.6364ZM24.0873 26H7.91274C7.29064 26 6.78818 25.7652 6.40535 25.2955C6.02252 24.8258 5.91086 24.303 6.07037 23.7273L7.38635 18.7273V16.9091C7.38635 16.4091 7.57377 15.9811 7.94863 15.625C8.32348 15.2689 8.7741 15.0909 9.30049 15.0909H13.1288V8.72727C13.1288 7.9697 13.4079 7.32576 13.9662 6.79545C14.5245 6.26515 15.2024 6 16 6C16.7976 6 17.4755 6.26515 18.0338 6.79545C18.5921 7.32576 18.8712 7.9697 18.8712 8.72727V15.0909H22.6995C23.2259 15.0909 23.6765 15.2689 24.0514 15.625C24.4262 15.9811 24.6137 16.4091 24.6137 16.9091V18.7273L25.9296 23.7273C26.0891 24.303 25.9775 24.8258 25.5947 25.2955C25.2118 25.7652 24.7094 26 24.0873 26ZM23.178 16.4545H8.82196H23.178ZM17.4356 15.0909H14.5644H17.4356Z" fill="white"/>
</svg>
