<svg width="32" height="32" viewBox="0 0 32 32" fill="none" xmlns="http://www.w3.org/2000/svg">
<rect width="32" height="32" rx="3" fill="#F32D2D"/>
<path d="M8.20801 23.3337C7.85662 23.3337 7.53961 23.1923 7.25697 22.9097C6.97433 22.6271 6.83301 22.31 6.83301 21.9587V10.042C6.83301 9.6906 6.97433 9.37359 7.25697 9.09095C7.53961 8.80831 7.85662 8.66699 8.20801 8.66699H14.6476L16.0226 10.042H23.7913C24.1427 10.042 24.4597 10.1833 24.7424 10.466C25.025 10.7486 25.1663 11.0656 25.1663 11.417H15.4268L14.0518 10.042H8.20801V21.9587L10.5455 12.792H26.5413L24.0893 22.2795C23.9976 22.6462 23.8295 22.9135 23.5851 23.0816C23.3406 23.2496 23.0275 23.3337 22.6455 23.3337H8.20801ZM9.65176 21.9587H22.7601L24.6851 14.167H11.5768L9.65176 21.9587ZM9.65176 21.9587L11.5768 14.167L9.65176 21.9587V21.9587ZM8.20801 11.417V10.042V11.417Z" fill="white"/>
</svg>
