<svg width="32" height="32" viewBox="0 0 32 32" fill="none" xmlns="http://www.w3.org/2000/svg">
<rect width="32" height="32" rx="3" fill="#9C2DF3"/>
<path d="M16 20.6146C15.7563 20.6146 15.5547 20.5334 15.3953 20.371C15.2359 20.2086 15.1562 20.0032 15.1562 19.7548V9.98089L12.3719 12.8185C12.2031 12.9904 12.0063 13.0717 11.7813 13.0621C11.5563 13.0525 11.3594 12.9618 11.1906 12.7898C11.0219 12.6178 10.9375 12.4124 10.9375 12.1736C10.9375 11.9347 11.0219 11.7293 11.1906 11.5573L15.4094 7.25796C15.5031 7.16242 15.5969 7.09554 15.6906 7.05732C15.7844 7.01911 15.8875 7 16 7C16.1125 7 16.2156 7.01911 16.3094 7.05732C16.4031 7.09554 16.4969 7.16242 16.5906 7.25796L20.8375 11.586C21.0062 11.758 21.0906 11.9586 21.0906 12.1879C21.0906 12.4172 21.0062 12.6178 20.8375 12.7898C20.6687 12.9618 20.4672 13.0478 20.2328 13.0478C19.9984 13.0478 19.7969 12.9618 19.6281 12.7898L16.8438 9.98089V19.7548C16.8438 20.0032 16.7641 20.2086 16.6047 20.371C16.4453 20.5334 16.2438 20.6146 16 20.6146ZM8.6875 25C8.2375 25 7.84375 24.828 7.50625 24.4841C7.16875 24.1401 7 23.7389 7 23.2803V20.0414C7 19.793 7.07969 19.5876 7.23906 19.4252C7.39844 19.2627 7.6 19.1815 7.84375 19.1815C8.0875 19.1815 8.28906 19.2627 8.44844 19.4252C8.60781 19.5876 8.6875 19.793 8.6875 20.0414V23.2803H23.3125V20.0414C23.3125 19.793 23.3922 19.5876 23.5516 19.4252C23.7109 19.2627 23.9125 19.1815 24.1563 19.1815C24.4 19.1815 24.6016 19.2627 24.7609 19.4252C24.9203 19.5876 25 19.793 25 20.0414V23.2803C25 23.7389 24.8313 24.1401 24.4938 24.4841C24.1563 24.828 23.7625 25 23.3125 25H8.6875Z" fill="white"/>
</svg>
