<svg width="45" height="34" viewBox="0 0 45 34" fill="none" xmlns="http://www.w3.org/2000/svg">
<path d="M3.29175 33.6666C2.49314 33.6666 1.77265 33.3454 1.13029 32.703C0.487929 32.0607 0.166748 31.3402 0.166748 30.5416V3.45825C0.166748 2.65964 0.487929 1.93915 1.13029 1.29679C1.77265 0.654433 2.49314 0.333252 3.29175 0.333252H17.9272L21.0522 3.45825H38.7084C39.507 3.45825 40.2275 3.77943 40.8699 4.42179C41.5122 5.06415 41.8334 5.78464 41.8334 6.58325H19.698L16.573 3.45825H3.29175V30.5416L8.60425 9.70825H44.9584L39.3855 31.2707C39.1772 32.1041 38.7952 32.7117 38.2397 33.0937C37.6841 33.4756 36.9723 33.6666 36.1042 33.6666H3.29175ZM6.573 30.5416H36.3647L40.7397 12.8333H10.948L6.573 30.5416ZM6.573 30.5416L10.948 12.8333L6.573 30.5416ZM3.29175 6.58325V3.45825V6.58325Z" fill="white"/>
</svg>
