<svg width="50" height="50" viewBox="0 0 50 50" fill="none" xmlns="http://www.w3.org/2000/svg">
<path d="M5.72925 11.1978C5.27786 11.1978 4.9046 11.0503 4.60946 10.7551C4.31432 10.46 4.16675 10.0867 4.16675 9.63534V3.64575C4.16675 3.19436 4.31432 2.8211 4.60946 2.52596C4.9046 2.23082 5.27786 2.08325 5.72925 2.08325H11.7188C12.1702 2.08325 12.5435 2.23082 12.8386 2.52596C13.1338 2.8211 13.2813 3.19436 13.2813 3.64575C13.2813 4.09714 13.1338 4.4704 12.8386 4.76554C12.5435 5.06068 12.1702 5.20825 11.7188 5.20825H7.29175V9.63534C7.29175 10.0867 7.14418 10.46 6.84904 10.7551C6.5539 11.0503 6.18064 11.1978 5.72925 11.1978ZM44.2709 11.1978C43.8195 11.1978 43.4463 11.0503 43.1511 10.7551C42.856 10.46 42.7084 10.0867 42.7084 9.63534V5.20825H38.2813C37.8299 5.20825 37.4567 5.06068 37.1615 4.76554C36.8664 4.4704 36.7188 4.09714 36.7188 3.64575C36.7188 3.19436 36.8664 2.8211 37.1615 2.52596C37.4567 2.23082 37.8299 2.08325 38.2813 2.08325H44.2709C44.7223 2.08325 45.0956 2.23082 45.3907 2.52596C45.6858 2.8211 45.8334 3.19436 45.8334 3.64575V9.63534C45.8334 10.0867 45.6858 10.46 45.3907 10.7551C45.0956 11.0503 44.7223 11.1978 44.2709 11.1978ZM5.72925 47.9166C5.27786 47.9166 4.9046 47.769 4.60946 47.4739C4.31432 47.1787 4.16675 46.8055 4.16675 46.3541V40.3645C4.16675 39.9131 4.31432 39.5399 4.60946 39.2447C4.9046 38.9496 5.27786 38.802 5.72925 38.802C6.18064 38.802 6.5539 38.9496 6.84904 39.2447C7.14418 39.5399 7.29175 39.9131 7.29175 40.3645V44.7916H11.7188C12.1702 44.7916 12.5435 44.9392 12.8386 45.2343C13.1338 45.5294 13.2813 45.9027 13.2813 46.3541C13.2813 46.8055 13.1338 47.1787 12.8386 47.4739C12.5435 47.769 12.1702 47.9166 11.7188 47.9166H5.72925ZM38.2813 47.9166C37.8299 47.9166 37.4567 47.769 37.1615 47.4739C36.8664 47.1787 36.7188 46.8055 36.7188 46.3541C36.7188 45.9027 36.8664 45.5294 37.1615 45.2343C37.4567 44.9392 37.8299 44.7916 38.2813 44.7916H42.7084V40.3645C42.7084 39.9131 42.856 39.5399 43.1511 39.2447C43.4463 38.9496 43.8195 38.802 44.2709 38.802C44.7223 38.802 45.0956 38.9496 45.3907 39.2447C45.6858 39.5399 45.8334 39.9131 45.8334 40.3645V46.3541C45.8334 46.8055 45.6858 47.1787 45.3907 47.4739C45.0956 47.769 44.7223 47.9166 44.2709 47.9166H38.2813ZM13.5417 38.5416H36.4584V11.4583H13.5417V38.5416ZM13.5417 41.6666C12.7084 41.6666 11.9792 41.3541 11.3542 40.7291C10.7292 40.1041 10.4167 39.3749 10.4167 38.5416V11.4583C10.4167 10.6249 10.7292 9.89575 11.3542 9.27075C11.9792 8.64575 12.7084 8.33325 13.5417 8.33325H36.4584C37.2917 8.33325 38.0209 8.64575 38.6459 9.27075C39.2709 9.89575 39.5834 10.6249 39.5834 11.4583V38.5416C39.5834 39.3749 39.2709 40.1041 38.6459 40.7291C38.0209 41.3541 37.2917 41.6666 36.4584 41.6666H13.5417ZM20.8334 20.3124H29.1667C29.6181 20.3124 29.9914 20.1649 30.2865 19.8697C30.5817 19.5746 30.7292 19.2013 30.7292 18.7499C30.7292 18.2985 30.5817 17.9253 30.2865 17.6301C29.9914 17.335 29.6181 17.1874 29.1667 17.1874H20.8334C20.382 17.1874 20.0088 17.335 19.7136 17.6301C19.4185 17.9253 19.2709 18.2985 19.2709 18.7499C19.2709 19.2013 19.4185 19.5746 19.7136 19.8697C20.0088 20.1649 20.382 20.3124 20.8334 20.3124ZM20.8334 26.5624H29.1667C29.6181 26.5624 29.9914 26.4149 30.2865 26.1197C30.5817 25.8246 30.7292 25.4513 30.7292 24.9999C30.7292 24.5485 30.5817 24.1753 30.2865 23.8801C29.9914 23.585 29.6181 23.4374 29.1667 23.4374H20.8334C20.382 23.4374 20.0088 23.585 19.7136 23.8801C19.4185 24.1753 19.2709 24.5485 19.2709 24.9999C19.2709 25.4513 19.4185 25.8246 19.7136 26.1197C20.0088 26.4149 20.382 26.5624 20.8334 26.5624ZM20.8334 32.8124H29.1667C29.6181 32.8124 29.9914 32.6649 30.2865 32.3697C30.5817 32.0746 30.7292 31.7013 30.7292 31.2499C30.7292 30.7985 30.5817 30.4253 30.2865 30.1301C29.9914 29.835 29.6181 29.6874 29.1667 29.6874H20.8334C20.382 29.6874 20.0088 29.835 19.7136 30.1301C19.4185 30.4253 19.2709 30.7985 19.2709 31.2499C19.2709 31.7013 19.4185 32.0746 19.7136 32.3697C20.0088 32.6649 20.382 32.8124 20.8334 32.8124ZM13.5417 38.5416V11.4583V38.5416Z" fill="white"/>
</svg>
