<svg width="50" height="50" viewBox="0 0 50 50" fill="none" xmlns="http://www.w3.org/2000/svg">
<path d="M7.29175 41.6666C6.49314 41.6666 5.77265 41.3454 5.13029 40.703C4.48793 40.0607 4.16675 39.3402 4.16675 38.5416V11.4583C4.16675 10.6596 4.48793 9.93915 5.13029 9.29679C5.77265 8.65443 6.49314 8.33325 7.29175 8.33325H21.9272L25.0522 11.4583H42.7084C43.507 11.4583 44.2275 11.7794 44.8699 12.4218C45.5122 13.0642 45.8334 13.7846 45.8334 14.5833H23.698L20.573 11.4583H7.29175V38.5416L12.6042 17.7083H48.9584L43.3855 39.2707C43.1772 40.1041 42.7952 40.7117 42.2397 41.0937C41.6841 41.4756 40.9723 41.6666 40.1042 41.6666H7.29175ZM10.573 38.5416H40.3647L44.7397 20.8333H14.948L10.573 38.5416ZM10.573 38.5416L14.948 20.8333L10.573 38.5416ZM7.29175 14.5833V11.4583V14.5833Z" fill="white"/>
</svg>
