<svg width="50" height="50" viewBox="0 0 50 50" fill="none" xmlns="http://www.w3.org/2000/svg">
<path d="M21.411 22.7273H28.589V6.81818C28.589 5.87121 28.2501 5.06629 27.5721 4.40341C26.8942 3.74053 26.0368 3.40909 25 3.40909C24.0031 3.40909 23.1556 3.73106 22.4578 4.375C21.7599 5.01894 21.411 5.83333 21.411 6.81818V22.7273ZM7.05489 32.9545H42.9451V26.1364H7.05489V32.9545ZM3.2266 46.5909H11.2421V41.4773C11.2421 40.9848 11.4116 40.5777 11.7505 40.2557C12.0895 39.9337 12.5182 39.7727 13.0366 39.7727C13.555 39.7727 13.9837 39.9337 14.3227 40.2557C14.6616 40.5777 14.8311 40.9848 14.8311 41.4773V46.5909H23.2055V41.4773C23.2055 40.9848 23.375 40.5777 23.7139 40.2557C24.0529 39.9337 24.4816 39.7727 25 39.7727C25.5184 39.7727 25.9471 39.9337 26.2861 40.2557C26.625 40.5777 26.7945 40.9848 26.7945 41.4773V46.5909H35.1689V41.4773C35.1689 40.9848 35.3384 40.5777 35.6773 40.2557C36.0163 39.9337 36.445 39.7727 36.9634 39.7727C37.4818 39.7727 37.9105 39.9337 38.2495 40.2557C38.5884 40.5777 38.7579 40.9848 38.7579 41.4773V46.5909H46.7734L43.7826 35.2273H6.21745L3.2266 46.5909ZM45.2182 50H4.78184C3.2266 50 1.97044 49.4129 1.01337 48.2386C0.0562985 47.0644 -0.222848 45.7576 0.175932 44.3182L3.46587 31.8182V27.2727C3.46587 26.0227 3.93444 24.9527 4.87157 24.0625C5.8087 23.1723 6.93526 22.7273 8.25123 22.7273H17.822V6.81818C17.822 4.92424 18.5198 3.31439 19.9156 1.98864C21.3113 0.662879 23.0061 0 25 0C26.9939 0 28.6887 0.662879 30.0844 1.98864C31.4802 3.31439 32.178 4.92424 32.178 6.81818V22.7273H41.7488C43.0647 22.7273 44.1913 23.1723 45.1284 24.0625C46.0656 24.9527 46.5341 26.0227 46.5341 27.2727V31.8182L49.8241 44.3182C50.2229 45.7576 49.9437 47.0644 48.9866 48.2386C48.0296 49.4129 46.7734 50 45.2182 50ZM42.9451 26.1364H7.05489H42.9451ZM28.589 22.7273H21.411H28.589Z" fill="white"/>
</svg>
