<svg width="50" height="50" viewBox="0 0 50 50" fill="none" xmlns="http://www.w3.org/2000/svg">
<path d="M13.5417 36.4584H42.7084V7.29175H39.5834V20.3647C39.5834 20.6772 39.4532 20.9115 39.1928 21.0678C38.9324 21.224 38.6633 21.2154 38.3855 21.0417L34.7397 18.8022L31.0938 21.0417C30.8161 21.2154 30.547 21.224 30.2865 21.0678C30.0261 20.9115 29.8959 20.6772 29.8959 20.3647V7.29175H13.5417V36.4584ZM13.5417 39.5834C12.7084 39.5834 11.9792 39.2709 11.3542 38.6459C10.7292 38.0209 10.4167 37.2917 10.4167 36.4584V7.29175C10.4167 6.45841 10.7292 5.72925 11.3542 5.10425C11.9792 4.47925 12.7084 4.16675 13.5417 4.16675H42.7084C43.5417 4.16675 44.2709 4.47925 44.8959 5.10425C45.5209 5.72925 45.8334 6.45841 45.8334 7.29175V36.4584C45.8334 37.2917 45.5209 38.0209 44.8959 38.6459C44.2709 39.2709 43.5417 39.5834 42.7084 39.5834H13.5417ZM7.29175 45.8334C6.45841 45.8334 5.72925 45.5209 5.10425 44.8959C4.47925 44.2709 4.16675 43.5417 4.16675 42.7084V11.9792C4.16675 11.5279 4.31432 11.1546 4.60946 10.8595C4.9046 10.5643 5.27786 10.4167 5.72925 10.4167C6.18064 10.4167 6.5539 10.5643 6.84904 10.8595C7.14418 11.1546 7.29175 11.5279 7.29175 11.9792V42.7084H38.0209C38.4723 42.7084 38.8456 42.856 39.1407 43.1511C39.4358 43.4463 39.5834 43.8195 39.5834 44.2709C39.5834 44.7223 39.4358 45.0956 39.1407 45.3907C38.8456 45.6858 38.4723 45.8334 38.0209 45.8334H7.29175ZM29.8959 7.29175H39.5834H29.8959ZM13.5417 7.29175H42.7084H13.5417Z" fill="white"/>
</svg>
