<svg width="46" height="42" viewBox="0 0 46 42" fill="none" xmlns="http://www.w3.org/2000/svg">
<path d="M23 31.0817C22.3771 31.0817 21.862 30.8963 21.4547 30.5255C21.0474 30.1547 20.8437 29.6858 20.8437 29.1187V6.80526L13.7281 13.2834C13.2969 13.676 12.7937 13.8614 12.2187 13.8396C11.6437 13.8177 11.1406 13.6105 10.7094 13.2179C10.2781 12.8253 10.0625 12.3564 10.0625 11.8111C10.0625 11.2658 10.2781 10.7968 10.7094 10.4042L21.4906 0.588917C21.7302 0.370799 21.9698 0.218117 22.2094 0.13087C22.449 0.0436227 22.7125 0 23 0C23.2875 0 23.551 0.0436227 23.7906 0.13087C24.0302 0.218117 24.2698 0.370799 24.5094 0.588917L35.3625 10.4696C35.7937 10.8622 36.0094 11.3203 36.0094 11.8438C36.0094 12.3673 35.7937 12.8253 35.3625 13.2179C34.9312 13.6105 34.4161 13.8068 33.8172 13.8068C33.2182 13.8068 32.7031 13.6105 32.2719 13.2179L25.1562 6.80526V29.1187C25.1562 29.6858 24.9526 30.1547 24.5453 30.5255C24.138 30.8963 23.6229 31.0817 23 31.0817V31.0817ZM4.3125 41.0933C3.1625 41.0933 2.15625 40.7007 1.29375 39.9155C0.431249 39.1303 0 38.2142 0 37.1672V29.773C0 29.2059 0.203646 28.737 0.610938 28.3662C1.01823 27.9954 1.53333 27.81 2.15625 27.81C2.77917 27.81 3.29427 27.9954 3.70156 28.3662C4.10885 28.737 4.3125 29.2059 4.3125 29.773V37.1672H41.6875V29.773C41.6875 29.2059 41.8911 28.737 42.2984 28.3662C42.7057 27.9954 43.2208 27.81 43.8437 27.81C44.4667 27.81 44.9818 27.9954 45.3891 28.3662C45.7964 28.737 46 29.2059 46 29.773V37.1672C46 38.2142 45.5687 39.1303 44.7062 39.9155C43.8437 40.7007 42.8375 41.0933 41.6875 41.0933H4.3125Z" fill="white"/>
</svg>
