<svg width="52" height="29" viewBox="0 0 52 29" fill="none" xmlns="http://www.w3.org/2000/svg">
<path d="M1.91166 28.252C1.6842 28.252 1.49087 28.1736 1.33165 28.0167C1.17242 27.8598 1.09281 27.6693 1.09281 27.4452L0.853638 1.14308C0.853638 0.918948 0.933248 0.728435 1.09247 0.571542C1.25169 0.414647 1.44503 0.3362 1.67249 0.3362H4.47022C4.69767 0.3362 4.89101 0.414647 5.05023 0.571542C5.20945 0.728435 5.28906 0.918948 5.28906 1.14308V2.5215C5.88045 1.80428 6.63106 1.21032 7.54089 0.739642C8.47347 0.246547 9.62213 0 10.9869 0C12.3744 0 13.5799 0.313787 14.6035 0.941361C15.627 1.54652 16.4117 2.40944 16.9576 3.53011C17.5263 4.65077 17.8106 5.99558 17.8106 7.56451V10.2247C17.8106 10.4488 17.731 10.6393 17.5718 10.7962C17.4126 10.9531 17.2192 11.0316 16.9918 11.0316H13.9893C13.7619 11.0316 13.5685 10.9531 13.4093 10.7962C13.2501 10.6393 13.1705 10.4488 13.1705 10.2247V7.76623C13.1705 6.46626 12.8407 5.44645 12.181 4.70681C11.5441 3.96717 10.6116 3.59735 9.3833 3.59735C8.20052 3.59735 7.25657 3.96717 6.55145 4.70681C5.84633 5.44645 5.49377 6.46626 5.49377 7.76623L5.73295 27.4452C5.73295 27.6693 5.65334 27.8598 5.49412 28.0167C5.3349 28.1736 5.14156 28.252 4.9141 28.252H1.91166Z" fill="#F3802D"/>
<path d="M14.0576 28.521C13.8301 28.521 13.6368 28.4426 13.4775 28.2857C13.3183 28.1288 13.2387 27.9383 13.2387 27.7141L13.3069 19.8442C13.3069 19.62 13.3866 19.4295 13.5458 19.2726C13.705 19.1157 13.8983 19.0373 14.1258 19.0373H16.9577C17.2079 19.0373 17.4012 19.1157 17.5377 19.2726C17.6969 19.4295 17.7765 19.62 17.7765 19.8442L17.7083 27.7141C17.7083 27.9383 17.6287 28.1288 17.4695 28.2857C17.333 28.4426 17.1396 28.521 16.8894 28.521H14.0576ZM13.9893 18.0876C13.7391 18.0876 13.5344 18.0204 13.3752 17.8859C13.2387 17.729 13.1705 17.5273 13.1705 17.2807V14.8601C13.1705 14.6359 13.2387 14.4454 13.3752 14.2885C13.5344 14.1316 13.7391 14.0532 13.9893 14.0532H17.0942C17.3444 14.0532 17.5491 14.1316 17.7083 14.2885C17.8675 14.4454 17.9471 14.6359 17.9471 14.8601V17.2807C17.9471 17.5273 17.8675 17.729 17.7083 17.8859C17.5491 18.0204 17.3444 18.0876 17.0942 18.0876H13.9893Z" fill="#F3802D"/>
<path d="M20.4869 28.521C20.2594 28.521 20.0661 28.4426 19.9069 28.2857C19.7477 28.1288 19.6681 27.9383 19.6681 27.7141L19.9069 1.14309C19.9069 0.918953 19.9865 0.728437 20.1457 0.571544C20.3049 0.41465 20.4983 0.336199 20.7257 0.336199H23.4893C23.7395 0.336199 23.9329 0.41465 24.0694 0.571544C24.2286 0.728437 24.3082 0.918953 24.3082 1.14309V12.6412L29.0496 1.10946C29.2543 0.930155 29.4363 0.795672 29.5955 0.706019C29.7547 0.593952 29.9936 0.53792 30.312 0.53792H33.485C33.7125 0.53792 33.8945 0.605161 34.0309 0.739642C34.1674 0.874122 34.2356 1.05343 34.2356 1.27756C34.2356 1.36721 34.2129 1.46807 34.1674 1.58014C34.1219 1.69221 34.0309 1.79307 33.8945 1.88272L27.8565 14.5575L34.4745 27.2098C34.7019 27.434 34.8157 27.6245 34.8157 27.7814C34.8157 28.0055 34.7361 28.1848 34.5768 28.3193C34.4404 28.4538 34.2698 28.521 34.0651 28.521H30.8238C30.4826 28.521 30.2324 28.4762 30.0732 28.3865C29.9367 28.2745 29.7661 28.1288 29.5614 27.9495L24.3082 16.8773L24.0694 27.7141C24.0694 27.9383 23.9898 28.1288 23.8305 28.2857C23.6941 28.4426 23.5007 28.521 23.2505 28.521H20.4869Z" fill="#F3802D"/>
<path d="M42.5947 18.491C40.7751 18.491 39.2397 18.1772 37.9887 17.5497C36.7604 16.9221 35.8165 16.0368 35.1568 14.8937C34.52 13.7506 34.156 12.417 34.0651 10.8929C34.0423 10.4895 34.0309 9.99636 34.0309 9.41361C34.0309 8.83087 34.0423 8.33777 34.0651 7.93433C34.156 6.38781 34.5313 5.05421 35.191 3.93355C35.8733 2.79046 36.8287 1.90513 38.0569 1.27756C39.308 0.649983 40.8205 0.336199 42.5947 0.336199C44.3689 0.336199 45.8701 0.649983 47.0984 1.27756C48.3494 1.90513 49.3047 2.79046 49.9644 3.93355C50.6467 5.05421 51.0334 6.38781 51.1244 7.93433C51.1471 8.33777 51.1585 8.83087 51.1585 9.41361C51.1585 9.99636 51.1471 10.4895 51.1244 10.8929C51.0334 12.417 50.6581 13.7506 49.9985 14.8937C49.3616 16.0368 48.4176 16.9221 47.1666 17.5497C45.9384 18.1772 44.4144 18.491 42.5947 18.491ZM42.5947 15.1626C43.8002 15.1626 44.7328 14.7928 45.3925 14.0532C46.0521 13.2911 46.416 12.1817 46.4843 10.7248C46.507 10.3886 46.5184 9.95154 46.5184 9.41361C46.5184 8.87569 46.507 8.43863 46.4843 8.10243C46.416 6.66798 46.0521 5.56972 45.3925 4.80766C44.7328 4.04561 43.8002 3.66458 42.5947 3.66458C41.3892 3.66458 40.4566 4.04561 39.797 4.80766C39.1374 5.56972 38.7734 6.66798 38.7052 8.10243C38.6824 8.43863 38.6711 8.87569 38.6711 9.41361C38.6711 9.95154 38.6824 10.3886 38.7052 10.7248C38.7734 12.1817 39.1374 13.2911 39.797 14.0532C40.4566 14.7928 41.3892 15.1626 42.5947 15.1626Z" fill="#F3802D"/>
<path d="M48.7878 22.7606L48.7878 22.9946C48.7878 24.0992 47.8924 24.9946 46.7878 24.9946L39.0732 24.9946C37.9686 24.9946 37.0732 24.0992 37.0732 22.9946L37.0732 22.7606C37.0732 21.656 37.9686 20.7606 39.0732 20.7606L46.7878 20.7606C47.8924 20.7606 48.7878 21.656 48.7878 22.7606Z" fill="white"/>
</svg>
