<svg width="33" height="32" viewBox="0 0 33 32" fill="none" xmlns="http://www.w3.org/2000/svg">
<path d="M31.3325 15.445L25.625 6.89125C25.4433 6.61728 25.1966 6.39252 24.907 6.23702C24.6174 6.08151 24.2937 6.00008 23.965 6H5.5C4.96957 6 4.46086 6.21071 4.08579 6.58579C3.71071 6.96086 3.5 7.46957 3.5 8V24C3.5 24.5304 3.71071 25.0391 4.08579 25.4142C4.46086 25.7893 4.96957 26 5.5 26H23.965C24.2935 25.9994 24.6168 25.9179 24.9063 25.7626C25.1959 25.6074 25.4427 25.3833 25.625 25.11L31.3288 16.555C31.4389 16.391 31.4981 16.1981 31.4988 16.0006C31.4994 15.803 31.4416 15.6097 31.3325 15.445Z" fill="#F3802D"/>
</svg>
